<svg width="21" height="28" viewBox="0 0 21 28" fill="none" xmlns="http://www.w3.org/2000/svg">
<path fill-rule="evenodd" clip-rule="evenodd" d="M11.9217 15.7088C11.8348 15.7088 11.7479 15.6771 11.6796 15.6137L10.2911 14.3224L9.0086 14.3224C8.8123 14.3224 8.65315 14.1633 8.65315 13.9669V12.8185L7.32139 11.4867C7.18904 11.3543 7.18193 11.1421 7.30517 11.0013L8.71063 9.39504V8.15816C8.71063 7.9618 8.86979 7.80265 9.06608 7.80265L10.3712 7.80271L11.6704 6.5037C11.8091 6.36489 12.0342 6.36496 12.1731 6.5037L13.472 7.80271H14.7772C14.9735 7.80271 15.1326 7.9618 15.1326 8.15817V9.3951L16.5382 11.0013C16.6614 11.1422 16.6544 11.3544 16.522 11.4868L15.1901 12.8186V13.967C15.1901 14.1634 15.031 14.3224 14.8347 14.3224H13.5522L12.1637 15.6137C12.0956 15.6771 12.0087 15.7088 11.9217 15.7088ZM3.68079 0H20.1626C20.3589 0 20.5181 0.15909 20.5181 0.355451L20.518 25.295C20.5181 25.4914 20.3589 25.6505 20.1626 25.6505H16.0103V27.6445C16.0103 27.9138 15.7087 28.0871 15.476 27.9517L14.4656 27.3637C14.256 27.4902 13.5152 28 13.3125 28C13.1204 28 12.957 27.8387 12.957 27.6445V25.6505H2.12648C0.955744 25.6505 -0.00758396 24.6935 4.50029e-05 23.5189V2.01805C4.50029e-05 0.905319 0.905303 6.07036e-05 2.0181 6.07036e-05L3.68079 0ZM19.8072 21.3974V0.710888H4.03623V21.3974H19.8072ZM2.01805 0.710888C1.29733 0.710888 0.710903 1.29732 0.710903 2.01804V21.9383C1.4778 21.2582 2.34263 21.3973 3.32526 21.3973V0.710836L2.01805 0.710888ZM15.2993 25.2996L15.2992 23.8795L13.6679 23.8794V27.0148C14.6006 26.4518 14.348 26.4729 15.2993 27.0264L15.2993 25.2996ZM16.0102 24.9396H19.8071V23.8794H16.0102V24.9396ZM19.8071 23.1685V22.1084H3.68072C3.32746 22.1084 2.15253 22.055 1.77311 22.153C1.35327 22.2615 1.18113 22.5235 1.12597 22.5235C0.946787 22.7573 0.88071 22.8139 0.77465 23.1035C0.498777 24.0297 1.18068 24.9396 2.12643 24.9396H12.957V23.8794H10.259C9.80029 23.8794 9.80029 23.1685 10.259 23.1685L19.8071 23.1685ZM11.9216 17.5517C11.8347 17.5517 11.7478 17.52 11.6795 17.4566L9.65199 15.571H7.75976C7.56346 15.571 7.4043 15.4119 7.4043 15.2156V13.5118L5.45698 11.5645C5.32463 11.4322 5.31753 11.2199 5.44077 11.079L7.48653 8.74107V6.91673C7.48653 6.72037 7.64562 6.56128 7.84198 6.56128H9.76973L11.6703 4.66072C11.8092 4.52197 12.0342 4.52197 12.173 4.66072L14.0736 6.56128H16.0013C16.1977 6.56128 16.3568 6.72037 16.3568 6.91673V8.74101L18.4024 11.079C18.5257 11.2199 18.5186 11.4322 18.3863 11.5644L16.4389 13.5118V15.2156C16.4389 15.4119 16.2798 15.571 16.0835 15.571H14.1913L12.1637 17.4566C12.0955 17.52 12.0086 17.5517 11.9216 17.5517ZM8.11528 14.8601H9.7917C9.88155 14.8601 9.96804 14.894 10.0339 14.9553L11.9217 16.7109L13.8095 14.9553C13.8753 14.894 13.9618 14.8601 14.0516 14.8601H15.728V13.3645C15.728 13.2703 15.7655 13.1798 15.8321 13.1132L17.6484 11.2968L15.7338 9.10859C15.6771 9.0438 15.6459 8.96061 15.6459 8.87451V7.27211L13.9264 7.27204C13.8321 7.27204 13.7417 7.23465 13.675 7.16799L11.9216 5.41477L10.1683 7.16799C10.1017 7.23465 10.0113 7.27204 9.91702 7.27204H8.19745V8.87451C8.19745 8.96067 8.16619 9.0438 8.10947 9.10859L6.19483 11.2968L8.0111 13.1132C8.07776 13.1798 8.11522 13.2702 8.11522 13.3645L8.11528 14.8601ZM9.3641 13.6114H10.4308C10.5207 13.6114 10.6071 13.6455 10.6729 13.7066L11.9217 14.8679L13.1704 13.7066C13.2362 13.6454 13.3227 13.6114 13.4125 13.6114H14.4793C14.4793 13.2407 14.4075 12.5959 14.5834 12.42L15.7842 11.2191L14.5097 9.76272C14.3544 9.58529 14.4217 8.79016 14.4217 8.51351H13.3248C13.2305 8.51351 13.1401 8.47611 13.0734 8.40939L11.9216 7.25765L10.7698 8.40939C10.7031 8.47605 10.6127 8.51345 10.5184 8.51345H9.42159C9.42159 8.79003 9.48896 9.58522 9.33362 9.76259L8.05915 11.2191L9.25998 12.4198C9.43599 12.5959 9.3641 13.2406 9.3641 13.6114Z" fill="#148472"/>
<path fill-rule="evenodd" clip-rule="evenodd" d="M3.3253 21.3974V0.710938H2.01809C1.29737 0.710938 0.710938 1.29737 0.710938 2.01809V21.9384C1.47784 21.2583 2.34267 21.3974 3.3253 21.3974Z" fill="#80DDEC"/>
<path fill-rule="evenodd" clip-rule="evenodd" d="M3.3253 21.3974V0.710938H2.01809C1.29737 0.710938 0.710938 1.29737 0.710938 2.01809V21.9384C1.47784 21.2583 2.34267 21.3974 3.3253 21.3974Z" fill="url(#paint0_linear_3477_2481)"/>
<path fill-rule="evenodd" clip-rule="evenodd" d="M4.03711 0.710938V21.3974H19.808V0.710938H4.03711ZM5.44173 11.0791L7.48749 8.74109V6.91675C7.48749 6.72039 7.64658 6.5613 7.84294 6.5613H9.77069L11.6713 4.66073C11.8101 4.52199 12.0352 4.52199 12.174 4.66073L14.0745 6.5613H16.0023C16.1986 6.5613 16.3577 6.72039 16.3577 6.91675V8.74102L18.4034 11.0791C18.5267 11.2199 18.5196 11.4322 18.3872 11.5644L16.4399 13.5118V15.2156C16.4399 15.4119 16.2807 15.5711 16.0844 15.5711H14.1922L12.1647 17.4566C12.0965 17.5201 12.0096 17.5518 11.9226 17.5518C11.8356 17.5518 11.7488 17.5201 11.6805 17.4566L9.65294 15.5711H7.76071C7.56441 15.5711 7.40526 15.412 7.40526 15.2156V13.5118L5.45793 11.5645C5.32558 11.4322 5.31849 11.2199 5.44173 11.0791Z" fill="#80DDEC"/>
<path fill-rule="evenodd" clip-rule="evenodd" d="M4.03711 0.710938V21.3974H19.808V0.710938H4.03711ZM5.44173 11.0791L7.48749 8.74109V6.91675C7.48749 6.72039 7.64658 6.5613 7.84294 6.5613H9.77069L11.6713 4.66073C11.8101 4.52199 12.0352 4.52199 12.174 4.66073L14.0745 6.5613H16.0023C16.1986 6.5613 16.3577 6.72039 16.3577 6.91675V8.74102L18.4034 11.0791C18.5267 11.2199 18.5196 11.4322 18.3872 11.5644L16.4399 13.5118V15.2156C16.4399 15.4119 16.2807 15.5711 16.0844 15.5711H14.1922L12.1647 17.4566C12.0965 17.5201 12.0096 17.5518 11.9226 17.5518C11.8356 17.5518 11.7488 17.5201 11.6805 17.4566L9.65294 15.5711H7.76071C7.56441 15.5711 7.40526 15.412 7.40526 15.2156V13.5118L5.45793 11.5645C5.32558 11.4322 5.31849 11.2199 5.44173 11.0791Z" fill="url(#paint1_linear_3477_2481)"/>
<path fill-rule="evenodd" clip-rule="evenodd" d="M11.9221 5.4148L10.1688 7.16801C10.1022 7.23467 10.0117 7.27207 9.9175 7.27207H8.19793V8.87454C8.19793 8.9607 8.16667 9.04383 8.10995 9.10862L6.19531 11.2969L8.01158 13.1132C8.07824 13.1799 8.1157 13.2702 8.1157 13.3645L8.11577 14.8602H9.79219C9.88204 14.8602 9.96852 14.8941 10.0343 14.9553L11.9222 16.7109L13.81 14.9553C13.8758 14.8941 13.9623 14.8602 14.0521 14.8602H15.7285V13.3645C15.7285 13.2703 15.766 13.1799 15.8326 13.1132L17.6489 11.2969L15.7343 9.10862C15.6776 9.04383 15.6464 8.96064 15.6464 8.87454V7.27214L13.9269 7.27207C13.8326 7.27207 13.7422 7.23467 13.6755 7.16801L11.9221 5.4148ZM10.3716 7.80276L11.6708 6.50375C11.8095 6.36494 12.0346 6.36501 12.1735 6.50375L13.4724 7.80276H14.7776C14.9739 7.80276 15.133 7.96185 15.133 8.15821V9.39515L16.5386 11.0014C16.6618 11.1422 16.6548 11.3545 16.5224 11.4868L15.1905 12.8187V13.967C15.1905 14.1634 15.0314 14.3225 14.8351 14.3225H13.5526L12.1641 15.6138C12.0961 15.6772 12.0091 15.7089 11.9221 15.7089C11.8352 15.7089 11.7483 15.6772 11.68 15.6138L10.2915 14.3225L9.00901 14.3224C8.81271 14.3224 8.65356 14.1633 8.65356 13.967V12.8186L7.3218 11.4867C7.18945 11.3544 7.18234 11.1422 7.30558 11.0014L8.71104 9.39509V8.15821C8.71104 7.96185 8.8702 7.8027 9.06649 7.8027L10.3716 7.80276Z" fill="white"/>
<path fill-rule="evenodd" clip-rule="evenodd" d="M11.923 7.25757L10.7712 8.40931C10.7045 8.47597 10.6141 8.51337 10.5198 8.51337H9.42299C9.42299 8.78995 9.49036 9.58514 9.33501 9.76251L8.06055 11.219L9.26138 12.4198C9.43739 12.5958 9.3655 13.2405 9.3655 13.6114H10.4322C10.5221 13.6114 10.6085 13.6454 10.6743 13.7065L11.9231 14.8679L13.1718 13.7065C13.2376 13.6453 13.3241 13.6114 13.4139 13.6114H14.4807C14.4807 13.2407 14.4089 12.5958 14.5848 12.4199L15.7856 11.2191L14.5111 9.76264C14.3558 9.58521 14.4231 8.79008 14.4231 8.51343H13.3262C13.2319 8.51343 13.1415 8.47603 13.0748 8.40931L11.923 7.25757Z" fill="white"/>
<path fill-rule="evenodd" clip-rule="evenodd" d="M19.8072 22.1085H3.68081C3.32755 22.1085 2.15262 22.0551 1.77321 22.1532C1.35336 22.2617 1.18122 22.5236 1.12606 22.5236C0.946878 22.7574 0.880802 22.814 0.774741 23.1036C0.498868 24.0298 1.18077 24.9398 2.12652 24.9398H12.9571V23.8795H10.2591C9.80038 23.8795 9.80038 23.1686 10.2591 23.1686H19.8072L19.8072 22.1085Z" fill="white"/>
<path fill-rule="evenodd" clip-rule="evenodd" d="M19.8067 23.8794H16.0098V24.9396H19.8067V23.8794Z" fill="white"/>
<path fill-rule="evenodd" clip-rule="evenodd" d="M15.2993 25.2996L15.2992 23.8795L13.668 23.8794V27.0148C14.6006 26.4518 14.348 26.4728 15.2993 27.0264L15.2993 25.2996Z" fill="white"/>
<defs>
<linearGradient id="paint0_linear_3477_2481" x1="2.01812" y1="0.710938" x2="2.01812" y2="21.9384" gradientUnits="userSpaceOnUse">
<stop stop-color="#DFFFF7"/>
<stop offset="1" stop-color="#1A9B65"/>
</linearGradient>
<linearGradient id="paint1_linear_3477_2481" x1="11.9226" y1="0.710938" x2="11.9226" y2="21.3974" gradientUnits="userSpaceOnUse">
<stop stop-color="#DFFFF7"/>
<stop offset="1" stop-color="#1A9B65"/>
</linearGradient>
</defs>
</svg>
