<svg width="76" height="44" viewBox="0 0 76 44" fill="none" xmlns="http://www.w3.org/2000/svg">
<rect width="76" height="44" rx="22" fill="url(#paint0_linear_3469_2476)"/>
<path d="M35.9986 29.3276V24.3276H39.9986V29.3276C39.9986 29.8776 40.4486 30.3276 40.9986 30.3276H43.9986C44.5486 30.3276 44.9986 29.8776 44.9986 29.3276V22.3276H46.6986C47.1586 22.3276 47.3786 21.7576 47.0286 21.4576L38.6686 13.9276C38.2886 13.5876 37.7086 13.5876 37.3286 13.9276L28.9686 21.4576C28.6286 21.7576 28.8386 22.3276 29.2986 22.3276H30.9986V29.3276C30.9986 29.8776 31.4486 30.3276 31.9986 30.3276H34.9986C35.5486 30.3276 35.9986 29.8776 35.9986 29.3276Z" fill="white"/>
<defs>
<linearGradient id="paint0_linear_3469_2476" x1="74.3111" y1="42.2832" x2="12.5878" y2="-0.0164364" gradientUnits="userSpaceOnUse">
<stop stop-color="#0A4F44"/>
<stop offset="1" stop-color="#1DB29A"/>
</linearGradient>
</defs>
</svg>
