<svg width="360" height="800" viewBox="0 0 360 800" fill="none" xmlns="http://www.w3.org/2000/svg">
<g clip-path="url(#clip0_3398_3892)">
<rect width="360" height="800" fill="url(#paint0_linear_3398_3892)"/>
<path opacity="0.6" d="M-287.078 87.1059C-284.594 83.9401 -281.149 82.4829 -277.304 81.9427C-276.542 81.8296 -275.694 82.2693 -274.82 82.4703C-275.269 83.2994 -275.644 84.0029 -276.143 84.9451C-275.544 84.9828 -275.094 85.1461 -274.87 84.9954C-273.047 83.714 -270.937 82.6336 -269.552 80.9628C-267.966 79.0659 -265.931 78.4001 -263.872 77.6589C-261.774 76.9051 -259.602 76.4906 -257.305 76.9428C-254.721 77.4579 -252 77.0307 -249.453 78.1237C-248.13 78.689 -247.044 79.3046 -246.083 80.4477C-244.76 82.0055 -243.561 83.8145 -241.639 84.631C-240.553 84.1788 -240.715 83.3874 -240.977 82.8095C-241.614 81.4025 -241.951 79.8447 -242.562 78.5131C-243.986 75.473 -242.587 72.6967 -242.35 69.845C-242.275 68.8777 -241.352 67.9355 -240.715 67.0562C-238.281 63.702 -235.934 60.2599 -231.577 59.0915C-230.304 58.7524 -229.155 58.5765 -227.907 59.0287C-226.746 59.4433 -225.547 59.7448 -224.162 60.1594C-224.574 62.6216 -226.009 64.9205 -225.323 67.5084C-224.674 68.1868 -223.825 68.6516 -223.238 67.6592C-222.551 66.4783 -222.015 65.1467 -221.703 63.8025C-221.091 61.2146 -220.729 58.5514 -218.594 56.6419C-218.394 56.466 -218.245 56.1896 -218.145 55.9384C-216.347 51.0893 -212.19 48.6898 -208.133 46.1773C-204.438 43.891 -200.131 43.0367 -196.299 41.0518C-195.475 40.6247 -194.401 40.6875 -193.44 40.5745C-192.616 40.474 -191.717 40.6373 -190.981 40.3609C-189.845 39.9212 -188.834 40.072 -187.71 40.2981C-186.212 40.5996 -184.652 40.6247 -183.141 40.8634C-182.205 41.0142 -181.019 41.0393 -180.42 41.6171C-179.072 42.9111 -177.861 42.2578 -176.388 41.7051C-173.766 44.004 -170.72 45.5241 -167.15 46.0894C-165.053 46.416 -164.191 48.8783 -161.957 49.4561C-160.034 49.9586 -158.898 51.7927 -158.349 53.8153C-158.249 54.2047 -157.999 54.7072 -157.687 54.8454C-154.829 56.1017 -153.992 58.9282 -152.432 61.5412C-153.094 62.1442 -153.855 62.7095 -154.442 63.4256C-154.754 63.815 -155.066 64.5939 -154.879 64.9205C-154.579 65.4607 -153.867 66.114 -153.356 66.1014C-151.845 66.0637 -150.247 65.9632 -148.862 65.423C-147.214 64.7698 -145.716 64.3175 -144.068 65.1969C-143.831 65.3225 -143.506 65.4356 -143.257 65.3853C-138.438 64.5185 -135.866 68.124 -133.195 70.9254C-130.161 74.0911 -129.949 78.2619 -130.91 82.4577C-131.123 83.3748 -131.472 84.2667 -131.959 85.8119C-130.935 85.3094 -130.311 85.2215 -130.124 84.8823C-129.462 83.6637 -128.676 82.4075 -128.451 81.0759C-128.014 78.5885 -127.902 76.0383 -127.727 73.5133C-127.627 72.056 -128.214 70.85 -129.1 69.644C-133.095 64.2296 -138.488 61.5287 -145.079 61.001C-146.303 60.9005 -147.513 60.687 -148.762 60.5237C-150.422 56.0514 -152.794 52.3329 -156.639 49.7199C-157.201 49.3431 -157.762 48.7652 -158.024 48.1496C-159.111 45.612 -161.333 44.4814 -163.567 43.3005C-165.54 42.2578 -167.425 41.0518 -169.422 40.0594C-171.282 39.1298 -173.055 37.9363 -175.277 37.8735C-176.088 37.8484 -176.887 37.4338 -177.686 37.1575C-178.21 36.9816 -178.759 36.7932 -179.234 36.5168C-180.644 35.7128 -182.242 35.4741 -183.715 35.763C-187.673 36.5294 -191.842 34.4691 -195.662 36.7304C-196.136 37.0193 -196.686 37.459 -197.16 37.4213C-199.832 37.1575 -201.866 38.8157 -204.201 39.5695C-209.469 41.278 -213.439 44.7075 -216.896 48.8029C-218.944 51.24 -220.629 53.9786 -222.439 56.5288C-223.95 55.9761 -225.36 55.4484 -227.045 54.8329C-226.996 54.0791 -226.996 53.1369 -226.858 52.2073C-226.584 50.4234 -226.321 48.627 -225.885 46.8808C-225.435 45.0718 -223.613 44.1548 -222.963 42.3206C-221.79 38.9665 -219.393 36.3158 -216.859 33.9289C-214.138 31.3662 -211.329 28.8286 -207.596 27.7607C-207.459 27.7231 -207.322 27.6854 -207.209 27.5974C-203.739 24.9091 -199.519 24.4568 -195.437 23.5146C-192.778 22.9116 -190.144 23.0498 -187.498 23.2131C-185.825 23.3136 -184.165 23.6277 -182.517 23.9292C-181.868 24.0548 -181.269 24.4317 -180.42 24.7834C-181.706 27.4718 -183.441 29.8712 -183.066 33.1249C-182.43 32.8737 -181.955 32.836 -181.743 32.5722C-179.309 29.7205 -176.6 27.1201 -174.777 23.7533C-174.216 22.7232 -173.08 21.5172 -172.031 21.3162C-169.097 20.7509 -167.375 18.3138 -164.84 17.2083C-163.567 16.6555 -162.356 15.7636 -161.033 15.5751C-158.823 15.2611 -156.614 15.0601 -154.554 14.1053C-154.205 13.942 -153.73 13.9546 -153.331 14.03C-148.287 15.0475 -143.107 15.5626 -138.376 17.7861C-136.877 18.4896 -135.479 19.4067 -134.019 20.1981C-133.42 20.5248 -132.77 20.7383 -132.196 20.977C-131.422 20.3112 -131.897 19.8841 -132.271 19.5072C-135.28 16.4671 -138.688 14.1556 -142.782 12.7486C-145.953 11.6682 -148.986 10.2235 -152.382 9.95973C-152.619 9.94716 -152.831 9.64566 -153.081 9.45723C-153.53 8.66579 -152.881 8.15073 -152.482 7.67336C-148.862 3.37699 -145.154 -0.806313 -140.048 -3.40674C-139.187 -3.84643 -138.5 -4.61274 -137.664 -5.09011C-136.703 -5.64286 -135.679 -6.32124 -134.63 -6.4343C-132.508 -6.64786 -130.536 -7.26342 -128.551 -7.96692C-127.777 -8.24329 -126.928 -8.40661 -126.104 -8.43173C-121.922 -8.56992 -117.728 -8.34379 -113.596 -7.77848C-111.324 -7.47698 -109.177 -6.22074 -106.855 -5.34136C-107.042 -4.29868 -107.092 -3.45699 -107.354 -2.69068C-108.415 0.349436 -109.589 3.35187 -110.65 6.40455C-111.236 8.08792 -111.648 9.80898 -110.849 12.0953C-110.288 11.3165 -109.851 10.9396 -109.726 10.4874C-108.802 7.09548 -107.666 3.79155 -106.518 0.47506C-105.943 -1.19575 -105.007 -2.452 -104.158 -3.85899C-102.124 -7.21317 -99.8516 -10.3035 -96.2189 -12.0874C-94.983 -14.1602 -92.736 -14.7632 -90.826 -15.8813C-88.4916 -17.238 -85.7078 -17.0119 -83.3235 -18.1551C-78.5798 -18.2681 -73.8236 -18.4189 -69.0798 -18.4817C-67.6817 -18.5068 -66.3834 -18.0923 -65.0851 -17.3888C-63.662 -16.6099 -62.0142 -16.2707 -60.4787 -15.6677C-59.0681 -15.115 -57.3454 -14.8009 -56.3842 -13.7959C-55.3356 -12.703 -53.9874 -12.4643 -52.9637 -11.6854C-50.9913 -10.1905 -49.3685 -8.21817 -47.6707 -6.38405C-47.0091 -5.66799 -46.672 -4.58762 -45.9355 -4.00974C-43.4014 -2.03743 -42.6024 0.6635 -42.178 3.67849C-41.9408 5.29905 -41.454 6.84423 -40.68 8.38942C-39.6439 10.4622 -40.0558 12.9873 -39.9435 15.3365C-39.8561 17.2962 -39.5814 19.2434 -39.3068 21.178C-39.2693 21.4418 -38.7326 21.8313 -38.4205 21.8313C-38.0834 21.8313 -37.5841 21.5298 -37.4218 21.2157C-36.1485 18.7535 -35.7365 15.2611 -36.3732 11.417C-36.5605 10.2738 -36.7851 9.21854 -36.111 7.78642C-32.1538 8.75373 -28.3463 9.87179 -25.0008 11.8818C-21.7176 13.8541 -18.4969 16.0776 -16.0751 19.1931C-15.738 19.6328 -15.3261 20.0474 -15.0889 20.5373C-14.3025 22.1579 -11.8058 21.8187 -11.4687 24.2433C-11.244 25.8764 -9.74597 27.3211 -8.84717 28.8662C-6.27557 33.3134 -4.70267 37.9992 -5.68887 43.3759C-6.12579 43.5643 -6.6376 44.004 -7.12445 43.9789C-12.6422 43.602 -17.5232 45.8381 -22.4292 47.8104C-24.3391 48.5768 -25.962 50.0717 -27.7346 51.1898C-28.4337 51.6294 -29.2077 51.9184 -29.7819 52.1947C-32.1163 50.7878 -34.226 49.4687 -36.3857 48.2376C-38.1084 47.2577 -39.9809 46.7929 -41.9908 46.6673C-44.063 46.5291 -46.0978 46.0517 -48.1701 45.7879C-54.7863 44.9588 -60.7034 46.617 -66.4458 50.0968C-69.8039 52.1319 -71.6015 55.0087 -73.2243 58.2247C-74.1606 60.0965 -74.8971 62.0814 -75.6586 64.0286C-76.0456 65.021 -76.2703 66.0637 -75.4214 67.6843C-74.9346 66.1014 -74.6724 65.0336 -74.273 64.0286C-73.861 62.9859 -73.2868 62.0186 -72.7874 61.0136C-69.8289 54.9711 -65.0227 51.1898 -58.5563 49.7451C-55.1608 48.9788 -51.6654 48.5139 -48.195 48.3883C-46.0229 48.3129 -43.651 48.7652 -41.6662 49.6446C-39.1445 50.7501 -36.4356 51.6797 -34.4008 53.7399C-33.9264 54.2173 -33.2274 54.5062 -32.5907 54.7701C-31.3923 55.2726 -30.4311 55.9886 -29.7195 57.1192C-28.8582 58.4885 -27.4475 59.1418 -25.8247 59.8327C-25.0757 56.9559 -27.0605 55.3731 -28.3838 53.7399C-27.9469 52.0063 -26.4738 51.8932 -25.4751 51.2274C-20.2945 47.7979 -14.4148 46.504 -8.36032 46.2904C-5.48914 46.1899 -2.58047 47.0064 0.315674 47.3582C2.11328 47.5843 3.67374 48.1748 5.30908 49.1421C9.41614 51.5541 13.3734 54.1419 17.0935 57.1067C17.9298 57.7725 20.5763 61.2146 21.1755 62.1945C22.4239 64.217 23.7222 66.2145 25.0329 68.1993C26.5434 70.4857 27.3299 72.86 27.0927 75.7117C26.9429 77.4579 27.6794 79.2794 27.9166 81.0759C28.2162 83.2994 28.391 85.5355 28.7155 87.7465C28.7905 88.2365 29.2274 89.0405 29.5395 89.053C30.1387 89.0907 31.0125 88.852 31.337 88.3998C31.9612 87.5204 32.2858 86.4275 32.6978 85.4979C36.655 85.1084 39.9507 86.5908 43.2213 88.136C43.5958 88.3119 43.9579 88.5254 44.2699 88.8018C46.7666 91.0002 49.2383 93.2112 51.6726 95.3845C51.6102 96.2388 51.0859 96.3141 50.4991 96.2639C46.6293 95.9498 42.7469 96.3895 38.8771 95.9373C38.0656 95.8368 37.1794 96.2136 36.4054 96.0126C34.1833 95.4599 31.9862 95.6609 29.7642 95.774C28.391 95.8493 26.9678 96.1257 25.6446 95.3971C25.2951 95.2086 24.7708 95.0328 24.4337 95.1584C21.6499 96.2011 18.8911 95.1207 16.1198 95.083C13.1736 95.0453 10.2525 95.1207 7.31891 95.4599C5.38397 95.686 3.41156 95.6358 1.46414 95.5353C-0.882751 95.4222 -3.19217 94.6559 -5.55154 95.6106C-6.11331 95.8368 -6.91223 95.4976 -7.59882 95.3971C-10.7946 94.97 -13.9779 94.6308 -17.1612 95.4725C-18.2347 95.7614 -19.2709 95.6986 -20.4318 95.372C-22.0047 94.9197 -23.7274 94.9323 -25.4002 94.9071C-27.7721 94.882 -30.1315 94.9448 -32.5033 95.0705C-39.182 95.4473 -45.8606 95.0453 -52.5268 94.7062C-55.0235 95.6483 -57.7449 94.4675 -60.304 95.7111C-61.3651 96.2262 -63.0129 95.686 -64.3486 95.4096C-65.8966 95.0956 -67.3821 95.0328 -68.9176 95.372C-69.8663 95.5855 -70.7901 95.5604 -71.7763 95.171C-72.4629 94.8946 -73.3741 95.171 -74.1856 95.2589C-74.5851 95.2966 -75.1218 95.6609 -75.3715 95.5101C-77.4063 94.2288 -79.4786 95.4222 -81.5134 95.3217C-83.311 95.2212 -85.1211 95.9875 -86.8937 95.1458C-87.0186 95.083 -87.2058 95.0202 -87.3057 95.0705C-90.1145 96.49 -92.761 94.9951 -95.4823 94.6685C-96.843 94.5052 -98.4035 95.171 -99.6019 94.7187C-101.799 93.877 -103.696 94.97 -105.719 95.083C-109.314 95.284 -112.872 95.7614 -116.33 94.2037C-116.916 93.9398 -117.778 93.9273 -118.389 94.1408C-122.759 95.5981 -127.19 94.3921 -131.585 94.5554C-132.521 94.5931 -133.42 94.2037 -134.381 94.7564C-135.579 95.4348 -136.878 95.284 -137.989 94.5554C-139.624 93.475 -141.122 93.3117 -143.107 93.8268C-145.903 94.5554 -148.924 93.8896 -151.77 94.769C-152.132 94.882 -152.619 94.769 -153.006 94.6308C-156.239 93.5001 -159.547 93.965 -162.856 94.0152C-165.202 94.0529 -167.524 94.1032 -169.921 93.6383C-172.593 93.1233 -175.451 93.5881 -178.223 93.676C-178.909 93.7012 -179.696 94.166 -180.257 93.965C-183.104 92.9097 -186.025 94.2413 -188.884 93.5253C-189.932 93.2615 -191.193 93.2991 -192.204 93.6509C-194.863 94.5805 -197.522 94.2539 -200.094 93.7011C-203.989 92.872 -207.908 93.1987 -211.816 93.0856C-216.684 92.9474 -221.553 93.0353 -226.421 93.0479C-227.944 93.0479 -229.48 93.073 -231.003 93.0856C-232.126 93.0982 -233.25 93.1484 -234.361 93.0982C-238.693 92.8972 -243.012 92.6333 -247.331 92.4449C-249.84 92.3318 -252.349 92.5454 -254.846 91.867C-255.882 91.5781 -257.068 91.9173 -258.192 91.8545C-263.21 91.5781 -268.228 91.2515 -273.247 90.9625C-274.87 90.8746 -280.188 90.3218 -284.407 90.1711C-285.568 89.9575 -286.729 89.744 -288.189 89.4676C-287.69 88.5505 -287.54 87.6963 -287.078 87.1059Z" fill="url(#paint1_linear_3398_3892)"/>
<path opacity="0.6" d="M175.286 11.1C176.464 9.68021 177.108 8.38268 177.305 7.11337C177.464 6.05091 177.959 5.1953 178.277 4.23627C179.24 1.37797 180.894 -1.14183 182.408 -3.73687C182.661 -4.16937 183.016 -4.59249 183.427 -4.90277C185.502 -6.45415 187.157 -8.51325 189.559 -9.66033C190.167 -9.9518 190.662 -10.4689 191.204 -10.892C191.41 -11.0519 191.578 -11.3433 191.803 -11.3715C193.915 -11.6536 195.579 -13.0075 197.523 -13.6751C197.925 -13.8161 198.439 -14.0418 198.776 -13.9102C200.851 -13.1016 202.861 -14.1076 204.898 -14.0418C206.282 -13.9948 207.675 -13.9478 209.058 -13.8632C210.002 -13.8067 210.9 -13.5717 211.9 -13.6751C212.676 -13.7597 213.526 -13.2144 214.33 -12.8947C214.966 -12.6409 215.555 -12.246 216.2 -12.0015C218.004 -11.3245 219.77 -10.6099 221.144 -9.1996C221.266 -9.07737 221.397 -8.94574 221.556 -8.87992C225.874 -6.99006 227.8 -3.04111 229.94 0.682198C231.268 2.98576 231.445 5.59962 231.184 8.22286C231.071 9.33233 230.894 10.4418 230.81 11.5607C230.782 11.965 230.94 12.3787 231.006 12.8018C231.754 12.6137 231.8 12.0496 231.857 11.5607C232.043 9.84945 232.184 8.13824 232.333 6.42702C232.38 5.90989 232.417 5.39275 232.455 4.88503C232.511 4.10464 232.969 3.66272 233.698 3.38065C235.708 2.60966 237.68 3.05158 239.643 3.5405C240.316 3.70974 240.97 4.00122 241.606 4.30209C242.569 4.7534 243.419 5.34576 243.896 6.3424C244.438 7.48948 245.466 8.4203 245.588 9.73662C243.943 10.8367 242.279 11.8051 240.802 12.9992C239.811 13.7984 239.101 14.9361 238.11 16.0926C239.363 16.3464 240.129 15.7071 240.905 15.2934C241.512 14.9737 241.999 14.4284 242.55 13.9959C243.999 12.8394 245.569 11.9368 247.429 11.523C248.878 11.2034 250.299 10.7521 251.72 10.3102C254.992 9.29472 258.235 8.34509 261.656 9.77423C262.357 10.0657 263.208 9.98109 263.974 10.1597C267.704 11.0059 270.303 13.4129 272.555 16.243C273.471 17.3901 274.21 18.6688 275.07 19.8629C275.238 20.0979 275.565 20.2296 275.864 20.4458C276.547 19.1671 275.126 18.4525 275.341 17.2208C276.163 16.6567 277.042 16.0361 278.313 16.5157C278.622 16.6285 279.089 16.6943 279.332 16.5439C280.426 15.8575 281.37 16.4687 282.342 16.7789C282.763 16.9106 283.127 17.2491 283.539 17.3149C285.343 17.6157 286.147 18.9697 286.913 20.3142C287.745 21.781 288.082 23.3887 287.567 25.0341C287.268 25.9838 286.932 26.877 285.857 27.4976C284.67 28.1745 283.95 29.4909 282.566 30.0738C280.005 31.1457 277.463 31.9355 274.602 31.2867C272.855 30.8918 271.209 30.2901 269.602 29.5849C269.003 29.3216 268.573 28.7104 267.956 28.1557C267.751 28.1839 267.368 28.1463 267.068 28.2779C264.741 29.2934 262.339 29.5378 259.805 29.331C257.88 29.1712 255.936 29.0771 254.01 28.9737C251.14 28.8233 248.663 27.8643 246.336 26.4727C245.485 25.965 244.635 25.6641 243.662 25.4008C243.195 26.2753 244.476 26.6608 244.279 27.4317C244.176 27.5634 244.102 27.7608 243.971 27.8078C241.727 28.5694 239.484 29.3874 237.054 29.3498C235.455 29.331 233.857 29.2276 232.258 29.2276C230.623 29.2276 229.108 28.607 227.706 28.0147C225.715 27.1685 223.771 26.2282 221.677 25.5983C221.864 23.9341 223.724 23.8589 224.304 22.4767C223.911 22.5426 223.565 22.5144 223.322 22.646C220.658 24.1598 218.004 25.6923 215.33 27.2061C215.031 27.3753 214.667 27.4599 214.33 27.5634C212.218 28.2215 210.114 28.8797 207.992 29.5002C207.488 29.6507 206.946 29.6977 206.422 29.7541C205.534 29.8387 204.646 29.8575 203.767 29.961C201.935 30.1772 200.122 30.243 198.28 30.0644C196.364 29.8763 194.392 30.4311 192.504 29.6037C192.13 29.4438 191.625 29.5285 191.186 29.5567C188.297 29.7165 185.587 28.8985 182.867 28.1651C181.334 27.7514 179.772 27.4411 178.249 27.0086C177.707 26.8488 177.239 26.4539 176.548 26.059C178.062 25.0248 179.193 23.9623 179.698 22.4955C179.343 21.8562 178.884 22.1383 178.511 22.2417C177.305 22.5896 176.202 23.1161 175.417 24.1221C175.202 24.3948 174.977 24.7333 174.678 24.8555C173.052 25.5231 171.659 26.6043 170.061 27.3001C168.771 27.8642 167.406 28.2591 166.06 28.6917C164.639 29.1524 163.181 29.4156 161.685 29.6601C159.769 29.9704 157.825 30.1302 155.918 30.4593C155.095 30.6003 154.347 30.5533 153.553 30.3841C152.693 30.196 151.805 30.1208 150.926 30.008C150.58 29.961 150.178 30.0174 149.879 29.8857C148.487 29.237 147.028 29.0677 145.486 29.0019C144.57 28.9643 143.635 28.4566 142.775 28.0335C141.812 27.554 140.84 27.4129 139.719 27.4505C140.607 29.1994 140.719 29.284 143.766 30.4969C142.364 31.6158 140.579 31.5594 138.961 31.926C137.606 32.2269 136.167 32.1705 134.764 32.2645C133.867 32.3209 133.035 32.1611 132.157 31.9166C131.371 31.7004 130.446 32.1611 129.623 31.6158C129.362 31.4371 128.885 31.3619 128.595 31.4559C127.221 31.8978 126.258 31.2115 125.193 30.5345C124.193 29.8951 122.809 29.8576 122.117 28.6729C121.996 28.4754 121.463 28.419 121.127 28.4284C120.425 28.4378 119.93 28.2121 119.603 27.601C119.519 27.4505 119.425 27.2249 119.294 27.1967C117.406 26.736 116.808 24.9589 115.583 23.8307C114.368 22.7024 113.181 21.5459 111.938 20.4552C111.723 20.2672 111.237 20.1638 110.994 20.2766C110.76 20.38 110.545 20.8031 110.545 21.0852C110.536 22.063 110.9 22.9751 111.536 23.7085C113.004 25.4009 114.107 27.4223 116.266 28.5036C117.004 28.8703 116.836 29.6789 116.032 30.102C114.331 31.0046 112.461 31.0892 110.592 31.1174C109.975 31.1268 109.339 30.9388 108.732 30.9858C106.292 31.1833 104.217 30.243 102.207 29.0866C102.076 29.0113 102.02 28.8045 101.871 28.56C103.245 27.648 104.983 27.1027 105.815 25.4761C105.572 25.429 105.348 25.3162 105.236 25.3726C102.348 26.9898 99.0759 27.3941 95.8978 28.0147C94.6265 28.2591 93.2805 28.2686 91.9999 28.607C91.626 28.7105 88.5133 28.1557 88.1768 27.9865C87.0831 27.4223 85.9988 26.83 84.8958 26.3035C84.4378 26.0872 83.9237 25.9744 83.4376 25.824C83.0263 25.6923 82.4468 25.7111 82.2224 25.4385C81.484 24.5358 80.409 24.0939 79.5304 23.3982C79.2032 23.1443 78.9695 22.7494 78.7545 22.3827C78.5863 22.0912 78.5863 21.6587 78.3619 21.4425C76.4831 19.5714 76.5205 17.0516 76.0624 14.7574C75.7072 13.0086 76.2307 11.1752 77.0346 9.52976C78.1002 7.36724 79.3715 5.29873 81.0073 3.50289C82.2131 2.17716 83.6245 1.05831 85.223 0.146286C86.6718 -0.681114 88.13 -1.41452 89.7939 -1.66838C91.3455 -1.89403 92.8972 -2.07268 94.4583 -2.23252C97.8888 -2.58981 101.067 -1.56494 104.17 -0.361446C106.573 0.578785 108.395 2.32762 109.807 4.46194C110.274 5.16711 110.77 5.85347 111.321 6.62446C111.919 5.65602 112.05 4.88504 111.452 4.07644C111.2 3.73796 111.013 3.34307 110.77 2.99518C109.947 1.78229 109.124 0.578777 108.134 -0.869179C106.741 -1.04782 105.395 -1.98804 104.058 -2.94707C102.759 -3.8779 101.273 -4.36684 99.6928 -4.6113C99.0011 -4.72413 98.3001 -4.88395 97.6083 -4.88395C96.4493 -4.89335 95.7575 -5.40107 95.5986 -6.50114C95.3556 -8.19356 94.3554 -9.68854 94.4956 -11.5126C94.6639 -13.6845 94.8695 -15.7718 96.1221 -17.6429C96.5521 -18.2822 96.8605 -19.0062 97.2064 -19.6926C98.2533 -21.7517 100.31 -22.8329 101.861 -24.4031C102.31 -24.8544 103.086 -25.0331 103.74 -25.2493C104.89 -25.6254 106.049 -25.9733 107.227 -26.2554C107.806 -26.3964 108.423 -26.4528 109.012 -26.3964C110.47 -26.2742 111.938 -26.1425 113.368 -25.8887C114.667 -25.6536 115.817 -25.2493 116.144 -23.6227C116.378 -22.4757 117.116 -21.432 117.565 -20.3225C118.509 -17.9626 120.089 -16.1385 122.033 -14.5025C123.015 -13.6751 123.94 -12.7725 125.071 -12.1425C125.735 -11.7664 126.455 -11.3809 127.352 -12.0767C127.156 -12.3494 127.034 -12.6973 126.791 -12.8571C125.333 -13.8161 123.921 -14.7752 123.052 -16.3736C122.706 -17.0129 121.837 -17.3608 121.416 -17.9814C120.416 -19.4763 119.313 -20.9807 118.687 -22.6355C118.004 -24.4501 117.687 -26.434 117.425 -28.3709C117.173 -30.2232 117.042 -32.113 117.631 -33.9653C117.836 -34.614 117.902 -35.3192 117.93 -36.0056C118.033 -38.3655 119.005 -40.434 120.108 -42.4461C120.556 -43.2547 121.388 -43.8377 121.519 -44.8625C121.547 -45.0788 121.837 -45.2574 121.958 -45.4831C122.622 -46.6208 124.202 -46.8464 124.651 -48.1721C125.071 -49.4226 126.539 -49.6201 127.146 -50.7014C127.287 -50.9458 127.726 -51.0304 128.034 -51.1715C129.212 -51.6792 130.418 -52.1399 131.568 -52.704C133.905 -53.8229 136.447 -54.2742 138.905 -54.9888C139.644 -55.2051 140.392 -55.3555 141.13 -55.5529C141.71 -55.7128 142.252 -55.882 142.887 -55.694C143.271 -55.5811 143.766 -55.5905 144.14 -55.7222C145.178 -56.0983 146.112 -56.1735 147.047 -55.4307C147.271 -55.2521 147.729 -55.2239 148.019 -55.3179C148.73 -55.5623 149.337 -55.4025 149.992 -55.1204C150.44 -54.923 151.02 -54.782 151.478 -54.876C152.992 -55.2145 154.319 -54.7631 155.628 -54.105C155.852 -53.9922 156.086 -53.7947 156.32 -53.7947C158.049 -53.7947 159.367 -52.8545 160.76 -51.9989C161.405 -51.604 162.209 -51.4818 162.891 -51.1527C163.414 -50.8988 164.125 -50.6073 164.293 -50.1654C164.845 -48.6893 166.032 -48.1157 167.191 -47.7208C167.696 -46.837 168.004 -46.0096 168.546 -45.3891C169.574 -44.2138 170.173 -42.8128 170.92 -41.4683C172.145 -39.2776 172.659 -36.8424 173.398 -34.5012C173.818 -33.1567 173.65 -31.6241 173.678 -30.1761C173.706 -28.982 173.594 -27.788 173.631 -26.6033C173.641 -26.3776 174.043 -26.0109 174.286 -25.9827C174.547 -25.9545 175.005 -26.2084 175.089 -26.434C175.959 -28.982 178.099 -30.0351 180.333 -31.0411C183.259 -32.3575 186.222 -32.1036 189.213 -31.389C189.868 -31.2292 190.494 -30.8813 191.092 -30.5616C191.7 -30.2419 192.223 -29.7436 192.85 -29.518C194.429 -28.9444 195.177 -27.7315 195.944 -26.3494C196.561 -25.2305 196.916 -24.0364 197.402 -22.8893C198.094 -21.2345 198.075 -19.4199 198.103 -17.6147C196.869 -16.5992 195.214 -17.0411 193.934 -16.2137C192.719 -15.4333 191.289 -14.982 189.812 -14.3239C188.709 -15.1419 187.465 -15.9128 186.391 -16.8719C184.39 -18.6677 181.913 -19.5703 179.455 -20.2755C176.763 -21.0465 173.921 -20.7832 171.248 -19.8336C167.481 -18.4985 164.396 -16.1855 161.863 -13.1392C161.433 -12.6314 161.18 -11.9827 160.844 -11.3998C158.535 -11.9357 156.264 -12.4622 153.992 -12.9981C151.328 -13.6281 148.617 -13.4494 145.935 -13.252C143.177 -13.0545 140.84 -11.616 138.391 -10.4971C138.083 -10.3561 137.821 -10.121 137.503 -9.98001C135.316 -8.98336 133.447 -7.59181 132.054 -5.64553C130.96 -4.12236 129.595 -2.77784 128.819 -1.03841C128.614 -0.577698 128.128 -0.15461 128.109 0.2967C128.044 1.68824 126.903 2.76013 127.025 4.22688C127.09 5.05429 126.688 5.90989 126.688 6.74669C126.679 8.19465 126.735 9.652 126.913 11.0906C127.137 12.877 127.464 14.654 127.847 16.4123C128.408 18.9979 129.951 21.0758 131.652 23.0597C131.885 23.3324 131.923 23.3041 133.241 23.2571C132.96 22.599 132.802 21.9314 132.437 21.4049C130.567 18.6688 130.081 15.519 129.511 12.4069C129.221 10.8085 130.053 6.65265 130.941 5.26112C131.502 4.3679 130.923 3.5969 131.026 2.64727C131.914 1.64123 132.867 0.625805 133.418 -0.793941C133.886 -1.98803 135.036 -2.9847 136.026 -3.92492C137.12 -4.97798 138.083 -6.13447 139.41 -7.01829C141.56 -8.45684 143.953 -9.21841 146.318 -10.0646C147.402 -10.4595 148.664 -10.7604 149.917 -10.2997C150.3 -10.1586 150.814 -10.1586 151.207 -10.2715C154.03 -11.1459 156.497 -10.0176 158.993 -9.01157C159.713 -8.7201 160.414 -8.37222 161.124 -8.04313C161.442 -7.8927 161.816 -7.79868 162.05 -7.57302C164.592 -5.11902 167.443 -2.92829 169.107 0.2967C169.369 0.795021 169.397 0.776234 170.21 1.02069C170.584 0.475361 170.173 0.0522499 169.976 -0.399063C169.584 -1.34869 169.182 -2.30773 168.752 -3.24796C167.817 -5.32587 166.583 -7.13111 164.508 -8.3064C163.704 -8.75771 163.05 -9.49107 162.246 -10.168C163.125 -11.6912 164.34 -12.7537 165.574 -13.7785C166.303 -14.3897 167.125 -14.8786 167.92 -15.4239C168.63 -15.9129 169.313 -16.477 170.257 -16.4488C170.341 -16.4488 170.453 -16.4676 170.509 -16.5146C172.295 -18.1318 174.631 -17.5206 176.697 -17.972C177.408 -18.1224 178.221 -17.8403 178.978 -17.7181C182.128 -17.2292 184.596 -15.5179 186.802 -13.3742C187.026 -13.1486 187.101 -12.7819 187.279 -12.4246C184.072 -9.9236 181.427 -6.98066 179.296 -3.61463C177.679 -1.05721 176.417 1.70706 175.837 4.65938C175.361 6.59626 174.585 8.59895 175.286 11.1Z" fill="url(#paint2_linear_3398_3892)"/>
<path opacity="0.6" d="M276.708 109.797C277.619 110.556 278.347 111.168 279.065 111.77C279.14 111.833 279.205 111.96 279.28 111.96C280.929 111.928 281.969 112.941 282.933 114.049C283.812 115.062 285.044 115.632 285.804 116.856C286.533 118.027 288.129 118.639 288.247 120.286C289.383 121.267 289.876 122.639 290.572 123.894C291.044 124.739 291.344 125.646 291.226 126.902C290.776 126.67 290.422 126.596 290.229 126.374C289.019 125.002 287.508 123.873 286.758 122.122C286.587 121.721 286.126 121.425 285.751 121.14C285.451 120.908 284.937 120.866 284.765 120.581C283.608 118.629 281.647 117.553 279.976 116.139C279.247 115.526 278.712 114.682 278.112 113.923C277.426 113.047 276.58 112.424 275.422 112.414C274.415 112.403 273.472 112.319 272.669 111.643C272.594 111.58 272.497 111.485 272.422 111.496C270.74 111.77 269.262 110.852 267.708 110.715C265.962 110.556 264.269 110.24 262.576 109.881C262.49 109.86 262.383 109.733 262.319 109.754C260.84 110.261 259.373 110.873 257.862 109.839C256.351 110.187 254.851 110.546 253.33 110.873C252.676 111.01 252.001 111.105 251.326 111.137C249.976 111.189 248.808 111.675 247.983 112.677C247.008 113.87 245.83 114.64 244.308 114.83C243.462 114.936 242.894 115.347 242.326 115.917C240.612 117.626 238.866 119.294 237.141 120.982C236.873 121.246 236.637 121.562 236.466 121.89C235.448 123.947 234.462 126.015 233.455 128.084C233.412 128.168 233.348 128.253 233.337 128.348C233.069 130.236 232.576 132.136 232.641 134.014C232.673 135.08 232.694 136.072 232.437 137.095C232.319 137.56 232.073 138.056 232.148 138.499C232.598 141.221 232.812 143.986 233.733 146.614C233.862 146.972 234.162 147.289 234.194 147.648C234.441 150.349 236.037 152.438 237.43 154.623C238.255 155.91 239.219 157.113 240.355 158.696C239.508 158.611 238.93 158.728 238.651 158.495C237.698 157.683 236.701 156.86 236.005 155.847C234.976 154.338 234.248 152.649 233.316 151.077C232.383 149.515 231.387 147.996 231.055 146.202C230.626 146.139 230.326 146.012 230.058 146.065C227.058 146.635 224.348 147.89 221.809 149.526C221.423 149.779 221.144 150.222 220.844 150.592C220.298 151.257 219.741 151.921 219.248 152.628C218.605 153.567 217.737 154.412 217.759 155.678C217.759 155.857 217.662 156.058 217.566 156.216C216.248 158.453 215.659 160.796 216.43 163.371C216.526 163.708 216.366 164.12 216.312 164.5C216.269 164.785 216.141 165.069 216.151 165.354C216.162 166.389 217.362 167.127 216.88 168.32C216.494 169.28 216.805 170.177 217.298 171.074C217.566 171.549 217.555 172.182 217.684 172.741C217.748 173.015 217.78 173.374 217.962 173.543C218.787 174.313 219.912 174.841 219.955 176.17C220.951 176.677 221.348 177.722 222.076 178.471C222.484 178.882 222.955 179.262 223.469 179.526C224.755 180.191 226.094 180.782 227.401 181.426C228.612 182.016 229.737 182.861 231.012 183.188C232.544 183.589 234.001 184.528 235.812 183.705C236.691 183.304 237.923 183.61 238.983 183.705C240.291 183.831 241.512 183.768 242.701 182.85C242.123 181.658 241.641 180.412 240.955 179.283C239.583 177.025 238.908 174.577 238.523 172.023C238.469 171.665 238.48 171.665 239.423 171.126C240.044 172.414 240.816 173.648 241.244 174.999C242.187 177.933 243.88 180.486 245.24 183.209C245.615 183.958 246.344 184.517 246.848 185.203C248.273 187.134 250.051 188.759 251.573 190.606C252.58 191.83 254.09 192.695 255.473 193.582C257.09 194.616 258.762 195.576 260.487 196.41C261.205 196.758 262.19 196.526 262.962 196.811C263.658 197.064 264.172 197.877 264.869 198.045C265.769 198.267 266.776 198.098 268.094 198.098C268.469 198.351 269.101 199.027 269.862 199.238C270.655 199.449 271.576 199.122 272.433 199.174C273.665 199.259 274.983 198.763 276.13 199.628C276.322 199.776 276.74 199.85 276.933 199.744C278.851 198.773 281.262 199.438 283.019 197.877C283.394 197.539 284.112 197.539 284.679 197.476C286.544 197.275 288.301 196.874 289.619 195.376C289.919 195.038 290.433 194.837 290.883 194.711C291.515 194.531 291.89 194.225 292.062 193.592C292.287 192.759 292.919 192.358 293.733 192.136C295.169 191.746 296.497 191.229 297.237 189.793C297.44 189.403 297.965 189.16 298.329 188.844C298.629 188.591 299.079 188.379 299.176 188.063C300.097 185.182 302.861 183.715 304.447 181.362C304.651 181.056 304.747 180.666 304.865 180.307C305.111 179.537 305.572 178.956 306.311 178.597C307.211 178.872 307.211 179.653 307.04 180.254C306.44 182.333 306.579 184.718 304.661 186.29C304.094 187.81 303.054 188.844 301.565 189.561C300.997 189.836 300.429 190.448 300.226 191.028C299.615 192.769 298.34 193.888 296.904 194.901C296.754 195.006 296.69 195.217 296.594 195.376C297.312 196.093 298.019 196.832 298.758 197.539C299.412 198.151 300.129 198.615 301.104 198.278C302.047 197.961 302.797 198.267 303.515 198.89C303.869 199.196 304.383 199.597 304.758 199.533C307.276 199.122 309.697 200.304 312.204 199.924C314.197 199.618 316.233 199.544 318.194 198.974C319.115 198.7 320.229 198.858 321.033 198.425C324.622 196.494 328.736 195.661 332.036 193.17C333.193 192.294 334.404 191.482 335.518 190.564C336.493 189.762 337.447 189.023 338.583 188.401C339.9 187.683 341.111 186.638 341.99 185.319C342.225 184.961 342.718 184.771 343.265 184.37C343.575 185.963 342.118 186.438 341.711 187.44C341.325 188.379 340.522 189.171 339.815 189.973C339.076 190.817 338.24 191.587 337.393 192.442C338.775 192.949 339.922 193.392 341.09 193.772C341.54 193.919 342.033 194.004 342.515 194.014C343.972 194.046 345.45 193.898 346.843 194.5C349.565 194.13 352.19 195.418 354.922 194.975C355.2 194.932 355.565 195.112 355.768 194.996C356.679 194.458 357.525 194.035 358.725 194.152C359.732 194.247 360.804 193.761 361.822 193.466C362.272 193.339 362.657 193.012 363.097 192.822C363.9 192.495 364.8 192.326 365.507 191.872C366.225 191.408 366.825 190.88 367.704 190.564C368.915 190.131 369.975 189.266 371.09 188.601C370.897 188.274 370.832 188 370.704 187.968C369.965 187.767 368.99 187.852 368.497 187.409C366.943 185.995 364.897 185.488 363.215 184.359C362.915 184.159 362.765 183.758 362.529 183.452C362.24 183.072 362.025 182.502 361.65 182.365C360.032 181.805 359.422 180.381 358.415 179.231C357.483 178.154 356.433 177.173 355.64 175.97C355.211 175.326 355.222 174.725 355.661 173.912C356.143 174.144 356.786 174.239 357.086 174.619C359.411 177.584 362.668 179.389 365.765 181.362C368.54 183.135 371.657 184.348 374.84 185.203C376.854 185.752 378.997 185.942 381.129 185.9C382.875 185.868 384.632 186.047 386.368 185.689C387.032 185.551 387.739 185.499 388.318 185.203C388.993 184.866 389.572 184.813 390.268 185.066C390.622 185.193 391.104 185.298 391.404 185.161C392.089 184.834 392.657 184.285 393.343 183.958C393.932 183.673 394.618 184.338 395.293 183.789C396.857 182.523 399 182.143 400.35 180.529C400.468 180.391 400.671 180.275 400.854 180.233C402.664 179.874 403.5 178.334 404.518 177.12C405.482 175.959 405.954 174.45 407.143 173.395C407.454 173.121 407.454 172.509 407.561 172.034C407.732 171.285 407.668 170.409 408.054 169.797C409.307 167.771 409.457 165.46 409.95 163.244C410.068 162.706 410.057 162.104 409.993 161.556C409.821 160.015 409.779 158.485 410.293 157.134C409.746 155.161 408.504 153.567 408.461 151.573C408.45 151.235 408.171 150.845 407.904 150.581C406.789 149.494 405.921 148.27 405.204 146.909C405.011 146.529 404.561 146.17 404.154 146.033C403.007 145.653 402.225 144.862 401.304 144.155C399.782 142.994 397.939 142.245 396.236 141.327C395.936 141.158 395.636 140.989 395.357 140.841C395.464 140.578 395.507 140.451 395.529 140.451C397.618 140.694 399.761 140.609 401.668 141.844C402.611 142.456 403.811 142.678 404.796 143.036C405.482 142.699 405.579 142.192 405.418 141.749C405 140.557 405.514 139.28 404.839 138.077C404.325 137.169 404.196 136.04 403.039 135.607C402.954 135.576 402.857 135.502 402.814 135.428C402.161 134.468 401.657 133.37 400.843 132.579C400.039 131.798 398.893 131.387 397.982 130.701C397.607 130.416 397.382 129.983 396.804 130.004C396.536 130.015 396.129 129.92 396.021 129.73C394.929 127.904 393.172 128.031 391.404 128.115C390.932 128.136 390.268 128.305 390 128.063C388.747 126.955 387.386 127.567 386.079 127.735C384.547 127.925 383.036 128.337 381.504 128.537C380.464 128.675 379.672 129.139 378.964 129.825C378.064 133.138 378.032 136.789 375.107 139.311C374.507 138.784 374.443 138.172 374.647 137.475C375 136.272 375.365 135.08 375.675 133.866C376.35 131.239 376.672 128.601 376.297 125.878C376.115 124.57 376.082 123.24 375.857 121.921C375.365 119.04 373.811 116.782 372.075 114.566C371.55 113.901 371.207 113.036 370.565 112.551C368.872 111.274 367.147 109.987 365.261 109.005C363.654 108.172 361.832 107.823 359.947 107.887C358.211 107.95 356.465 107.823 354.718 107.834C353.968 107.834 353.208 107.961 352.275 108.045C352.586 109.438 352.843 110.63 353.111 111.823C353.518 113.595 353.979 115.358 354.322 117.141C354.504 118.08 354.708 119.104 354.504 120.001C353.979 122.312 354.654 124.813 353.379 126.997C353.24 127.229 353.058 127.44 352.908 127.651C352.179 127.588 352.275 126.976 352.083 126.606C351.9 126.269 351.729 125.889 351.708 125.52C351.6 124 351.633 122.459 351.44 120.95C351.225 119.357 351.343 117.742 350.893 116.149C350.508 114.788 350.604 113.289 350.347 111.875C350.175 110.957 349.95 109.902 349.361 109.248C348.665 108.478 348.225 107.676 348.043 106.747C347.679 104.9 346.404 103.507 345.643 101.861C345.386 101.302 344.679 100.954 344.197 100.489C343.125 99.4448 341.283 99.1494 340.993 97.3344C339.675 96.8595 339.097 95.8043 338.701 94.5802C338.626 94.3481 338.304 94.1792 338.068 93.9998C336.258 92.5964 334.501 91.1402 332.154 90.5387C331.083 90.2643 330.097 89.4729 329.197 88.7659C328.329 88.0905 327.493 87.584 326.336 87.4996C325.179 87.4258 324.022 87.1831 323.111 86.3178C322.854 86.0751 322.426 85.8851 322.061 85.864C320.122 85.7479 318.247 85.252 316.254 85.2731C314.519 85.2836 312.804 86.0223 311.058 85.4947C309.419 84.9987 307.769 85.3786 306.129 85.4103C305.261 85.4208 304.458 85.4208 303.665 86.054C303.14 86.4655 302.176 86.2861 301.458 86.5288C299.369 87.2569 297.269 87.985 295.244 88.882C293.926 89.4729 292.619 90.2221 291.526 91.1507C290.487 92.0371 289.554 92.9657 288.172 93.3245C287.84 93.4089 287.519 93.7677 287.315 94.0737C286.597 95.1395 285.687 95.9203 284.508 96.5218C283.876 96.8489 283.447 97.6087 283.019 98.2313C282.537 98.9383 282.301 99.8669 281.701 100.447C279.162 102.874 278.23 106.146 276.783 109.153C276.687 109.332 276.73 109.543 276.708 109.797Z" fill="url(#paint3_linear_3398_3892)"/>
<g clip-path="url(#clip1_3398_3892)">
<path d="M142.001 268.487C174 266.135 206.369 265.381 237.537 256.862C232.859 264.314 223.694 261.457 217.042 265.528C214.613 266.059 216.134 268.219 217.393 269.088C223.004 269.727 228.615 269.126 234.29 269.542C235.722 274.335 243.538 275.517 238.527 280.802C226.41 283.633 214.006 284.803 201.736 286.726C198.189 286.95 194.527 287.027 191.07 287.353C184.941 287.391 178.652 285.947 172.715 287.832C169.22 288.183 165.583 288.196 162.145 288.497L160.95 288.068C155.102 285.097 148.597 283.831 142.04 283.991C137.132 280.393 133.649 270.213 142.001 268.481V268.487Z" fill="#57AB9D"/>
<path d="M221.178 38.138C225.856 33.7092 239.865 30.9804 239.622 39.8508C232.828 39.0967 229.218 47.3726 235.659 50.798C241.596 56.3452 243.801 44.1581 249.157 48.9639C247.623 50.9003 247.974 53.5717 249.246 55.5592C246.632 62.8574 239.794 67.0242 232.502 68.5836C231.959 71.715 237.072 72.9357 238.555 75.5559C242.632 79.5182 239.775 86.3498 244.204 90.0373C247.994 93.1687 242.05 100.39 247.751 101.502C282.957 116.789 315.678 138.556 341.752 166.905C338.205 168.592 335.489 171.545 333.598 174.932C318.95 160.227 303.625 145.388 284.958 135.942C268.553 125.589 251.981 111.67 232.176 109.759L231.243 109.772C226.54 109.644 221.996 109.356 217.356 109.593C188.579 117.869 163.342 136.242 139.843 154.296C122 169.749 105.09 187.145 95.5551 209.103C94.3856 204.854 88.5188 206.023 85.0742 205.039C108.65 154.961 157.91 122.253 207.329 101.036C208.652 95.3992 211.343 90.3888 214.25 85.4488C213.068 77.9524 218.302 73.5364 223.344 69.408C215.056 61.5793 209.464 45.6152 221.178 38.1572V38.138ZM223.376 49.0982C222.169 55.5784 228.457 61.7454 234.912 60.4737C230.195 57.355 227.652 51.2391 223.376 49.0982ZM225.767 84.4007C235.506 89.7881 235.327 78.4253 228.7 78.0099C223.984 75.984 218.909 84.6883 225.767 84.4007ZM218.245 98.2686C221.645 103.426 239.494 99.5403 235.321 95.0732C233.934 93.8014 231.998 92.421 230.099 93.4755C226.45 91.6158 214.359 94.1913 218.245 98.2686Z" fill="#000C0A"/>
<path d="M225.768 84.4009C218.91 84.6885 223.978 75.9843 228.701 78.0102C228.452 80.477 228.298 83.1803 225.768 84.4009Z" fill="#ECE0CC"/>
<path d="M228.703 78.0103C235.336 78.4257 235.509 89.7884 225.77 84.401C228.3 83.1804 228.447 80.4771 228.703 78.0103Z" fill="#86582A"/>
<path d="M218.247 98.2693C214.361 94.192 226.452 91.6165 230.101 93.4762C227.852 95.1123 225.545 96.6589 223.206 98.1543C221.531 98.2054 219.883 98.2437 218.247 98.2693Z" fill="#F0E6C2"/>
<path d="M230.095 93.4761C231.993 92.4216 233.929 93.802 235.316 95.0738C232.523 99.0744 227.455 97.9944 223.199 98.1542C225.538 96.6588 227.839 95.1121 230.095 93.4761Z" fill="#D0912A"/>
<path d="M235.316 95.074C239.496 99.5411 221.64 103.427 218.24 98.2693C219.876 98.2438 221.525 98.2055 223.199 98.1544C227.449 97.9882 232.524 99.0746 235.316 95.074Z" fill="#7B4617"/>
<path d="M139.839 154.284C163.344 136.23 188.581 117.856 217.352 109.58C217.39 115.345 211.102 117.141 207.197 119.837C184.35 134.434 161.912 150.698 143.737 170.746C143.501 181.968 142.893 195.165 133.116 202.956C123.606 208.784 116.091 217.226 106.696 223.163C99.2382 238.603 96.7969 256.05 97.5255 273.088C90.9686 280.124 99.1231 290.387 107.878 284.425C109.15 287.205 110.166 290.413 113.151 291.864C111.202 291.359 109.163 291.736 107.553 292.893C101.322 293.519 95.1993 294.893 88.9938 295.685C85.6067 290.061 85.0444 283.255 83.4083 277.037C84.1752 275.286 84.4756 272.883 82.6031 271.752C82.5136 265.074 82.4369 258.478 82.5775 251.832C84.4628 250.675 84.1752 248.26 83.4466 246.534C85.4981 233.497 89.9013 220.965 95.5508 209.091C105.086 187.138 121.996 169.736 139.839 154.284Z" fill="#FDFBF9"/>
<path d="M217.35 109.581C221.99 109.344 226.534 109.632 231.238 109.76C200.223 126.139 170.04 146.098 145.78 171.673C147.378 185.791 141.562 201.441 128.973 208.893C123.541 213.009 117.974 217.15 113.788 222.595C122.039 229.324 114.683 248.152 103.058 247.218C100.994 254.593 102.266 262.607 102.502 270.129C100.802 271.062 99.1535 272.053 97.5174 273.088C96.7889 256.05 99.2302 238.604 106.688 223.164C116.089 217.227 123.598 208.785 133.108 202.956C142.885 195.166 143.486 181.969 143.729 170.747C161.911 150.705 184.342 134.434 207.189 119.838C211.087 117.147 217.382 115.345 217.344 109.581H217.35Z" fill="#FDF6EB"/>
<path d="M231.244 109.753L232.177 109.74C254.724 121.717 275.347 139.483 287.559 162.196C282.728 160.432 278.651 162.835 277.647 167.232C281.169 172.427 289.547 166.075 292.154 172.894C305.843 210.893 272.918 247.992 237.539 256.862C206.371 265.381 174.002 266.135 142.004 268.487C133.651 270.225 137.134 280.399 142.042 283.997C148.599 283.831 155.105 285.103 160.952 288.074C156.396 287.908 151.928 287.863 147.551 289.071C145.461 289.25 141.288 289.576 139.198 289.749C137.044 288.956 134.482 288.733 132.718 290.452C130.264 290.631 127.81 290.778 125.368 290.982C123.202 290.228 120.678 290.036 118.863 291.647C117.239 291.883 115.616 292.139 114.019 292.414L113.149 291.845C110.165 290.401 109.149 287.192 107.877 284.406C112.721 278.507 110.631 270.014 102.502 270.116C102.266 262.594 100.994 254.58 103.058 247.206C114.683 248.139 122.045 229.311 113.788 222.582C117.981 217.137 123.541 212.996 128.973 208.88C141.569 201.435 147.378 185.778 145.781 171.66C170.04 146.085 200.223 126.126 231.238 109.747L231.244 109.753Z" fill="#449386"/>
<path d="M232.172 109.74C251.977 111.651 268.548 125.57 284.954 135.923C304.266 153.249 320.671 176.677 319.138 203.902C319.061 246.24 277.63 276.335 238.525 280.802C243.535 275.516 235.719 274.334 234.288 269.541C228.613 269.126 223.002 269.733 217.391 269.087C216.132 268.218 214.611 266.058 217.039 265.528C223.692 261.45 232.856 264.307 237.534 256.862C272.913 247.992 305.839 210.887 292.15 172.894C289.542 166.075 281.164 172.427 277.642 167.232C278.646 162.841 282.723 160.438 287.555 162.196C275.335 139.483 254.719 121.723 232.172 109.74Z" fill="#36766B"/>
<path d="M284.953 135.924C303.627 145.376 318.952 160.209 333.593 174.914C351.333 195.16 364.671 219.604 368.429 246.541C368.62 248.478 369.01 252.382 369.196 254.319C370.429 268.359 368.314 282.266 364.064 295.648C335.727 293.155 307.461 289.647 279.06 287.87C274.242 287.34 269.423 287.129 264.63 287.218C243.656 286.503 222.694 287.321 201.732 286.726C214.003 284.803 226.407 283.633 238.524 280.802C277.629 276.335 319.06 246.241 319.137 203.902C320.671 176.678 304.266 153.249 284.953 135.924Z" fill="#155248"/>
<path d="M333.593 174.919C335.479 171.532 338.201 168.579 341.748 166.892C362.141 188.608 375.881 216.945 379.709 246.559C378.916 248.285 378.75 250.547 380.45 251.857C380.616 252.663 380.942 254.286 381.102 255.104C380.891 260.741 380.91 266.454 380.91 272.154C380.808 272.998 380.61 274.672 380.508 275.516C378.699 276.737 378.923 279.063 379.779 280.827C378.661 286.687 376.756 292.324 375.338 298.126C373.535 300.97 372.27 305.073 375.299 307.374C378.712 313.931 386.394 316.557 390.835 322.335C395.756 329.192 397.967 337.43 398.638 345.763C398.133 359.816 398.038 373.895 398.689 387.974C397.105 396.026 389.64 401.222 382.067 403.037C380.316 402.245 377.913 401.944 376.795 403.855C344.208 403.944 311.609 404.206 279.035 403.727C250.009 402.232 220.528 401.829 191.578 403.574C153.534 404.494 115.471 403.663 77.4265 404.028C65.7889 405.434 54.2535 397.713 50.6875 386.677C51.0901 373.87 51.1796 361.088 50.8409 348.287C50.9048 347.757 51.0326 346.702 51.1029 346.159C52.9754 345.003 52.739 342.6 51.9209 340.887C54.5475 331.045 58.2861 320.213 67.6997 314.953C82.8713 311.592 76.7554 294.886 73.298 284.604C74.1288 282.853 74.3653 280.437 72.48 279.306C72.4033 278.775 72.2691 277.721 72.1924 277.19C72.3202 268.569 72.5439 259.993 72.1541 251.41C72.3075 249.863 72.4928 248.317 72.6845 246.79C74.3972 244.987 74.1416 242.412 73.3492 240.284C75.7521 228.09 79.8293 216.267 85.0634 205.02C88.508 206.004 94.3747 204.828 95.5442 209.084C89.8948 220.964 85.4915 233.49 83.4401 246.527C82.0213 247.933 81.9574 249.998 82.571 251.825C82.4304 258.472 82.5071 265.061 82.5965 271.745C81.9575 273.522 82.0022 275.593 83.4018 277.031C85.0378 283.249 85.6066 290.055 88.9873 295.679C95.1927 294.886 101.315 293.512 107.546 292.886C109.649 293.602 112.141 293.928 114.013 292.419C115.611 292.145 117.234 291.889 118.858 291.653C120.986 292.445 123.574 292.694 125.363 290.988C127.805 290.783 130.259 290.636 132.713 290.457C134.854 291.186 137.391 291.403 139.193 289.755C141.283 289.576 145.456 289.25 147.546 289.077C152.403 289.218 157.272 289.026 162.142 288.508C165.574 288.208 169.21 288.195 172.713 287.844C178.752 287.729 185.091 289.064 191.067 287.364C194.524 287.038 198.186 286.962 201.733 286.738C222.695 287.332 243.656 286.514 264.631 287.23C269.398 287.722 274.204 287.946 279.061 287.882C307.455 289.659 335.728 293.167 364.064 295.66C368.314 282.271 370.43 268.371 369.196 254.331C369.004 252.394 368.615 248.489 368.429 246.553C364.665 219.616 351.328 195.171 333.593 174.926V174.919ZM176.854 299.5C174.853 299.475 172.866 299.603 170.904 299.852C166.296 300.306 157.605 297.334 155.464 300.811C150.345 300.523 145.309 300.695 140.343 301.341C139.263 299.954 135.32 299.756 135.55 302.07C131.262 301.82 126.846 302.057 122.641 302.683C120.903 301.047 115.771 300.491 115.381 303.424C114.716 303.552 113.368 303.789 112.691 303.904C111.221 302.619 106.862 302.044 106.626 304.517C100.689 305.169 93.0518 304.709 88.2587 308.556C85.2423 310.403 92.0613 312.633 92.2722 309.879C94.4961 309.828 96.7649 309.63 98.9122 308.908C101.117 310.23 106.274 311.049 107.418 308.326C109.872 308.416 112.377 308.441 114.806 307.847C120.532 308.262 129.402 309.962 132.821 307.067C136.924 307.169 140.912 306.914 145.066 306.677C151.859 307.482 158.691 307.054 165.548 307.003C204.538 307.131 243.541 307.067 282.544 307.042C289.65 307.182 296.776 307.08 303.921 307.054C308.139 311.247 320.454 306.728 326.909 307.949C331.791 308.275 336.712 308.39 341.665 308.288C343.288 311.7 351.276 307.987 354.574 309.259C359.003 310.167 369.445 309.157 358.031 307.067C341.85 304.651 325.445 302.459 309.104 302.108C307.18 298.695 299.377 302.197 296.054 301.104C292.015 300.6 287.797 300.664 283.809 300.753C282.237 297.57 274.357 300.74 271.367 299.66C267.455 299.347 263.404 299.571 259.563 299.839C258.003 299.635 256.431 299.539 254.885 299.526C253.249 296.292 245.375 299.513 242.276 298.305C226.753 298.203 211.236 298.165 195.726 298.331C189.622 298.644 180.618 296.554 176.854 299.5ZM149.169 317.113C144.114 317.011 139.078 317.037 134.061 317.19C130.31 316.979 126.437 316.941 122.75 317.164C117.011 316.295 112.397 316.711 108.882 318.398C108.051 318.513 106.377 318.762 105.546 318.877C102.453 318.979 96.26 316.736 95.0649 319.657C77.9185 317.228 60.6443 330.112 62.3123 348.569C59.0275 356.96 61.0405 375.365 62.3378 383.833C63.0152 389.259 69.8725 392.403 74.9851 391.316C77.0494 391.457 79.1263 391.444 81.2161 391.316C84.8652 380.612 81.4398 362.417 82.0725 349.47C83.6318 343.456 88.1117 338.701 93.8251 336.496C95.2119 338.343 98.6821 338.343 100.088 336.496C105.61 338.912 110.646 343.277 111.93 349.406C111.227 357.292 110.058 368.003 112.684 373.755C113.349 379.027 110.594 387.444 114.218 390.473C118.346 393.381 131.192 390.307 137.832 391.316C141.494 380.625 138.023 362.43 138.726 349.495C140.599 342.817 145.494 338.337 151.661 335.468C153.349 336.663 155.036 336.663 156.742 335.468C161.458 338.286 166.91 341.194 168.456 346.92C167.964 360.999 166.807 378.1 169.3 390.089C177.768 393.17 191.706 390.479 202.187 391.489C202.755 391.438 203.861 391.335 204.423 391.291C204.66 377.365 204.724 363.421 204.161 349.521C205.951 342.453 212.099 338.439 218.317 335.391C219.966 336.663 221.666 336.714 223.385 335.531C228.318 338.612 232.971 342.612 235.137 348.192C234.645 362.232 233.476 379.506 235.994 391.31C246.877 390.728 261.033 393.061 269.954 390.115C273.591 379.244 270.152 361.229 270.811 348.217C272.67 341.954 278.652 338.778 283.835 335.557C285.509 336.714 287.184 336.688 288.858 335.468C293.574 338.299 299.013 341.206 300.572 346.933C299.959 361.465 299.013 378.976 301.416 391.323C312.286 391.489 323.17 391.451 334.066 391.323C337.702 374.323 325.79 350.09 342.547 338.126C348.573 331.115 357.054 337.877 362.026 342.593C362.972 344.843 364.141 347.035 364.818 349.425C364.275 362.973 363.042 379.896 365.598 391.348C371.235 392.141 375.855 391.764 379.453 390.23C382.412 390.192 387.493 388.894 386.988 385.124C389.921 374.93 388.483 355.03 387.013 344.824C387.224 332.279 377.172 320.213 364.052 320.954C363.144 318.059 357.859 319.043 355.648 320.238C353.52 319.797 351.359 319.644 349.219 319.67C347.883 315.343 337.415 320.264 333.804 318.749C329.765 318.232 325.547 318.296 321.547 318.398C318.575 314.774 308.855 318.308 303.934 317.19C294.686 317.024 285.452 317.024 276.243 317.203C267.449 316.966 258.617 317.126 249.849 317.152C219.109 315.024 179.908 315.075 149.182 317.126L149.169 317.113ZM93.1093 347.035C92.7962 347.661 92.1635 348.907 91.8503 349.54C91.7225 350.23 91.4989 351.604 91.3838 352.294C89.0448 361.983 89.1599 380.478 91.3327 390.115C91.6714 390.441 92.3744 391.112 92.7323 391.438C96.4453 391.54 100.069 391.374 103.865 391.323C107.137 381.245 105.201 360.046 103.865 349.943C102.849 345.265 95.1607 342.721 93.1093 347.035ZM148.338 349.01C143.756 359.631 148.115 372.476 146.651 383.826C141.794 394.154 158.161 392.46 160.493 390.115C162.634 380.452 162.622 362.06 160.506 352.358C160.698 345.239 151.399 341.737 148.338 349.01ZM217.441 345.073C206.015 354.231 214.713 371.531 212.08 383.839C207.44 394.786 224.471 392.205 227.174 390.115C230.146 380.363 228.734 359.152 227.059 350.205C225.538 346.555 221.41 343.788 217.435 345.073H217.441ZM279.694 349.54C276.837 362.903 279.732 377.557 278.824 391.336C282.256 391.336 289.139 391.348 292.59 391.348C295.575 381.462 294.111 361.203 292.616 351.087C292.239 344.683 281.279 342.005 279.694 349.54ZM345.825 345.009C338.412 357.854 345.212 376.528 342.981 391.336C346.4 391.336 353.245 391.335 356.67 391.348C357.009 379.608 356.721 367.856 356.734 356.142C358.23 350.166 353.123 341.347 345.825 345.009Z" fill="#041D19"/>
<path d="M72.6849 246.796C71.9308 244.629 71.7263 242.105 73.3495 240.29C74.142 242.418 74.3912 244.994 72.6849 246.796Z" fill="#041D19"/>
<path d="M82.5756 251.833C81.9621 250.012 82.0196 247.947 83.4447 246.535C84.1733 248.26 84.4609 250.676 82.5756 251.833Z" fill="#FDFBF9"/>
<path d="M72.198 277.197C70.5748 268.678 70.7985 259.923 72.1597 251.417C72.5495 259.999 72.3258 268.576 72.198 277.197Z" fill="#041D19"/>
<path d="M97.5242 273.082C99.1603 272.053 100.809 271.056 102.509 270.123C110.638 270.02 112.728 278.514 107.884 284.412C99.1283 290.375 90.9737 280.111 97.5306 273.075L97.5242 273.082Z" fill="#155248"/>
<path d="M82.601 271.746C84.4735 272.877 84.1731 275.28 83.4062 277.031C82.0066 275.599 81.9619 273.522 82.601 271.746Z" fill="#FDFBF9"/>
<path d="M72.486 279.306C74.3713 280.437 74.1349 282.853 73.3041 284.604C71.9173 283.147 71.9045 281.096 72.486 279.306Z" fill="#041D19"/>
<path d="M172.709 287.837C178.646 285.952 184.941 287.396 191.063 287.358C185.088 289.058 178.748 287.722 172.709 287.837Z" fill="#857466"/>
<path d="M264.637 287.224C269.43 287.135 274.248 287.352 279.067 287.876C274.21 287.94 269.404 287.71 264.637 287.224Z" fill="#5F4337"/>
<path d="M147.545 289.072C151.923 287.864 156.39 287.915 160.946 288.075L162.141 288.503C157.272 289.021 152.402 289.206 147.545 289.072Z" fill="#716653"/>
<path d="M132.713 290.459C134.477 288.733 137.039 288.963 139.193 289.756C137.391 291.405 134.854 291.187 132.713 290.459Z" fill="#6B6254"/>
<path d="M118.865 291.653C120.674 290.043 123.205 290.235 125.371 290.989C123.582 292.701 120.993 292.446 118.865 291.653Z" fill="#8B7F71"/>
<path d="M107.555 292.886C109.165 291.73 111.204 291.353 113.153 291.857L114.022 292.426C112.15 293.934 109.657 293.608 107.555 292.893V292.886Z" fill="#938879"/>
<path d="M176.854 299.5C180.618 296.554 189.622 298.644 195.725 298.331V299.539C189.399 299.513 183.142 299.564 176.854 299.5Z" fill="#55433A"/>
<path d="M195.723 298.331C211.234 298.165 226.75 298.203 242.273 298.305V299.526C237.116 299.526 231.984 299.552 226.859 299.616C216.468 299.424 206.089 299.564 195.717 299.539V298.331H195.723Z" fill="#BEA899"/>
<path d="M242.277 298.305C245.37 299.513 253.25 296.292 254.886 299.526C250.598 299.449 246.495 299.577 242.277 299.526V298.305Z" fill="#7A6152"/>
<path d="M155.463 300.811C157.604 297.341 166.295 300.307 170.903 299.853C165.758 300.53 160.614 300.824 155.463 300.811Z" fill="#8F7E77"/>
<path d="M170.898 299.853C172.86 299.604 174.847 299.476 176.847 299.502C183.136 299.565 189.393 299.514 195.719 299.54C206.085 299.565 216.464 299.425 226.861 299.617C227.354 301.866 228.344 303.956 229.705 305.835C208.303 305.796 186.9 305.835 165.51 305.796C158.666 305.707 151.821 305.809 145.053 306.691C140.899 306.928 136.912 307.183 132.809 307.081C126.782 307.209 120.654 306.34 114.793 307.861C112.365 308.455 109.86 308.429 107.406 308.34C104.421 307.835 101.59 308.027 98.8995 308.921C96.7458 309.637 94.4835 309.842 92.2595 309.893C90.8983 309.465 89.569 309.024 88.2461 308.57C93.0392 304.723 100.676 305.183 106.613 304.531C108.639 304.806 110.742 304.697 112.678 303.918C113.355 303.803 114.704 303.566 115.368 303.438C117.19 303.247 120.813 302.882 122.628 302.697C126.833 302.071 131.249 301.828 135.538 302.083C137.161 302.345 138.861 302.147 140.331 301.355C145.303 300.716 150.332 300.537 155.451 300.824C160.596 300.837 165.74 300.55 170.891 299.866L170.898 299.853Z" fill="#FBF6EF"/>
<path d="M226.861 299.617C231.98 299.553 237.118 299.527 242.276 299.527C246.494 299.579 250.59 299.451 254.885 299.527C256.431 299.54 258.003 299.642 259.563 299.841C263.25 300.205 267.136 300.722 270.913 300.882C272.357 302.467 273.769 304.103 275.201 305.726C260.029 305.816 244.864 305.854 229.705 305.829C228.344 303.956 227.353 301.866 226.861 299.61V299.617Z" fill="#F9E0C9"/>
<path d="M259.562 299.84C263.397 299.578 267.449 299.348 271.366 299.661L270.912 300.882C267.136 300.715 263.25 300.204 259.562 299.84Z" fill="#C9A68F"/>
<path d="M271.366 299.666C274.363 300.746 282.236 297.577 283.809 300.759C279.431 300.734 275.226 300.836 270.912 300.887L271.366 299.666Z" fill="#7E5947"/>
<path d="M135.544 302.07C135.321 299.756 139.257 299.955 140.337 301.341C138.868 302.134 137.168 302.338 135.544 302.07Z" fill="#95867B"/>
<path d="M270.912 300.888C275.226 300.837 279.431 300.735 283.809 300.76C287.796 300.671 292.014 300.607 296.053 301.112C299.939 301.527 303.991 302.109 307.966 302.294C301.044 308.423 290.877 304.863 282.537 305.854C280.083 305.79 277.629 305.777 275.2 305.726C273.769 304.103 272.356 302.467 270.912 300.882V300.888Z" fill="#D1A18B"/>
<path d="M296.055 301.111C299.378 302.204 307.175 298.708 309.105 302.114L307.973 302.293C303.998 302.102 299.947 301.526 296.061 301.111H296.055Z" fill="#734A3D"/>
<path d="M115.375 303.425C115.765 300.492 120.897 301.048 122.635 302.684C120.826 302.876 117.203 303.24 115.375 303.425Z" fill="#90847B"/>
<path d="M307.966 302.293L309.097 302.115C325.438 302.466 341.85 304.658 358.025 307.074C369.439 309.164 358.996 310.167 354.567 309.266C350.228 308.652 345.997 308.186 341.658 308.294C336.699 308.397 331.784 308.282 326.902 307.956C319.252 306.971 311.577 306.914 303.914 307.061C296.769 307.087 289.644 307.189 282.537 307.048V305.853C290.877 304.856 301.045 308.422 307.966 302.293Z" fill="#B08171"/>
<path d="M106.619 304.524C106.856 302.045 111.214 302.626 112.684 303.911C110.748 304.691 108.645 304.806 106.619 304.524Z" fill="#A49790"/>
<path d="M145.061 306.684C151.828 305.802 158.673 305.7 165.517 305.789L165.543 307.01C158.686 307.061 151.854 307.489 145.061 306.684Z" fill="#C8C1B7"/>
<path d="M165.518 305.796C186.907 305.834 208.31 305.796 229.713 305.834C244.871 305.86 260.037 305.821 275.208 305.732C277.637 305.783 280.091 305.796 282.545 305.86V307.055C243.542 307.08 204.539 307.144 165.549 307.016L165.524 305.796H165.518Z" fill="#7D685A"/>
<path d="M114.799 307.854C120.659 306.333 126.788 307.202 132.814 307.074C129.389 309.969 120.525 308.269 114.799 307.854Z" fill="#8F857A"/>
<path d="M303.914 307.061C311.577 306.907 319.252 306.971 326.902 307.956C320.447 306.735 308.132 311.253 303.914 307.061Z" fill="#5F3D32"/>
<path d="M92.2669 309.879C92.056 312.634 85.2307 310.41 88.2535 308.557C89.5764 309.01 90.9057 309.451 92.2669 309.879Z" fill="#74645C"/>
<path d="M98.9062 308.915C101.597 308.02 104.428 307.835 107.412 308.333C106.268 311.049 101.111 310.231 98.9062 308.915Z" fill="#797263"/>
<path d="M341.658 308.294C345.998 308.179 350.228 308.646 354.567 309.266C351.27 307.994 343.281 311.707 341.658 308.294Z" fill="#5F392D"/>
<path d="M149.169 317.113C179.895 315.062 219.096 315.011 249.836 317.139C247.618 317.215 245.432 317.33 243.24 317.414C217.85 317.075 192.434 316.774 167.069 317.414C161.055 317.273 155.131 317.222 149.162 317.113H149.169Z" fill="#3B2D24"/>
<path d="M108.881 318.398C112.389 316.711 117.01 316.296 122.749 317.165V318.398C118.071 318.36 113.514 318.398 108.881 318.398Z" fill="#574C38"/>
<path d="M122.75 317.165C126.437 316.941 130.31 316.973 134.062 317.191L134.087 318.411C130.227 318.334 126.54 318.45 122.75 318.398V317.165Z" fill="#A79B90"/>
<path d="M134.062 317.191C139.086 317.038 144.115 317.012 149.17 317.114C155.133 317.229 161.057 317.28 167.077 317.415C156.13 318.897 145.074 318.386 134.088 318.412L134.062 317.191Z" fill="#E1DAD3"/>
<path d="M167.077 317.42C192.442 316.781 217.858 317.082 243.248 317.42C247.172 317.81 251.262 318.405 255.263 318.628C253.831 322.718 247.703 321.357 244.782 322.086C203.741 322.539 162.686 321.683 121.671 322.437C106.282 324.239 84.7193 320.539 77.4721 338.516C72.7174 355.349 71.599 374.196 74.9925 391.323C69.8863 392.403 63.029 389.259 62.3452 383.839C62.3196 372.074 62.4092 360.321 62.3197 348.575C60.6453 330.119 77.9195 317.235 95.0723 319.664C98.4913 319.485 102.128 319.727 105.553 318.884C106.384 318.769 108.058 318.52 108.889 318.405C113.516 318.405 118.073 318.366 122.757 318.405C126.547 318.456 130.228 318.341 134.094 318.417C145.08 318.392 156.136 318.909 167.083 317.42H167.077Z" fill="#FCFAF5"/>
<path d="M243.246 317.42C245.438 317.331 247.624 317.216 249.841 317.146C258.609 317.12 267.441 316.954 276.235 317.197L276.261 318.392C269.237 318.366 262.246 318.405 255.261 318.628C251.26 318.405 247.17 317.81 243.246 317.42Z" fill="#DFCCBE"/>
<path d="M276.238 317.191C285.447 317.012 294.682 317.012 303.929 317.178V318.399C296.682 318.412 289.473 318.501 282.278 318.597C280.264 318.482 278.251 318.418 276.264 318.386L276.238 317.191Z" fill="#9A7B6B"/>
<path d="M303.928 317.178C308.849 318.297 318.575 314.763 321.541 318.386C315.629 318.399 309.788 318.437 303.928 318.399V317.178Z" fill="#5C3A2B"/>
<path d="M95.0723 319.658C96.2673 316.737 102.46 318.981 105.553 318.878C102.134 319.722 98.4977 319.479 95.0723 319.658Z" fill="#A59987"/>
<path d="M255.261 318.628C262.246 318.404 269.237 318.366 276.261 318.391C278.248 318.43 280.261 318.494 282.274 318.602C286.249 319.094 290.416 319.733 294.34 320.852C291.649 322.654 288.576 324.603 285.042 323.37C249.119 323.887 213.165 322.705 177.255 323.913C152.344 326.642 126.915 321.625 102.343 327.537C109.379 331.825 117.112 337.628 118.748 346.236C116.306 360.506 118.735 378.17 114.217 390.485C110.593 387.456 113.348 379.033 112.683 373.767C112.242 365.677 113.891 357.337 111.929 349.418C110.644 343.29 105.615 338.925 100.087 336.509H93.8238C88.1105 338.714 83.6306 343.469 82.0712 349.482C80.3202 363.35 81.528 377.378 81.2149 391.329C79.1251 391.457 77.0481 391.47 74.9839 391.329C71.584 374.208 72.7088 355.356 77.4635 338.522C84.7106 320.545 106.273 324.239 121.662 322.443C162.678 321.689 203.732 322.545 244.773 322.092C247.694 321.363 253.823 322.718 255.254 318.634L255.261 318.628Z" fill="#FAF1E7"/>
<path d="M282.273 318.603C289.469 318.501 296.678 318.412 303.925 318.405C309.786 318.444 315.627 318.405 321.538 318.393C325.539 318.29 329.757 318.226 333.796 318.744C338.864 319.434 344.04 319.639 349.21 319.664C351.351 319.639 353.511 319.792 355.639 320.233C358.381 321.038 361.186 321.275 364.043 320.949C377.163 320.207 387.216 332.273 387.005 344.818C386.903 358.245 386.967 371.679 386.98 385.118C387.484 388.895 382.397 390.186 379.445 390.225C375.393 390.033 368.938 392.161 370.664 386.537C375.118 384.498 381.458 384.096 382.819 378.331C382.442 366.368 385.222 353.548 382.25 341.93C376.237 337.712 380.34 328.432 373.003 325.914C368.964 325.678 361.806 334.095 368.248 335.839C374.377 337.942 364.35 340.683 362.017 342.581C357.045 337.865 348.565 331.11 342.538 338.114C325.782 350.078 337.694 374.312 334.058 391.311C323.161 391.439 312.278 391.477 301.407 391.311C301.382 384.256 301.356 377.207 301.484 370.196C311.927 365.991 323.213 361.377 330.409 352.43C333.304 343.738 332.358 330.286 322.446 326.298C313.211 323.921 303.849 321.69 294.339 320.853C290.415 319.735 286.248 319.089 282.273 318.603Z" fill="#C29B89"/>
<path d="M333.801 318.737C337.412 320.245 347.88 315.325 349.215 319.657C344.045 319.632 338.875 319.434 333.801 318.737Z" fill="#715345"/>
<path d="M355.643 320.226C357.86 319.031 363.139 318.047 364.046 320.942C361.19 321.268 358.384 321.031 355.643 320.226Z" fill="#745A49"/>
<path d="M294.341 320.853C303.85 321.696 313.213 323.92 322.448 326.298C332.36 330.285 333.305 343.738 330.41 352.429C323.214 361.376 311.928 365.99 301.486 370.196C300.745 362.495 302.783 354.379 300.566 346.921C299.006 341.194 293.568 338.287 288.851 335.455C287.433 334.133 285.177 334.184 283.828 335.545C278.645 338.766 272.67 341.936 270.804 348.205C270.273 349.438 269.896 350.723 269.673 352.052C267.634 364.597 269.206 377.366 268.593 390.026C264.618 390.039 260.943 390.39 257.045 389.962C261.371 387.323 270.657 388.249 267.5 380.037C266.631 373.557 267.762 365.882 265.915 359.996C255.926 361.945 245.81 363.492 235.955 366.137C235.354 360.175 237.265 353.88 235.137 348.186C232.971 342.613 228.318 338.613 223.384 335.526C221.985 334.139 219.774 334.216 218.317 335.385C212.098 338.427 205.951 342.441 204.161 349.515C201.381 363.332 205.395 377.801 202.186 391.49C191.706 390.486 177.767 393.177 169.3 390.09C168.354 375.788 171.012 361.012 168.456 346.921C166.909 341.194 161.458 338.287 156.742 335.468C155.31 334.158 153.067 334.171 151.661 335.468C145.494 338.338 140.599 342.818 138.726 349.496C136.905 363.338 138.157 377.366 137.832 391.317C131.192 390.314 118.34 393.381 114.218 390.473C118.736 378.158 116.307 360.488 118.749 346.224C117.113 337.616 109.374 331.819 102.344 327.525C126.916 321.613 152.345 326.63 177.256 323.901C213.166 322.693 249.127 323.875 285.043 323.358C288.577 324.591 291.651 322.642 294.341 320.84V320.853Z" fill="#F6E7D6"/>
<path d="M151.66 335.474C153.066 334.177 155.309 334.164 156.741 335.474C155.028 336.669 153.341 336.669 151.66 335.474Z" fill="#99857A"/>
<path d="M218.324 335.385C219.781 334.215 221.999 334.138 223.392 335.525C221.667 336.707 219.973 336.656 218.324 335.385Z" fill="#7F6955"/>
<path d="M283.832 335.551C285.18 334.19 287.43 334.145 288.855 335.461C287.181 336.682 285.506 336.707 283.832 335.551Z" fill="#918174"/>
<path d="M93.8262 336.504H100.089C98.6832 338.351 95.2066 338.351 93.8262 336.504Z" fill="#705E4B"/>
<path d="M51.1101 346.153C50.5157 344.338 50.5157 342.293 51.9281 340.881C52.7461 342.593 52.9825 344.996 51.1101 346.153Z" fill="#9F9790"/>
<path d="M93.1095 347.035C95.1609 342.721 102.849 345.258 103.865 349.943C103.903 363.721 103.865 377.513 103.865 391.323C100.063 391.374 96.4391 391.534 92.7324 391.438L92.8347 390.345C93.9786 376.004 94.9116 361.318 93.1095 347.041V347.035Z" fill="#155248"/>
<path d="M148.339 349.01C151.393 341.737 160.692 345.233 160.507 352.359C160.494 364.929 160.481 377.526 160.494 390.115C158.168 392.454 141.794 394.154 146.651 383.827C148.109 372.477 143.756 359.631 148.339 349.01Z" fill="#155248"/>
<path d="M217.441 345.073C221.416 343.789 225.544 346.556 227.065 350.205C227.244 363.491 227.167 376.803 227.18 390.115C224.477 392.205 207.439 394.781 212.085 383.84C214.712 371.537 206.02 354.238 217.447 345.073H217.441Z" fill="#155248"/>
<path d="M279.694 349.541C281.279 342.006 292.239 344.684 292.616 351.087C292.603 364.502 292.59 377.909 292.59 391.349C289.146 391.349 282.263 391.336 278.825 391.336C279.732 377.558 276.837 362.904 279.694 349.541Z" fill="#155248"/>
<path d="M345.823 345.01C353.121 341.348 358.228 350.167 356.732 356.142C356.719 367.857 357.007 379.609 356.668 391.349C353.243 391.336 346.398 391.336 342.979 391.336C345.203 376.529 338.41 357.855 345.823 345.01Z" fill="#155248"/>
<path d="M93.1086 347.036C94.9108 361.319 93.9778 375.999 92.8338 390.34C92.3162 376.727 93.1342 363.09 91.8496 349.535C92.1628 348.908 92.7954 347.662 93.1086 347.03V347.036Z" fill="#A1B5C9"/>
<path d="M168.462 346.921C171.018 361.012 168.36 375.781 169.306 390.09C166.813 378.101 167.97 360.999 168.462 346.921Z" fill="#3B2716"/>
<path d="M300.567 346.921C302.785 354.379 300.746 362.495 301.487 370.196C301.36 377.206 301.385 384.249 301.411 391.311C299.008 378.97 299.954 361.453 300.567 346.921Z" fill="#402718"/>
<path d="M49.6133 381.271C49.9776 370.272 49.0189 359.178 50.8467 348.281C51.1854 361.076 51.0959 373.857 50.6933 386.671C50.0926 384.92 49.837 383.073 49.6133 381.271Z" fill="#C2B4AC"/>
<path d="M62.3444 383.84C61.0471 375.372 59.034 356.967 62.3189 348.576C62.4083 360.329 62.3188 372.081 62.3444 383.84Z" fill="#827468"/>
<path d="M235.145 348.179C237.273 353.88 235.356 360.168 235.963 366.131C235.886 374.483 235.976 382.9 236.001 391.297C233.483 379.494 234.653 362.219 235.145 348.179Z" fill="#695649"/>
<path d="M269.68 352.059C269.903 350.723 270.287 349.445 270.811 348.211C270.159 361.223 273.591 379.239 269.955 390.109C269.903 377.417 270.178 364.732 269.68 352.065V352.059Z" fill="#86705F"/>
<path d="M81.2179 391.324C81.5311 377.373 80.3232 363.345 82.0742 349.477C81.448 362.425 84.867 380.619 81.2179 391.324Z" fill="#554128"/>
<path d="M91.8503 349.541C93.1349 363.089 92.3169 376.727 92.8345 390.346L92.7322 391.438C92.3808 391.113 91.6778 390.442 91.3327 390.116C91.3455 377.494 91.1218 364.891 91.3838 352.295C91.4988 351.605 91.7225 350.231 91.8503 349.541Z" fill="#EBF9FC"/>
<path d="M103.867 349.943C105.203 360.046 107.139 381.245 103.867 391.323C103.867 377.506 103.906 363.721 103.867 349.943Z" fill="#2F3D49"/>
<path d="M111.931 349.412C113.893 357.324 112.244 365.67 112.685 373.761C110.058 368.01 111.228 357.305 111.931 349.412Z" fill="#3F2C21"/>
<path d="M137.836 391.323C138.162 377.372 136.903 363.345 138.731 349.502C138.028 362.437 141.498 380.632 137.836 391.323Z" fill="#8C7564"/>
<path d="M202.193 391.489C205.402 377.8 201.388 363.332 204.168 349.515C204.737 363.415 204.673 377.359 204.43 391.285C203.861 391.336 202.756 391.438 202.193 391.483V391.489Z" fill="#B39E8A"/>
<path d="M227.064 350.205C228.739 359.152 230.145 380.363 227.18 390.115C227.167 376.803 227.243 363.491 227.064 350.205Z" fill="#252C36"/>
<path d="M292.617 351.087C294.113 361.204 295.576 381.462 292.592 391.349C292.592 377.909 292.605 364.501 292.617 351.087Z" fill="#37393E"/>
<path d="M91.3329 390.116C89.1537 380.479 89.045 361.984 91.384 352.295C91.122 364.892 91.3457 377.494 91.3329 390.116Z" fill="#A7B0B9"/>
<path d="M160.506 352.359C162.622 362.061 162.634 380.453 160.494 390.116C160.481 377.52 160.494 364.93 160.506 352.359Z" fill="#2E3339"/>
<path d="M268.598 390.026C269.212 377.366 267.64 364.597 269.678 352.052C270.183 364.725 269.902 377.404 269.953 390.096C261.032 393.043 246.876 390.71 235.993 391.291C235.967 382.9 235.878 374.484 235.954 366.125C245.809 363.485 255.919 361.932 265.914 359.983C267.761 365.869 266.63 373.544 267.499 380.025C270.656 388.243 261.37 387.31 257.044 389.949C260.942 390.378 264.617 390.026 268.592 390.013L268.598 390.026Z" fill="#EEDBC9"/>
<path d="M32.679 400.118C28.7678 388.18 42.7316 386.218 49.6144 381.271C49.8381 383.073 50.0937 384.92 50.6944 386.671C54.2541 397.708 65.7895 405.428 77.4334 404.022C115.478 403.658 153.541 404.489 191.585 403.569C220.727 404.259 249.888 404.048 279.042 403.722C311.616 404.201 344.215 403.933 376.802 403.85C378.565 404.463 380.636 404.418 382.074 403.032C389.647 401.223 397.111 396.021 398.696 387.969C399.163 386.122 399.451 384.23 399.751 382.37C408.142 383.278 423.985 391.88 415.645 401.255C392.306 417.5 362.02 417.551 334.968 422.92C286.5 426.518 237.86 429.573 189.22 427.975C141.852 424.626 92.8542 425.08 47.6652 408.636C42.329 406.483 37.0438 403.869 32.679 400.118Z" fill="#E2CEC3"/>
<path d="M191.586 403.568C220.536 401.817 250.017 402.219 279.043 403.721C249.889 404.047 220.728 404.264 191.586 403.568Z" fill="#35240F"/>
</g>
</g>
<defs>
<linearGradient id="paint0_linear_3398_3892" x1="180" y1="0" x2="180" y2="800" gradientUnits="userSpaceOnUse">
<stop stop-color="#1DB39A"/>
<stop offset="1" stop-color="#0A4F44"/>
</linearGradient>
<linearGradient id="paint1_linear_3398_3892" x1="-118.258" y1="-18.4828" x2="-118.258" y2="96.2758" gradientUnits="userSpaceOnUse">
<stop stop-color="#E0E0E0"/>
<stop offset="1" stop-color="white" stop-opacity="0"/>
</linearGradient>
<linearGradient id="paint2_linear_3398_3892" x1="181.88" y1="-56" x2="181.88" y2="32.2759" gradientUnits="userSpaceOnUse">
<stop stop-color="#E0E0E0"/>
<stop offset="1" stop-color="white" stop-opacity="0"/>
</linearGradient>
<linearGradient id="paint3_linear_3398_3892" x1="313.189" y1="85.2415" x2="313.189" y2="200" gradientUnits="userSpaceOnUse">
<stop stop-color="#E0E0E0"/>
<stop offset="1" stop-color="white" stop-opacity="0"/>
</linearGradient>
<clipPath id="clip0_3398_3892">
<rect width="360" height="800" fill="white"/>
</clipPath>
<clipPath id="clip1_3398_3892">
<rect width="360" height="440" fill="white"/>
</clipPath>
</defs>
</svg>
