<svg width="360" height="800" viewBox="0 0 360 800" fill="none" xmlns="http://www.w3.org/2000/svg">
<g clip-path="url(#clip0_3398_4412)">
<rect width="360" height="800" fill="url(#paint0_linear_3398_4412)"/>
<path opacity="0.6" d="M-287.078 87.1059C-284.594 83.9401 -281.149 82.4829 -277.304 81.9427C-276.542 81.8296 -275.694 82.2693 -274.82 82.4703C-275.269 83.2994 -275.644 84.0029 -276.143 84.9451C-275.544 84.9828 -275.094 85.1461 -274.87 84.9954C-273.047 83.714 -270.937 82.6336 -269.552 80.9628C-267.966 79.0659 -265.931 78.4001 -263.872 77.6589C-261.774 76.9051 -259.602 76.4906 -257.305 76.9428C-254.721 77.4579 -252 77.0307 -249.453 78.1237C-248.13 78.689 -247.044 79.3046 -246.083 80.4477C-244.76 82.0055 -243.561 83.8145 -241.639 84.631C-240.553 84.1788 -240.715 83.3874 -240.977 82.8095C-241.614 81.4025 -241.951 79.8447 -242.562 78.5131C-243.986 75.473 -242.587 72.6967 -242.35 69.845C-242.275 68.8777 -241.352 67.9355 -240.715 67.0562C-238.281 63.702 -235.934 60.2599 -231.577 59.0915C-230.304 58.7524 -229.155 58.5765 -227.907 59.0287C-226.746 59.4433 -225.547 59.7448 -224.162 60.1594C-224.574 62.6216 -226.009 64.9205 -225.323 67.5084C-224.674 68.1868 -223.825 68.6516 -223.238 67.6592C-222.551 66.4783 -222.015 65.1467 -221.703 63.8025C-221.091 61.2146 -220.729 58.5514 -218.594 56.6419C-218.394 56.466 -218.245 56.1896 -218.145 55.9384C-216.347 51.0893 -212.19 48.6898 -208.133 46.1773C-204.438 43.891 -200.131 43.0367 -196.299 41.0518C-195.475 40.6247 -194.401 40.6875 -193.44 40.5745C-192.616 40.474 -191.717 40.6373 -190.981 40.3609C-189.845 39.9212 -188.834 40.072 -187.71 40.2981C-186.212 40.5996 -184.652 40.6247 -183.141 40.8634C-182.205 41.0142 -181.019 41.0393 -180.42 41.6171C-179.072 42.9111 -177.861 42.2578 -176.388 41.7051C-173.766 44.004 -170.72 45.5241 -167.15 46.0894C-165.053 46.416 -164.191 48.8783 -161.957 49.4561C-160.034 49.9586 -158.898 51.7927 -158.349 53.8153C-158.249 54.2047 -157.999 54.7072 -157.687 54.8454C-154.829 56.1017 -153.992 58.9282 -152.432 61.5412C-153.094 62.1442 -153.855 62.7095 -154.442 63.4256C-154.754 63.815 -155.066 64.5939 -154.879 64.9205C-154.579 65.4607 -153.867 66.114 -153.356 66.1014C-151.845 66.0637 -150.247 65.9632 -148.862 65.423C-147.214 64.7698 -145.716 64.3175 -144.068 65.1969C-143.831 65.3225 -143.506 65.4356 -143.257 65.3853C-138.438 64.5185 -135.866 68.124 -133.195 70.9254C-130.161 74.0911 -129.949 78.2619 -130.91 82.4577C-131.123 83.3748 -131.472 84.2667 -131.959 85.8119C-130.935 85.3094 -130.311 85.2215 -130.124 84.8823C-129.462 83.6637 -128.676 82.4075 -128.451 81.0759C-128.014 78.5885 -127.902 76.0383 -127.727 73.5133C-127.627 72.056 -128.214 70.85 -129.1 69.644C-133.095 64.2296 -138.488 61.5287 -145.079 61.001C-146.303 60.9005 -147.513 60.687 -148.762 60.5237C-150.422 56.0514 -152.794 52.3329 -156.639 49.7199C-157.201 49.3431 -157.762 48.7652 -158.024 48.1496C-159.111 45.612 -161.333 44.4814 -163.567 43.3005C-165.54 42.2578 -167.425 41.0518 -169.422 40.0594C-171.282 39.1298 -173.055 37.9363 -175.277 37.8735C-176.088 37.8484 -176.887 37.4338 -177.686 37.1575C-178.21 36.9816 -178.759 36.7932 -179.234 36.5168C-180.644 35.7128 -182.242 35.4741 -183.715 35.763C-187.673 36.5294 -191.842 34.4691 -195.662 36.7304C-196.136 37.0193 -196.686 37.459 -197.16 37.4213C-199.832 37.1575 -201.866 38.8157 -204.201 39.5695C-209.469 41.278 -213.439 44.7075 -216.896 48.8029C-218.944 51.24 -220.629 53.9786 -222.439 56.5288C-223.95 55.9761 -225.36 55.4484 -227.045 54.8329C-226.996 54.0791 -226.996 53.1369 -226.858 52.2073C-226.584 50.4234 -226.321 48.627 -225.885 46.8808C-225.435 45.0718 -223.613 44.1548 -222.963 42.3206C-221.79 38.9665 -219.393 36.3158 -216.859 33.9289C-214.138 31.3662 -211.329 28.8286 -207.596 27.7607C-207.459 27.7231 -207.322 27.6854 -207.209 27.5974C-203.739 24.9091 -199.519 24.4568 -195.437 23.5146C-192.778 22.9116 -190.144 23.0498 -187.498 23.2131C-185.825 23.3136 -184.165 23.6277 -182.517 23.9292C-181.868 24.0548 -181.269 24.4317 -180.42 24.7834C-181.706 27.4718 -183.441 29.8712 -183.066 33.1249C-182.43 32.8737 -181.955 32.836 -181.743 32.5722C-179.309 29.7205 -176.6 27.1201 -174.777 23.7533C-174.216 22.7232 -173.08 21.5172 -172.031 21.3162C-169.097 20.7509 -167.375 18.3138 -164.84 17.2083C-163.567 16.6555 -162.356 15.7636 -161.033 15.5751C-158.823 15.2611 -156.614 15.0601 -154.554 14.1053C-154.205 13.942 -153.73 13.9546 -153.331 14.03C-148.287 15.0475 -143.107 15.5626 -138.376 17.7861C-136.877 18.4896 -135.479 19.4067 -134.019 20.1981C-133.42 20.5248 -132.77 20.7383 -132.196 20.977C-131.422 20.3112 -131.897 19.8841 -132.271 19.5072C-135.28 16.4671 -138.688 14.1556 -142.782 12.7486C-145.953 11.6682 -148.986 10.2235 -152.382 9.95973C-152.619 9.94716 -152.831 9.64566 -153.081 9.45723C-153.53 8.66579 -152.881 8.15073 -152.482 7.67336C-148.862 3.37699 -145.154 -0.806313 -140.048 -3.40674C-139.187 -3.84643 -138.5 -4.61274 -137.664 -5.09011C-136.703 -5.64286 -135.679 -6.32124 -134.63 -6.4343C-132.508 -6.64786 -130.536 -7.26342 -128.551 -7.96692C-127.777 -8.24329 -126.928 -8.40661 -126.104 -8.43173C-121.922 -8.56992 -117.728 -8.34379 -113.596 -7.77848C-111.324 -7.47698 -109.177 -6.22074 -106.855 -5.34136C-107.042 -4.29868 -107.092 -3.45699 -107.354 -2.69068C-108.415 0.349436 -109.589 3.35187 -110.65 6.40455C-111.236 8.08792 -111.648 9.80898 -110.849 12.0953C-110.288 11.3165 -109.851 10.9396 -109.726 10.4874C-108.802 7.09548 -107.666 3.79155 -106.518 0.47506C-105.943 -1.19575 -105.007 -2.452 -104.158 -3.85899C-102.124 -7.21317 -99.8516 -10.3035 -96.2189 -12.0874C-94.983 -14.1602 -92.736 -14.7632 -90.826 -15.8813C-88.4916 -17.238 -85.7078 -17.0119 -83.3235 -18.1551C-78.5798 -18.2681 -73.8236 -18.4189 -69.0798 -18.4817C-67.6817 -18.5068 -66.3834 -18.0923 -65.0851 -17.3888C-63.662 -16.6099 -62.0142 -16.2707 -60.4787 -15.6677C-59.0681 -15.115 -57.3454 -14.8009 -56.3842 -13.7959C-55.3356 -12.703 -53.9874 -12.4643 -52.9637 -11.6854C-50.9913 -10.1905 -49.3685 -8.21817 -47.6707 -6.38405C-47.0091 -5.66799 -46.672 -4.58762 -45.9355 -4.00974C-43.4014 -2.03743 -42.6024 0.6635 -42.178 3.67849C-41.9408 5.29905 -41.454 6.84423 -40.68 8.38942C-39.6439 10.4622 -40.0558 12.9873 -39.9435 15.3365C-39.8561 17.2962 -39.5814 19.2434 -39.3068 21.178C-39.2693 21.4418 -38.7326 21.8313 -38.4205 21.8313C-38.0834 21.8313 -37.5841 21.5298 -37.4218 21.2157C-36.1485 18.7535 -35.7365 15.2611 -36.3732 11.417C-36.5605 10.2738 -36.7851 9.21854 -36.111 7.78642C-32.1538 8.75373 -28.3463 9.87179 -25.0008 11.8818C-21.7176 13.8541 -18.4969 16.0776 -16.0751 19.1931C-15.738 19.6328 -15.3261 20.0474 -15.0889 20.5373C-14.3025 22.1579 -11.8058 21.8187 -11.4687 24.2433C-11.244 25.8764 -9.74597 27.3211 -8.84717 28.8662C-6.27557 33.3134 -4.70267 37.9992 -5.68887 43.3759C-6.12579 43.5643 -6.6376 44.004 -7.12445 43.9789C-12.6422 43.602 -17.5232 45.8381 -22.4292 47.8104C-24.3391 48.5768 -25.962 50.0717 -27.7346 51.1898C-28.4337 51.6294 -29.2077 51.9184 -29.7819 52.1947C-32.1163 50.7878 -34.226 49.4687 -36.3857 48.2376C-38.1084 47.2577 -39.9809 46.7929 -41.9908 46.6673C-44.063 46.5291 -46.0978 46.0517 -48.1701 45.7879C-54.7863 44.9588 -60.7034 46.617 -66.4458 50.0968C-69.8039 52.1319 -71.6015 55.0087 -73.2243 58.2247C-74.1606 60.0965 -74.8971 62.0814 -75.6586 64.0286C-76.0456 65.021 -76.2703 66.0637 -75.4214 67.6843C-74.9346 66.1014 -74.6724 65.0336 -74.273 64.0286C-73.861 62.9859 -73.2868 62.0186 -72.7874 61.0136C-69.8289 54.9711 -65.0227 51.1898 -58.5563 49.7451C-55.1608 48.9788 -51.6654 48.5139 -48.195 48.3883C-46.0229 48.3129 -43.651 48.7652 -41.6662 49.6446C-39.1445 50.7501 -36.4356 51.6797 -34.4008 53.7399C-33.9264 54.2173 -33.2274 54.5062 -32.5907 54.7701C-31.3923 55.2726 -30.4311 55.9886 -29.7195 57.1192C-28.8582 58.4885 -27.4475 59.1418 -25.8247 59.8327C-25.0757 56.9559 -27.0605 55.3731 -28.3838 53.7399C-27.9469 52.0063 -26.4738 51.8932 -25.4751 51.2274C-20.2945 47.7979 -14.4148 46.504 -8.36032 46.2904C-5.48914 46.1899 -2.58047 47.0064 0.315674 47.3582C2.11328 47.5843 3.67374 48.1748 5.30908 49.1421C9.41614 51.5541 13.3734 54.1419 17.0935 57.1067C17.9298 57.7725 20.5763 61.2146 21.1755 62.1945C22.4239 64.217 23.7222 66.2145 25.0329 68.1993C26.5434 70.4857 27.3299 72.86 27.0927 75.7117C26.9429 77.4579 27.6794 79.2794 27.9166 81.0759C28.2162 83.2994 28.391 85.5355 28.7155 87.7465C28.7905 88.2365 29.2274 89.0405 29.5395 89.053C30.1387 89.0907 31.0125 88.852 31.337 88.3998C31.9612 87.5204 32.2858 86.4275 32.6978 85.4979C36.655 85.1084 39.9507 86.5908 43.2213 88.136C43.5958 88.3119 43.9579 88.5254 44.2699 88.8018C46.7666 91.0002 49.2383 93.2112 51.6726 95.3845C51.6102 96.2388 51.0859 96.3141 50.4991 96.2639C46.6293 95.9498 42.7469 96.3895 38.8771 95.9373C38.0656 95.8368 37.1794 96.2136 36.4054 96.0126C34.1833 95.4599 31.9862 95.6609 29.7642 95.774C28.391 95.8493 26.9678 96.1257 25.6446 95.3971C25.2951 95.2086 24.7708 95.0328 24.4337 95.1584C21.6499 96.2011 18.8911 95.1207 16.1198 95.083C13.1736 95.0453 10.2525 95.1207 7.31891 95.4599C5.38397 95.686 3.41156 95.6358 1.46414 95.5353C-0.882751 95.4222 -3.19217 94.6559 -5.55154 95.6106C-6.11331 95.8368 -6.91223 95.4976 -7.59882 95.3971C-10.7946 94.97 -13.9779 94.6308 -17.1612 95.4725C-18.2347 95.7614 -19.2709 95.6986 -20.4318 95.372C-22.0047 94.9197 -23.7274 94.9323 -25.4002 94.9071C-27.7721 94.882 -30.1315 94.9448 -32.5033 95.0705C-39.182 95.4473 -45.8606 95.0453 -52.5268 94.7062C-55.0235 95.6483 -57.7449 94.4675 -60.304 95.7111C-61.3651 96.2262 -63.0129 95.686 -64.3486 95.4096C-65.8966 95.0956 -67.3821 95.0328 -68.9176 95.372C-69.8663 95.5855 -70.7901 95.5604 -71.7763 95.171C-72.4629 94.8946 -73.3741 95.171 -74.1856 95.2589C-74.5851 95.2966 -75.1218 95.6609 -75.3715 95.5101C-77.4063 94.2288 -79.4786 95.4222 -81.5134 95.3217C-83.311 95.2212 -85.1211 95.9875 -86.8937 95.1458C-87.0186 95.083 -87.2058 95.0202 -87.3057 95.0705C-90.1145 96.49 -92.761 94.9951 -95.4823 94.6685C-96.843 94.5052 -98.4035 95.171 -99.6019 94.7187C-101.799 93.877 -103.696 94.97 -105.719 95.083C-109.314 95.284 -112.872 95.7614 -116.33 94.2037C-116.916 93.9398 -117.778 93.9273 -118.389 94.1408C-122.759 95.5981 -127.19 94.3921 -131.585 94.5554C-132.521 94.5931 -133.42 94.2037 -134.381 94.7564C-135.579 95.4348 -136.878 95.284 -137.989 94.5554C-139.624 93.475 -141.122 93.3117 -143.107 93.8268C-145.903 94.5554 -148.924 93.8896 -151.77 94.769C-152.132 94.882 -152.619 94.769 -153.006 94.6308C-156.239 93.5001 -159.547 93.965 -162.856 94.0152C-165.202 94.0529 -167.524 94.1032 -169.921 93.6383C-172.593 93.1233 -175.451 93.5881 -178.223 93.676C-178.909 93.7012 -179.696 94.166 -180.257 93.965C-183.104 92.9097 -186.025 94.2413 -188.884 93.5253C-189.932 93.2615 -191.193 93.2991 -192.204 93.6509C-194.863 94.5805 -197.522 94.2539 -200.094 93.7011C-203.989 92.872 -207.908 93.1987 -211.816 93.0856C-216.684 92.9474 -221.553 93.0353 -226.421 93.0479C-227.944 93.0479 -229.48 93.073 -231.003 93.0856C-232.126 93.0982 -233.25 93.1484 -234.361 93.0982C-238.693 92.8972 -243.012 92.6333 -247.331 92.4449C-249.84 92.3318 -252.349 92.5454 -254.846 91.867C-255.882 91.5781 -257.068 91.9173 -258.192 91.8545C-263.21 91.5781 -268.228 91.2515 -273.247 90.9625C-274.87 90.8746 -280.188 90.3218 -284.407 90.1711C-285.568 89.9575 -286.729 89.744 -288.189 89.4676C-287.69 88.5505 -287.54 87.6963 -287.078 87.1059Z" fill="url(#paint1_linear_3398_4412)"/>
<path opacity="0.6" d="M175.286 11.1C176.464 9.68021 177.108 8.38268 177.305 7.11337C177.464 6.05091 177.959 5.1953 178.277 4.23627C179.24 1.37797 180.894 -1.14183 182.408 -3.73687C182.661 -4.16937 183.016 -4.59249 183.427 -4.90277C185.502 -6.45415 187.157 -8.51325 189.559 -9.66033C190.167 -9.9518 190.662 -10.4689 191.204 -10.892C191.41 -11.0519 191.578 -11.3433 191.803 -11.3715C193.915 -11.6536 195.579 -13.0075 197.523 -13.6751C197.925 -13.8161 198.439 -14.0418 198.776 -13.9102C200.851 -13.1016 202.861 -14.1076 204.898 -14.0418C206.282 -13.9948 207.675 -13.9478 209.058 -13.8632C210.002 -13.8067 210.9 -13.5717 211.9 -13.6751C212.676 -13.7597 213.526 -13.2144 214.33 -12.8947C214.966 -12.6409 215.555 -12.246 216.2 -12.0015C218.004 -11.3245 219.77 -10.6099 221.144 -9.1996C221.266 -9.07737 221.397 -8.94574 221.556 -8.87992C225.874 -6.99006 227.8 -3.04111 229.94 0.682198C231.268 2.98576 231.445 5.59962 231.184 8.22286C231.071 9.33233 230.894 10.4418 230.81 11.5607C230.782 11.965 230.94 12.3787 231.006 12.8018C231.754 12.6137 231.8 12.0496 231.857 11.5607C232.043 9.84945 232.184 8.13824 232.333 6.42702C232.38 5.90989 232.417 5.39275 232.455 4.88503C232.511 4.10464 232.969 3.66272 233.698 3.38065C235.708 2.60966 237.68 3.05158 239.643 3.5405C240.316 3.70974 240.97 4.00122 241.606 4.30209C242.569 4.7534 243.419 5.34576 243.896 6.3424C244.438 7.48948 245.466 8.4203 245.588 9.73662C243.943 10.8367 242.279 11.8051 240.802 12.9992C239.811 13.7984 239.101 14.9361 238.11 16.0926C239.363 16.3464 240.129 15.7071 240.905 15.2934C241.512 14.9737 241.999 14.4284 242.55 13.9959C243.999 12.8394 245.569 11.9368 247.429 11.523C248.878 11.2034 250.299 10.7521 251.72 10.3102C254.992 9.29472 258.235 8.34509 261.656 9.77423C262.357 10.0657 263.208 9.98109 263.974 10.1597C267.704 11.0059 270.303 13.4129 272.555 16.243C273.471 17.3901 274.21 18.6688 275.07 19.8629C275.238 20.0979 275.565 20.2296 275.864 20.4458C276.547 19.1671 275.126 18.4525 275.341 17.2208C276.163 16.6567 277.042 16.0361 278.313 16.5157C278.622 16.6285 279.089 16.6943 279.332 16.5439C280.426 15.8575 281.37 16.4687 282.342 16.7789C282.763 16.9106 283.127 17.2491 283.539 17.3149C285.343 17.6157 286.147 18.9697 286.913 20.3142C287.745 21.781 288.082 23.3887 287.567 25.0341C287.268 25.9838 286.932 26.877 285.857 27.4976C284.67 28.1745 283.95 29.4909 282.566 30.0738C280.005 31.1457 277.463 31.9355 274.602 31.2867C272.855 30.8918 271.209 30.2901 269.602 29.5849C269.003 29.3216 268.573 28.7104 267.956 28.1557C267.751 28.1839 267.368 28.1463 267.068 28.2779C264.741 29.2934 262.339 29.5378 259.805 29.331C257.88 29.1712 255.936 29.0771 254.01 28.9737C251.14 28.8233 248.663 27.8643 246.336 26.4727C245.485 25.965 244.635 25.6641 243.662 25.4008C243.195 26.2753 244.476 26.6608 244.279 27.4317C244.176 27.5634 244.102 27.7608 243.971 27.8078C241.727 28.5694 239.484 29.3874 237.054 29.3498C235.455 29.331 233.857 29.2276 232.258 29.2276C230.623 29.2276 229.108 28.607 227.706 28.0147C225.715 27.1685 223.771 26.2282 221.677 25.5983C221.864 23.9341 223.724 23.8589 224.304 22.4767C223.911 22.5426 223.565 22.5144 223.322 22.646C220.658 24.1598 218.004 25.6923 215.33 27.2061C215.031 27.3753 214.667 27.4599 214.33 27.5634C212.218 28.2215 210.114 28.8797 207.992 29.5002C207.488 29.6507 206.946 29.6977 206.422 29.7541C205.534 29.8387 204.646 29.8575 203.767 29.961C201.935 30.1772 200.122 30.243 198.28 30.0644C196.364 29.8763 194.392 30.4311 192.504 29.6037C192.13 29.4438 191.625 29.5285 191.186 29.5567C188.297 29.7165 185.587 28.8985 182.867 28.1651C181.334 27.7514 179.772 27.4411 178.249 27.0086C177.707 26.8488 177.239 26.4539 176.548 26.059C178.062 25.0248 179.193 23.9623 179.698 22.4955C179.343 21.8562 178.884 22.1383 178.511 22.2417C177.305 22.5896 176.202 23.1161 175.417 24.1221C175.202 24.3948 174.977 24.7333 174.678 24.8555C173.052 25.5231 171.659 26.6043 170.061 27.3001C168.771 27.8642 167.406 28.2591 166.06 28.6917C164.639 29.1524 163.181 29.4156 161.685 29.6601C159.769 29.9704 157.825 30.1302 155.918 30.4593C155.095 30.6003 154.347 30.5533 153.553 30.3841C152.693 30.196 151.805 30.1208 150.926 30.008C150.58 29.961 150.178 30.0174 149.879 29.8857C148.487 29.237 147.028 29.0677 145.486 29.0019C144.57 28.9643 143.635 28.4566 142.775 28.0335C141.812 27.554 140.84 27.4129 139.719 27.4505C140.607 29.1994 140.719 29.284 143.766 30.4969C142.364 31.6158 140.579 31.5594 138.961 31.926C137.606 32.2269 136.167 32.1705 134.764 32.2645C133.867 32.3209 133.035 32.1611 132.157 31.9166C131.371 31.7004 130.446 32.1611 129.623 31.6158C129.362 31.4371 128.885 31.3619 128.595 31.4559C127.221 31.8978 126.258 31.2115 125.193 30.5345C124.193 29.8951 122.809 29.8576 122.117 28.6729C121.996 28.4754 121.463 28.419 121.127 28.4284C120.425 28.4378 119.93 28.2121 119.603 27.601C119.519 27.4505 119.425 27.2249 119.294 27.1967C117.406 26.736 116.808 24.9589 115.583 23.8307C114.368 22.7024 113.181 21.5459 111.938 20.4552C111.723 20.2672 111.237 20.1638 110.994 20.2766C110.76 20.38 110.545 20.8031 110.545 21.0852C110.536 22.063 110.9 22.9751 111.536 23.7085C113.004 25.4009 114.107 27.4223 116.266 28.5036C117.004 28.8703 116.836 29.6789 116.032 30.102C114.331 31.0046 112.461 31.0892 110.592 31.1174C109.975 31.1268 109.339 30.9388 108.732 30.9858C106.292 31.1833 104.217 30.243 102.207 29.0866C102.076 29.0113 102.02 28.8045 101.871 28.56C103.245 27.648 104.983 27.1027 105.815 25.4761C105.572 25.429 105.348 25.3162 105.236 25.3726C102.348 26.9898 99.0759 27.3941 95.8978 28.0147C94.6265 28.2591 93.2805 28.2686 91.9999 28.607C91.626 28.7105 88.5133 28.1557 88.1768 27.9865C87.0831 27.4223 85.9988 26.83 84.8958 26.3035C84.4378 26.0872 83.9237 25.9744 83.4376 25.824C83.0263 25.6923 82.4468 25.7111 82.2224 25.4385C81.484 24.5358 80.409 24.0939 79.5304 23.3982C79.2032 23.1443 78.9695 22.7494 78.7545 22.3827C78.5863 22.0912 78.5863 21.6587 78.3619 21.4425C76.4831 19.5714 76.5205 17.0516 76.0624 14.7574C75.7072 13.0086 76.2307 11.1752 77.0346 9.52976C78.1002 7.36724 79.3715 5.29873 81.0073 3.50289C82.2131 2.17716 83.6245 1.05831 85.223 0.146286C86.6718 -0.681114 88.13 -1.41452 89.7939 -1.66838C91.3455 -1.89403 92.8972 -2.07268 94.4583 -2.23252C97.8888 -2.58981 101.067 -1.56494 104.17 -0.361446C106.573 0.578785 108.395 2.32762 109.807 4.46194C110.274 5.16711 110.77 5.85347 111.321 6.62446C111.919 5.65602 112.05 4.88504 111.452 4.07644C111.2 3.73796 111.013 3.34307 110.77 2.99518C109.947 1.78229 109.124 0.578777 108.134 -0.869179C106.741 -1.04782 105.395 -1.98804 104.058 -2.94707C102.759 -3.8779 101.273 -4.36684 99.6928 -4.6113C99.0011 -4.72413 98.3001 -4.88395 97.6083 -4.88395C96.4493 -4.89335 95.7575 -5.40107 95.5986 -6.50114C95.3556 -8.19356 94.3554 -9.68854 94.4956 -11.5126C94.6639 -13.6845 94.8695 -15.7718 96.1221 -17.6429C96.5521 -18.2822 96.8605 -19.0062 97.2064 -19.6926C98.2533 -21.7517 100.31 -22.8329 101.861 -24.4031C102.31 -24.8544 103.086 -25.0331 103.74 -25.2493C104.89 -25.6254 106.049 -25.9733 107.227 -26.2554C107.806 -26.3964 108.423 -26.4528 109.012 -26.3964C110.47 -26.2742 111.938 -26.1425 113.368 -25.8887C114.667 -25.6536 115.817 -25.2493 116.144 -23.6227C116.378 -22.4757 117.116 -21.432 117.565 -20.3225C118.509 -17.9626 120.089 -16.1385 122.033 -14.5025C123.015 -13.6751 123.94 -12.7725 125.071 -12.1425C125.735 -11.7664 126.455 -11.3809 127.352 -12.0767C127.156 -12.3494 127.034 -12.6973 126.791 -12.8571C125.333 -13.8161 123.921 -14.7752 123.052 -16.3736C122.706 -17.0129 121.837 -17.3608 121.416 -17.9814C120.416 -19.4763 119.313 -20.9807 118.687 -22.6355C118.004 -24.4501 117.687 -26.434 117.425 -28.3709C117.173 -30.2232 117.042 -32.113 117.631 -33.9653C117.836 -34.614 117.902 -35.3192 117.93 -36.0056C118.033 -38.3655 119.005 -40.434 120.108 -42.4461C120.556 -43.2547 121.388 -43.8377 121.519 -44.8625C121.547 -45.0788 121.837 -45.2574 121.958 -45.4831C122.622 -46.6208 124.202 -46.8464 124.651 -48.1721C125.071 -49.4226 126.539 -49.6201 127.146 -50.7014C127.287 -50.9458 127.726 -51.0304 128.034 -51.1715C129.212 -51.6792 130.418 -52.1399 131.568 -52.704C133.905 -53.8229 136.447 -54.2742 138.905 -54.9888C139.644 -55.2051 140.392 -55.3555 141.13 -55.5529C141.71 -55.7128 142.252 -55.882 142.887 -55.694C143.271 -55.5811 143.766 -55.5905 144.14 -55.7222C145.178 -56.0983 146.112 -56.1735 147.047 -55.4307C147.271 -55.2521 147.729 -55.2239 148.019 -55.3179C148.73 -55.5623 149.337 -55.4025 149.992 -55.1204C150.44 -54.923 151.02 -54.782 151.478 -54.876C152.992 -55.2145 154.319 -54.7631 155.628 -54.105C155.852 -53.9922 156.086 -53.7947 156.32 -53.7947C158.049 -53.7947 159.367 -52.8545 160.76 -51.9989C161.405 -51.604 162.209 -51.4818 162.891 -51.1527C163.414 -50.8988 164.125 -50.6073 164.293 -50.1654C164.845 -48.6893 166.032 -48.1157 167.191 -47.7208C167.696 -46.837 168.004 -46.0096 168.546 -45.3891C169.574 -44.2138 170.173 -42.8128 170.92 -41.4683C172.145 -39.2776 172.659 -36.8424 173.398 -34.5012C173.818 -33.1567 173.65 -31.6241 173.678 -30.1761C173.706 -28.982 173.594 -27.788 173.631 -26.6033C173.641 -26.3776 174.043 -26.0109 174.286 -25.9827C174.547 -25.9545 175.005 -26.2084 175.089 -26.434C175.959 -28.982 178.099 -30.0351 180.333 -31.0411C183.259 -32.3575 186.222 -32.1036 189.213 -31.389C189.868 -31.2292 190.494 -30.8813 191.092 -30.5616C191.7 -30.2419 192.223 -29.7436 192.85 -29.518C194.429 -28.9444 195.177 -27.7315 195.944 -26.3494C196.561 -25.2305 196.916 -24.0364 197.402 -22.8893C198.094 -21.2345 198.075 -19.4199 198.103 -17.6147C196.869 -16.5992 195.214 -17.0411 193.934 -16.2137C192.719 -15.4333 191.289 -14.982 189.812 -14.3239C188.709 -15.1419 187.465 -15.9128 186.391 -16.8719C184.39 -18.6677 181.913 -19.5703 179.455 -20.2755C176.763 -21.0465 173.921 -20.7832 171.248 -19.8336C167.481 -18.4985 164.396 -16.1855 161.863 -13.1392C161.433 -12.6314 161.18 -11.9827 160.844 -11.3998C158.535 -11.9357 156.264 -12.4622 153.992 -12.9981C151.328 -13.6281 148.617 -13.4494 145.935 -13.252C143.177 -13.0545 140.84 -11.616 138.391 -10.4971C138.083 -10.3561 137.821 -10.121 137.503 -9.98001C135.316 -8.98336 133.447 -7.59181 132.054 -5.64553C130.96 -4.12236 129.595 -2.77784 128.819 -1.03841C128.614 -0.577698 128.128 -0.15461 128.109 0.2967C128.044 1.68824 126.903 2.76013 127.025 4.22688C127.09 5.05429 126.688 5.90989 126.688 6.74669C126.679 8.19465 126.735 9.652 126.913 11.0906C127.137 12.877 127.464 14.654 127.847 16.4123C128.408 18.9979 129.951 21.0758 131.652 23.0597C131.885 23.3324 131.923 23.3041 133.241 23.2571C132.96 22.599 132.802 21.9314 132.437 21.4049C130.567 18.6688 130.081 15.519 129.511 12.4069C129.221 10.8085 130.053 6.65265 130.941 5.26112C131.502 4.3679 130.923 3.5969 131.026 2.64727C131.914 1.64123 132.867 0.625805 133.418 -0.793941C133.886 -1.98803 135.036 -2.9847 136.026 -3.92492C137.12 -4.97798 138.083 -6.13447 139.41 -7.01829C141.56 -8.45684 143.953 -9.21841 146.318 -10.0646C147.402 -10.4595 148.664 -10.7604 149.917 -10.2997C150.3 -10.1586 150.814 -10.1586 151.207 -10.2715C154.03 -11.1459 156.497 -10.0176 158.993 -9.01157C159.713 -8.7201 160.414 -8.37222 161.124 -8.04313C161.442 -7.8927 161.816 -7.79868 162.05 -7.57302C164.592 -5.11902 167.443 -2.92829 169.107 0.2967C169.369 0.795021 169.397 0.776234 170.21 1.02069C170.584 0.475361 170.173 0.0522499 169.976 -0.399063C169.584 -1.34869 169.182 -2.30773 168.752 -3.24796C167.817 -5.32587 166.583 -7.13111 164.508 -8.3064C163.704 -8.75771 163.05 -9.49107 162.246 -10.168C163.125 -11.6912 164.34 -12.7537 165.574 -13.7785C166.303 -14.3897 167.125 -14.8786 167.92 -15.4239C168.63 -15.9129 169.313 -16.477 170.257 -16.4488C170.341 -16.4488 170.453 -16.4676 170.509 -16.5146C172.295 -18.1318 174.631 -17.5206 176.697 -17.972C177.408 -18.1224 178.221 -17.8403 178.978 -17.7181C182.128 -17.2292 184.596 -15.5179 186.802 -13.3742C187.026 -13.1486 187.101 -12.7819 187.279 -12.4246C184.072 -9.9236 181.427 -6.98066 179.296 -3.61463C177.679 -1.05721 176.417 1.70706 175.837 4.65938C175.361 6.59626 174.585 8.59895 175.286 11.1Z" fill="url(#paint2_linear_3398_4412)"/>
<path opacity="0.6" d="M276.708 109.797C277.619 110.556 278.347 111.168 279.065 111.77C279.14 111.833 279.205 111.96 279.28 111.96C280.929 111.928 281.969 112.941 282.933 114.049C283.812 115.062 285.044 115.632 285.804 116.856C286.533 118.027 288.129 118.639 288.247 120.286C289.383 121.267 289.876 122.639 290.572 123.894C291.044 124.739 291.344 125.646 291.226 126.902C290.776 126.67 290.422 126.596 290.229 126.374C289.019 125.002 287.508 123.873 286.758 122.122C286.587 121.721 286.126 121.425 285.751 121.14C285.451 120.908 284.937 120.866 284.765 120.581C283.608 118.629 281.647 117.553 279.976 116.139C279.247 115.526 278.712 114.682 278.112 113.923C277.426 113.047 276.58 112.424 275.422 112.414C274.415 112.403 273.472 112.319 272.669 111.643C272.594 111.58 272.497 111.485 272.422 111.496C270.74 111.77 269.262 110.852 267.708 110.715C265.962 110.556 264.269 110.24 262.576 109.881C262.49 109.86 262.383 109.733 262.319 109.754C260.84 110.261 259.373 110.873 257.862 109.839C256.351 110.187 254.851 110.546 253.33 110.873C252.676 111.01 252.001 111.105 251.326 111.137C249.976 111.189 248.808 111.675 247.983 112.677C247.008 113.87 245.83 114.64 244.308 114.83C243.462 114.936 242.894 115.347 242.326 115.917C240.612 117.626 238.866 119.294 237.141 120.982C236.873 121.246 236.637 121.562 236.466 121.89C235.448 123.947 234.462 126.015 233.455 128.084C233.412 128.168 233.348 128.253 233.337 128.348C233.069 130.236 232.576 132.136 232.641 134.014C232.673 135.08 232.694 136.072 232.437 137.095C232.319 137.56 232.073 138.056 232.148 138.499C232.598 141.221 232.812 143.986 233.733 146.614C233.862 146.972 234.162 147.289 234.194 147.648C234.441 150.349 236.037 152.438 237.43 154.623C238.255 155.91 239.219 157.113 240.355 158.696C239.508 158.611 238.93 158.728 238.651 158.495C237.698 157.683 236.701 156.86 236.005 155.847C234.976 154.338 234.248 152.649 233.316 151.077C232.383 149.515 231.387 147.996 231.055 146.202C230.626 146.139 230.326 146.012 230.058 146.065C227.058 146.635 224.348 147.89 221.809 149.526C221.423 149.779 221.144 150.222 220.844 150.592C220.298 151.257 219.741 151.921 219.248 152.628C218.605 153.567 217.737 154.412 217.759 155.678C217.759 155.857 217.662 156.058 217.566 156.216C216.248 158.453 215.659 160.796 216.43 163.371C216.526 163.708 216.366 164.12 216.312 164.5C216.269 164.785 216.141 165.069 216.151 165.354C216.162 166.389 217.362 167.127 216.88 168.32C216.494 169.28 216.805 170.177 217.298 171.074C217.566 171.549 217.555 172.182 217.684 172.741C217.748 173.015 217.78 173.374 217.962 173.543C218.787 174.313 219.912 174.841 219.955 176.17C220.951 176.677 221.348 177.722 222.076 178.471C222.484 178.882 222.955 179.262 223.469 179.526C224.755 180.191 226.094 180.782 227.401 181.426C228.612 182.016 229.737 182.861 231.012 183.188C232.544 183.589 234.001 184.528 235.812 183.705C236.691 183.304 237.923 183.61 238.983 183.705C240.291 183.831 241.512 183.768 242.701 182.85C242.123 181.658 241.641 180.412 240.955 179.283C239.583 177.025 238.908 174.577 238.523 172.023C238.469 171.665 238.48 171.665 239.423 171.126C240.044 172.414 240.816 173.648 241.244 174.999C242.187 177.933 243.88 180.486 245.24 183.209C245.615 183.958 246.344 184.517 246.848 185.203C248.273 187.134 250.051 188.759 251.573 190.606C252.58 191.83 254.09 192.695 255.473 193.582C257.09 194.616 258.762 195.576 260.487 196.41C261.205 196.758 262.19 196.526 262.962 196.811C263.658 197.064 264.172 197.877 264.869 198.045C265.769 198.267 266.776 198.098 268.094 198.098C268.469 198.351 269.101 199.027 269.862 199.238C270.655 199.449 271.576 199.122 272.433 199.174C273.665 199.259 274.983 198.763 276.13 199.628C276.322 199.776 276.74 199.85 276.933 199.744C278.851 198.773 281.262 199.438 283.019 197.877C283.394 197.539 284.112 197.539 284.679 197.476C286.544 197.275 288.301 196.874 289.619 195.376C289.919 195.038 290.433 194.837 290.883 194.711C291.515 194.531 291.89 194.225 292.062 193.592C292.287 192.759 292.919 192.358 293.733 192.136C295.169 191.746 296.497 191.229 297.237 189.793C297.44 189.403 297.965 189.16 298.329 188.844C298.629 188.591 299.079 188.379 299.176 188.063C300.097 185.182 302.861 183.715 304.447 181.362C304.651 181.056 304.747 180.666 304.865 180.307C305.111 179.537 305.572 178.956 306.311 178.597C307.211 178.872 307.211 179.653 307.04 180.254C306.44 182.333 306.579 184.718 304.661 186.29C304.094 187.81 303.054 188.844 301.565 189.561C300.997 189.836 300.429 190.448 300.226 191.028C299.615 192.769 298.34 193.888 296.904 194.901C296.754 195.006 296.69 195.217 296.594 195.376C297.312 196.093 298.019 196.832 298.758 197.539C299.412 198.151 300.129 198.615 301.104 198.278C302.047 197.961 302.797 198.267 303.515 198.89C303.869 199.196 304.383 199.597 304.758 199.533C307.276 199.122 309.697 200.304 312.204 199.924C314.197 199.618 316.233 199.544 318.194 198.974C319.115 198.7 320.229 198.858 321.033 198.425C324.622 196.494 328.736 195.661 332.036 193.17C333.193 192.294 334.404 191.482 335.518 190.564C336.493 189.762 337.447 189.023 338.583 188.401C339.9 187.683 341.111 186.638 341.99 185.319C342.225 184.961 342.718 184.771 343.265 184.37C343.575 185.963 342.118 186.438 341.711 187.44C341.325 188.379 340.522 189.171 339.815 189.973C339.076 190.817 338.24 191.587 337.393 192.442C338.775 192.949 339.922 193.392 341.09 193.772C341.54 193.919 342.033 194.004 342.515 194.014C343.972 194.046 345.45 193.898 346.843 194.5C349.565 194.13 352.19 195.418 354.922 194.975C355.2 194.932 355.565 195.112 355.768 194.996C356.679 194.458 357.525 194.035 358.725 194.152C359.732 194.247 360.804 193.761 361.822 193.466C362.272 193.339 362.657 193.012 363.097 192.822C363.9 192.495 364.8 192.326 365.507 191.872C366.225 191.408 366.825 190.88 367.704 190.564C368.915 190.131 369.975 189.266 371.09 188.601C370.897 188.274 370.832 188 370.704 187.968C369.965 187.767 368.99 187.852 368.497 187.409C366.943 185.995 364.897 185.488 363.215 184.359C362.915 184.159 362.765 183.758 362.529 183.452C362.24 183.072 362.025 182.502 361.65 182.365C360.032 181.805 359.422 180.381 358.415 179.231C357.483 178.154 356.433 177.173 355.64 175.97C355.211 175.326 355.222 174.725 355.661 173.912C356.143 174.144 356.786 174.239 357.086 174.619C359.411 177.584 362.668 179.389 365.765 181.362C368.54 183.135 371.657 184.348 374.84 185.203C376.854 185.752 378.997 185.942 381.129 185.9C382.875 185.868 384.632 186.047 386.368 185.689C387.032 185.551 387.739 185.499 388.318 185.203C388.993 184.866 389.572 184.813 390.268 185.066C390.622 185.193 391.104 185.298 391.404 185.161C392.089 184.834 392.657 184.285 393.343 183.958C393.932 183.673 394.618 184.338 395.293 183.789C396.857 182.523 399 182.143 400.35 180.529C400.468 180.391 400.671 180.275 400.854 180.233C402.664 179.874 403.5 178.334 404.518 177.12C405.482 175.959 405.954 174.45 407.143 173.395C407.454 173.121 407.454 172.509 407.561 172.034C407.732 171.285 407.668 170.409 408.054 169.797C409.307 167.771 409.457 165.46 409.95 163.244C410.068 162.706 410.057 162.104 409.993 161.556C409.821 160.015 409.779 158.485 410.293 157.134C409.746 155.161 408.504 153.567 408.461 151.573C408.45 151.235 408.171 150.845 407.904 150.581C406.789 149.494 405.921 148.27 405.204 146.909C405.011 146.529 404.561 146.17 404.154 146.033C403.007 145.653 402.225 144.862 401.304 144.155C399.782 142.994 397.939 142.245 396.236 141.327C395.936 141.158 395.636 140.989 395.357 140.841C395.464 140.578 395.507 140.451 395.529 140.451C397.618 140.694 399.761 140.609 401.668 141.844C402.611 142.456 403.811 142.678 404.796 143.036C405.482 142.699 405.579 142.192 405.418 141.749C405 140.557 405.514 139.28 404.839 138.077C404.325 137.169 404.196 136.04 403.039 135.607C402.954 135.576 402.857 135.502 402.814 135.428C402.161 134.468 401.657 133.37 400.843 132.579C400.039 131.798 398.893 131.387 397.982 130.701C397.607 130.416 397.382 129.983 396.804 130.004C396.536 130.015 396.129 129.92 396.021 129.73C394.929 127.904 393.172 128.031 391.404 128.115C390.932 128.136 390.268 128.305 390 128.063C388.747 126.955 387.386 127.567 386.079 127.735C384.547 127.925 383.036 128.337 381.504 128.537C380.464 128.675 379.672 129.139 378.964 129.825C378.064 133.138 378.032 136.789 375.107 139.311C374.507 138.784 374.443 138.172 374.647 137.475C375 136.272 375.365 135.08 375.675 133.866C376.35 131.239 376.672 128.601 376.297 125.878C376.115 124.57 376.082 123.24 375.857 121.921C375.365 119.04 373.811 116.782 372.075 114.566C371.55 113.901 371.207 113.036 370.565 112.551C368.872 111.274 367.147 109.987 365.261 109.005C363.654 108.172 361.832 107.823 359.947 107.887C358.211 107.95 356.465 107.823 354.718 107.834C353.968 107.834 353.208 107.961 352.275 108.045C352.586 109.438 352.843 110.63 353.111 111.823C353.518 113.595 353.979 115.358 354.322 117.141C354.504 118.08 354.708 119.104 354.504 120.001C353.979 122.312 354.654 124.813 353.379 126.997C353.24 127.229 353.058 127.44 352.908 127.651C352.179 127.588 352.275 126.976 352.083 126.606C351.9 126.269 351.729 125.889 351.708 125.52C351.6 124 351.633 122.459 351.44 120.95C351.225 119.357 351.343 117.742 350.893 116.149C350.508 114.788 350.604 113.289 350.347 111.875C350.175 110.957 349.95 109.902 349.361 109.248C348.665 108.478 348.225 107.676 348.043 106.747C347.679 104.9 346.404 103.507 345.643 101.861C345.386 101.302 344.679 100.954 344.197 100.489C343.125 99.4448 341.283 99.1494 340.993 97.3344C339.675 96.8595 339.097 95.8043 338.701 94.5802C338.626 94.3481 338.304 94.1792 338.068 93.9998C336.258 92.5964 334.501 91.1402 332.154 90.5387C331.083 90.2643 330.097 89.4729 329.197 88.7659C328.329 88.0905 327.493 87.584 326.336 87.4996C325.179 87.4258 324.022 87.1831 323.111 86.3178C322.854 86.0751 322.426 85.8851 322.061 85.864C320.122 85.7479 318.247 85.252 316.254 85.2731C314.519 85.2836 312.804 86.0223 311.058 85.4947C309.419 84.9987 307.769 85.3786 306.129 85.4103C305.261 85.4208 304.458 85.4208 303.665 86.054C303.14 86.4655 302.176 86.2861 301.458 86.5288C299.369 87.2569 297.269 87.985 295.244 88.882C293.926 89.4729 292.619 90.2221 291.526 91.1507C290.487 92.0371 289.554 92.9657 288.172 93.3245C287.84 93.4089 287.519 93.7677 287.315 94.0737C286.597 95.1395 285.687 95.9203 284.508 96.5218C283.876 96.8489 283.447 97.6087 283.019 98.2313C282.537 98.9383 282.301 99.8669 281.701 100.447C279.162 102.874 278.23 106.146 276.783 109.153C276.687 109.332 276.73 109.543 276.708 109.797Z" fill="url(#paint3_linear_3398_4412)"/>
<g clip-path="url(#clip1_3398_4412)">
<path d="M281.876 326.195C285.211 309.159 309.371 316.542 306.665 331.328C306.52 343.051 306.639 354.787 306.625 366.524C304.919 377.076 283.96 376.321 281.85 366.51C281.876 353.054 281.797 339.638 281.876 326.201V326.195Z" fill="#155248"/>
<path d="M127.875 272.349C128.523 272.038 129.827 271.436 130.482 271.125C190.162 271.595 249.855 271.582 309.528 271.138C310.765 272.104 311.949 273.13 313.147 274.175C313.107 316.231 313.12 358.273 313.12 400.329C297.481 400.382 281.848 400.342 266.222 400.356L264.945 400.303C263.893 374.72 266.798 348.423 263.867 323.224C255.895 306.016 234.559 303.661 222.406 290.43C214.633 289.378 209.003 300.677 201.448 303.026C192.656 308.213 179.557 311.659 177.129 323.058C175.759 331.341 176.507 339.862 176.361 348.264C176.295 365.61 176.401 382.976 176.348 400.349C159.782 400.336 143.223 400.376 126.684 400.428C125.288 358.174 123.661 313.697 127.869 272.356L127.875 272.349ZM142.8 316.919C138.659 318.037 134.881 321.623 134.676 326.088C131.639 336.614 133.088 357.202 134.676 367.82C133.935 371.022 137.699 372.014 139.988 372.993C144.143 375.375 148.47 375.388 152.949 373.033C155.681 373.291 158.42 370.559 158.148 367.82C161.185 357.281 159.723 336.667 158.148 326.101C157.943 321.623 154.166 318.037 150.024 316.919C149.436 314.537 143.382 314.537 142.807 316.919H142.8ZM281.875 326.194C279.189 336.025 279.963 356.335 281.848 366.503C283.959 376.308 304.917 377.069 306.624 366.517C309.852 358.273 308.059 339.584 306.664 331.321C309.369 316.535 285.209 309.152 281.875 326.187V326.194Z" fill="#F8E9D8"/>
<path d="M208.508 53.4832C213.913 47.5953 228.633 42.8915 232.47 52.5305C224.941 53.9132 215.878 55.8516 213.417 64.1477C213.403 65.881 213.364 69.3542 213.35 71.0875C215.732 74.2167 218.378 77.1938 221.739 79.3703C223.459 79.3703 226.912 79.3835 228.639 79.3835C233.733 77.1408 237.352 72.834 241.48 69.2748C249.657 76.0492 238.483 87.157 231.193 89.5518C229.684 88.93 226.006 87.7524 225.993 90.4383C223.413 97.9802 232.688 99.7003 235.513 105.158C235.175 108.638 236.426 110.953 239.277 112.098C272.62 125.462 305.249 143.198 331.453 168.04C328.708 170.647 326.009 173.313 323.402 176.078C296.9 153.386 266.798 134.803 234.183 122.286C228.646 119.653 222.229 120.672 216.341 120.374C215.805 120.374 214.74 120.361 214.204 120.361C188.575 125.925 165.843 140.525 143.74 154.147C119.07 172.691 92.7071 195.138 86.2369 226.84C85.6878 229.943 85.1718 233.079 84.6756 236.241C74.8447 245.615 65.596 255.598 55.6593 264.88C55.4013 264.265 54.8787 263.041 54.6074 262.446C56.9891 250.961 70.0947 246.674 75.718 239.251C75.976 234.17 76.1348 229.222 75.7048 224.207C80.1306 198.472 98.4428 177.097 118.032 160.948C143.105 138.534 173.332 123.02 204.386 110.702C205.352 103.24 210.327 98.2646 217.254 95.6316C217.254 93.9909 217.24 90.7095 217.24 89.0688C203.46 83.7697 196.011 64.3064 208.501 53.4832H208.508ZM215.765 104.814C209.255 112.409 222.315 107.937 225.966 108.38C226.449 102.975 218.477 104.682 215.765 104.814Z" fill="#1F0D08"/>
<path d="M217.244 89.0691C217.244 90.7098 217.257 93.9912 217.257 95.6319C216.034 93.6141 216.034 91.0472 217.244 89.0691Z" fill="#938882"/>
<path d="M225.998 90.4512C226.011 87.7652 229.683 88.9428 231.198 89.5647C229.676 90.6033 227.771 90.8812 225.998 90.4512Z" fill="#8F827A"/>
<path d="M215.763 104.814C218.469 104.682 226.441 102.975 225.964 108.38C222.319 107.937 209.253 112.402 215.763 104.814Z" fill="#ECE7E4"/>
<path d="M143.752 154.154C165.855 140.532 188.58 125.932 214.216 120.368C215.777 126.031 204.656 126.567 201.136 130.589C193.138 132.752 186.331 137.675 179.358 141.975C164.069 149.662 150.52 160.068 137.289 170.852C127.716 179.485 117.581 187.643 110.078 198.254C101.729 209.494 94.5515 222.348 92.9769 236.506C90.9062 237.095 88.7958 237.664 86.6325 237.525C86.434 233.946 86.3083 230.373 86.2422 226.847C92.7123 195.145 119.076 172.704 143.746 154.154H143.752Z" fill="#F8F6F4"/>
<path d="M214.226 120.007C214.761 120.007 215.826 120.02 216.362 120.02C232.134 130.347 251.994 134.23 266.483 147.018C268.031 151.967 267.369 155.328 261.494 153.766C259.841 148.282 252.166 146.774 247.78 150.029C241.244 154.507 236.11 160.666 230.487 166.191C231.922 183.682 208.166 169.551 199.671 175.737C195.801 184.8 182.768 175.333 177.661 182.445C175.186 187.5 168.061 183.669 163.986 185.608C155.73 193.097 149.683 205.289 136.114 200.896C137.583 205.951 135.909 210.549 131.179 213.01C137.55 223.628 120.316 220.174 126.905 229.615C115.407 230.68 104.2 233.525 93 236.138C94.5745 221.981 101.753 209.126 110.102 197.886C110.717 198.303 111.941 199.163 112.549 199.593C113.449 206.85 120.673 201.637 122.784 197.82C124.1 197.496 125.417 197.185 126.753 196.92C135.466 196.609 139.283 187.228 144.271 181.605C152.071 173.514 159.626 165.026 168.663 158.278C178.938 148.328 191.653 140.985 201.146 130.221C204.666 126.199 215.787 125.663 214.226 120V120.007ZM105.001 212.56C102.54 216.192 98.1338 222.225 103.79 225.196C110.485 225.692 115.606 209.603 105.001 212.56Z" fill="#449386"/>
<path d="M216.348 120.381C222.236 120.679 228.653 119.666 234.19 122.293C266.805 134.81 296.907 153.393 323.409 176.085C339.65 192.406 357.354 212.921 354.761 237.61C335.787 233.674 316.846 228.818 297.363 227.336C313.968 197.156 292.282 163.568 266.468 147.379C251.986 134.591 232.119 130.708 216.348 120.381Z" fill="#155248"/>
<path d="M179.358 141.974C186.325 137.674 193.139 132.752 201.137 130.589C191.644 141.346 178.928 148.696 168.654 158.646C156.971 151.276 181.078 150.469 179.358 141.974Z" fill="#61B4A6"/>
<path d="M137.288 170.852C150.519 160.069 164.068 149.662 179.357 141.975C181.077 150.469 156.969 151.276 168.653 158.646C159.616 165.394 152.061 173.882 144.261 181.973C139.272 187.603 135.455 196.978 126.742 197.288C126.206 188.496 132.214 181.556 138.267 175.993C140.417 174.544 140.754 170.356 137.288 170.846V170.852Z" fill="#449386"/>
<path d="M266.475 147.019C292.289 163.207 313.975 196.801 297.37 226.976C292.289 226.804 287.221 226.651 282.167 226.506C276.762 225.606 271.344 225.672 265.939 225.752C262.161 225.454 258.529 225.441 254.818 225.189C232.543 223.469 210.003 223.575 187.728 225.031C185.347 225.289 182.959 225.54 180.577 225.758C175.575 225.705 170.6 225.93 165.652 226.433C152.679 226.837 139.771 228.113 126.891 229.609C120.302 220.168 137.529 223.615 131.164 213.003C135.895 210.542 137.575 205.944 136.1 200.89C149.668 205.276 155.715 193.09 163.972 185.601C168.047 183.663 175.172 187.487 177.646 182.439C182.753 175.327 195.786 184.794 199.656 175.731C208.151 169.545 231.908 183.676 230.472 166.184C236.096 160.66 241.229 154.501 247.766 150.022C248.103 156.664 257.14 157.551 261.48 153.76C267.355 155.321 268.016 151.96 266.468 147.012L266.475 147.019Z" fill="#36766B"/>
<path d="M247.764 150.39C252.15 147.135 259.824 148.643 261.478 154.128C257.138 157.918 248.101 157.032 247.764 150.39Z" fill="#155248"/>
<path d="M323.415 176.085C326.021 173.327 328.714 170.654 331.466 168.047C348.634 182.417 361.799 202.303 366.853 224.208C366.721 228.687 366.622 233.324 366.681 237.856C364.756 244.743 374.468 243.089 377.035 247.859C392.661 257.782 386.164 280.514 374.183 290.775C371.941 302.782 373.065 315.444 373.31 327.723C374.719 333.545 383.836 335.457 383.948 342.635C383.273 362.852 383.088 383.116 383.763 403.327C381.09 409.473 374.567 412.873 368.21 413.905C335.872 412.913 303.475 413.29 271.125 413.647C269.014 413.687 264.82 413.766 262.709 413.806C211.365 412.827 159.981 413.621 108.631 413.389C95.9153 413.284 83.2199 413.244 70.5178 413.687C64.2527 412.45 57.7826 408.527 56.2147 401.951C56.605 382.633 56.8167 363.309 56.2015 344.017C56.5653 337.805 62.2085 334.286 66.8924 331.19C69.5387 319.103 68.6257 304.76 67.2033 292.038C63.6375 285.892 57.604 281.096 55.9369 273.971C56.5389 271.404 58.6426 268.149 55.9104 266.131L55.6523 264.881C65.5891 255.592 74.8378 245.616 84.6687 236.242C85.1649 236.553 86.1373 237.194 86.6203 237.518C88.7836 237.664 90.894 237.089 92.9647 236.5C104.165 233.88 115.365 231.042 126.87 229.977C139.751 228.481 152.658 227.205 165.631 226.801C170.606 226.894 175.581 226.669 180.556 226.126C182.938 225.908 185.326 225.657 187.708 225.399C210.055 226.014 232.436 226.1 254.797 225.557C258.509 225.802 262.141 225.815 265.918 226.12C271.27 226.9 276.715 226.914 282.146 226.874C287.201 227.019 292.268 227.172 297.349 227.344C316.832 228.826 335.773 233.688 354.747 237.618C357.34 212.921 339.637 192.406 323.395 176.092L323.415 176.085ZM185.485 237.525C181.707 237.512 177.837 237.525 174.112 237.929C169.356 238.293 160.372 235.322 158.129 238.868C153.061 239.113 147.511 237.968 142.84 240.377C134.478 240.661 125.898 241.382 117.727 243.426C116.232 242.057 111.694 241.461 111.475 244.048C109.901 244.531 105.693 242.613 106.017 245.272C92.7332 247.614 76.9217 249.533 67.6333 260.422C62.8635 263.822 67.2033 277.199 70.8089 275.44C77.0871 272.264 83.6366 269.525 90.2655 267.349C100.44 267.792 110.205 264.378 115.054 254.871C121.253 248.11 131.064 246.721 139.764 246.655C141.418 246.628 143.059 246.47 144.699 246.159C193.543 247.111 242.446 246.774 291.316 246.331C295.12 246.827 298.871 246.549 302.767 246.575C308.589 249.063 315.364 247.29 320.947 250.598C330.626 253.244 331.989 267.97 343.56 265.721C353.668 266.985 362.771 271.741 371.564 276.518C374.481 272.271 377.597 266.111 373.892 261.408C366.939 252.629 355.084 250.234 344.797 247.468C329.753 245.1 315.02 238.987 299.579 240.502C297.091 236.738 290.72 239.993 287.075 238.875C285.706 234.356 274.869 239.464 271.105 237.896C266.91 237.36 262.584 237.426 258.416 237.518L258.39 236.281C234.514 237.022 207.27 234.535 185.478 237.518L185.485 237.525ZM132.11 257.101L132.057 258.364C126.103 258.702 119.255 262.909 117.754 268.771L116.49 268.85C116.411 312.679 116.411 356.521 116.49 400.343L117.78 400.357C134.266 402.533 159.849 402.56 176.349 400.343C178.565 386.014 178.565 362.588 176.362 348.258C176.507 339.856 175.76 331.342 177.129 323.052C179.551 311.654 192.656 308.207 201.448 303.02C209.004 300.678 214.627 289.372 222.407 290.424C234.56 303.655 255.895 306.017 263.867 323.218C264.052 348.496 262.107 377.228 264.946 400.297L266.222 400.35L266.275 401.574C284.938 401.064 307.147 403.228 323.441 400.35C323.646 356.964 323.6 313.579 323.441 270.207C322.019 262.168 314.126 258.12 306.651 258.351C305.228 255.149 297.978 258.054 294.888 257.127C240.626 256.995 186.351 257.088 132.11 257.088V257.101ZM102.425 276.141C95.0156 279.124 82.3267 278.159 79.9848 287.017C76.0352 292.918 80.1568 306.255 78.655 314.393C78.9792 316.033 77.3782 331.765 80.9374 326.506C88.6116 328.147 88.9358 319.89 87.9302 314.393C86.3425 306.368 95.9815 291.271 103.768 301.002L102.624 301.042C98.3366 301.34 95.1479 306.93 95.8888 310.952C95.1743 315.16 95.7433 319.275 95.6838 323.575C99.2033 323.496 102.597 322.523 106.051 321.882C108.525 310.615 108.029 287.275 106.037 275.373C103.642 274.771 102.432 275.036 102.432 276.141H102.425ZM334.066 275.413C333.702 284.854 333.987 294.327 333.881 303.808C334.609 303.589 336.057 303.119 336.785 302.895C331.274 311.945 332.644 325.494 345.604 323.535C345.915 315.266 348.197 302.451 337.486 300.222C343.149 292.171 352.451 300.05 353.9 307.453C353.794 312.884 351.584 321.855 354.826 324.786C355.177 326.281 356.533 326.83 358.888 326.426C357.439 328.252 363.744 328.094 362.599 326.102C361.819 312.725 364.386 295.518 361.27 284.543C355.554 279.422 344.327 278.423 336.21 276.207C335.674 276.008 334.595 275.605 334.06 275.413H334.066ZM188.032 332.632L186.821 332.672C187.562 354.788 185.048 380.344 188.098 400.35L188.124 401.587C209.017 401.051 233.137 403.267 251.893 400.363C254.122 379.418 254.069 349.714 251.919 328.715C246.984 316.371 230.809 310.271 219.489 305.309C209.526 314.26 186.954 315.941 188.032 332.632ZM66.985 348.351L65.7214 348.258C66.3565 363.898 63.9484 382.851 66.9453 396.46C66.6608 398.154 67.6069 400.482 69.6313 400.357C73.6668 403.876 88.8696 401.726 92.9846 400.383C96.5637 389.117 94.2482 367.417 93.0243 356.058C93.2558 353.154 90.3912 351.566 88.777 349.601C94.923 342.933 101.254 352.009 102.637 358.208C102.326 371.764 100.619 388.878 103.444 400.343C104.079 400.343 105.369 400.357 106.024 400.357C108.419 381.33 108.095 352.988 106.024 333.929C93.752 338.904 73.9182 335.245 66.9916 348.344L66.985 348.351ZM333.934 387.33C335.786 390.863 329.925 402.751 337.844 400.343C341.648 389.117 338.075 370.414 338.757 356.945C340.477 353.18 342.415 349.429 345.597 346.71C355.785 345.744 349.924 352.856 347.006 357.454C344.181 364.943 345.194 383.401 346.953 391.253C346.901 392.868 346.993 394.495 347.225 396.122C344.023 407.845 366.582 400.132 370.432 400.357C370.757 400.032 371.412 399.377 371.736 399.04C374.197 384.492 373.74 360.12 371.722 345.731C363.4 336.171 347.039 336.694 335.29 333.889C331.823 348.986 335.118 370.11 333.934 387.33Z" fill="#1A0803"/>
<path d="M110.078 198.254C117.58 187.636 127.715 179.485 137.288 170.852C140.755 170.355 140.411 174.55 138.267 175.999C132.214 181.562 126.207 188.502 126.743 197.294C125.4 197.552 124.083 197.87 122.774 198.194C122.707 195.773 125.056 192.558 122.615 190.811C117.197 189.521 115.232 196.474 112.533 199.967C111.917 199.537 110.693 198.677 110.085 198.26L110.078 198.254Z" fill="#6CABA1"/>
<path d="M112.533 199.96C115.232 196.467 117.197 189.514 122.615 190.804C125.05 192.551 122.708 195.766 122.774 198.187C120.664 202.005 113.433 207.211 112.54 199.96H112.533Z" fill="#E9ECEC"/>
<path d="M104.992 212.92C115.597 209.963 110.476 226.052 103.781 225.556C98.1316 222.586 102.531 216.559 104.992 212.92Z" fill="#E1E1E8"/>
<path d="M75.7258 239.257C74.8525 234.256 74.5548 229.162 75.7125 224.213C76.1426 229.228 75.9838 234.177 75.7258 239.257Z" fill="#655A51"/>
<path d="M187.721 225.398C209.996 223.943 232.535 223.837 254.81 225.557C232.449 226.106 210.068 226.014 187.721 225.398Z" fill="#65514A"/>
<path d="M165.643 226.8C170.591 226.291 175.566 226.073 180.568 226.126C175.593 226.675 170.618 226.893 165.643 226.8Z" fill="#493832"/>
<path d="M265.938 226.113C271.343 226.033 276.761 225.967 282.166 226.867C276.734 226.907 271.29 226.893 265.938 226.113Z" fill="#46362C"/>
<path d="M84.6816 236.248C85.1778 233.085 85.7005 229.943 86.243 226.847C86.3091 230.379 86.4414 233.945 86.6333 237.524C86.1503 237.2 85.1778 236.559 84.6816 236.248Z" fill="#584541"/>
<path d="M185.484 237.524C207.276 234.541 234.52 237.028 258.396 236.287L258.422 237.524C234.103 237.551 209.804 237.604 185.484 237.524Z" fill="#533E3A"/>
<path d="M158.129 238.861C160.372 235.321 169.356 238.285 174.112 237.921C168.787 238.51 163.474 238.9 158.129 238.861Z" fill="#5E4D48"/>
<path d="M174.113 237.928C177.838 237.524 181.708 237.511 185.486 237.524C209.805 237.604 234.104 237.551 258.423 237.524C262.591 237.432 266.918 237.366 271.112 237.901C276.372 238.589 281.73 238.907 287.083 238.881C290.728 239.999 297.099 236.744 299.586 240.508C300.38 242.645 301.425 244.716 302.775 246.575C298.878 246.548 295.127 246.819 291.323 246.33C242.546 244.636 193.458 244.894 144.707 246.158C143.066 246.469 141.425 246.627 139.771 246.654C142.193 245.404 142.517 242.797 142.848 240.376C147.525 237.968 153.069 239.112 158.137 238.867C163.475 238.907 168.788 238.517 174.12 237.928H174.113Z" fill="#9B8681"/>
<path d="M271.104 237.901C274.868 239.462 285.704 234.362 287.074 238.88C281.722 238.907 276.37 238.596 271.104 237.901Z" fill="#624E47"/>
<path d="M117.726 243.425C125.89 241.381 134.477 240.666 142.839 240.375C142.515 242.797 142.191 245.403 139.763 246.654C131.063 246.72 121.252 248.109 115.054 254.87C111.547 254.791 110.284 251.523 108.616 249.035C112.262 245.688 110.429 244.708 106.01 245.271C105.686 242.611 109.893 244.53 111.468 244.047C113.565 244.318 115.728 244.206 117.72 243.425H117.726Z" fill="#A998A0"/>
<path d="M299.576 240.509C315.024 239 329.757 245.106 344.794 247.475C355.082 250.234 366.937 252.635 373.89 261.414C377.588 266.118 374.479 272.277 371.561 276.524C362.769 271.741 353.666 266.991 343.557 265.727C331.993 267.983 330.623 253.25 320.945 250.604C315.354 247.296 308.587 249.069 302.765 246.582C301.409 244.716 300.37 242.645 299.576 240.515V240.509Z" fill="#71493E"/>
<path d="M111.475 244.047C111.693 241.454 116.231 242.056 117.726 243.425C115.735 244.206 113.572 244.325 111.475 244.047Z" fill="#605051"/>
<path d="M67.6321 260.422C76.9205 249.532 92.7319 247.62 106.016 245.272C110.429 244.709 112.268 245.689 108.623 249.036C102.973 250.769 97.1247 252.02 91.7329 254.521C82.0674 258.053 74.1088 265.641 70.8142 275.439C67.2087 277.199 62.8687 263.822 67.6386 260.422H67.6321Z" fill="#F4F1F1"/>
<path d="M144.697 246.158C193.448 244.895 242.536 244.637 291.314 246.33C242.444 246.774 193.541 247.111 144.697 246.158Z" fill="#745F5A"/>
<path d="M91.7297 254.521C97.1214 252.02 102.97 250.77 108.619 249.036C110.287 251.524 111.55 254.792 115.057 254.871C110.214 264.378 100.442 267.792 90.2676 267.349C90.5256 262.982 90.9027 258.781 91.723 254.521H91.7297Z" fill="#938385"/>
<path d="M70.8145 275.439C74.1091 265.641 82.0677 258.053 91.7332 254.52C90.9128 258.781 90.5357 262.988 90.2777 267.348C83.6488 269.524 77.0993 272.257 70.8211 275.439H70.8145Z" fill="#B9B3B7"/>
<path d="M132.11 257.1C186.358 257.1 240.633 257.007 294.888 257.139L294.901 258.39C240.613 258.376 186.332 258.429 132.057 258.363L132.11 257.1Z" fill="#9E8E8A"/>
<path d="M294.887 257.14C297.976 258.066 305.227 255.162 306.649 258.364C304.797 258.403 302.951 258.456 301.112 258.523C299.028 258.456 296.957 258.417 294.9 258.39L294.887 257.14Z" fill="#5D4642"/>
<path d="M117.756 268.77C119.251 262.909 126.105 258.701 132.059 258.364C186.334 258.43 240.622 258.377 294.904 258.391C296.961 258.417 299.032 258.457 301.116 258.523C307.46 264.331 298.225 262.102 293.587 262.314C240.966 262.949 188.206 260.957 135.691 263.306C131.94 264.206 125.946 268.089 127.878 272.356C123.67 313.697 125.298 358.175 126.694 400.429C124.464 400.416 120.012 400.376 117.782 400.363C117.729 356.494 117.769 312.632 117.756 268.777V268.77Z" fill="#FEFDFB"/>
<path d="M301.114 258.516C302.953 258.449 304.799 258.397 306.651 258.357C314.127 258.125 322.019 262.174 323.442 270.212C323.6 313.584 323.647 356.97 323.442 400.355C319.975 400.329 316.542 400.329 313.128 400.329C313.128 358.273 313.115 316.231 313.154 274.175C314.391 263.391 301.312 262.882 293.592 263.55V262.313C298.229 262.101 307.465 264.331 301.12 258.522L301.114 258.516Z" fill="#CBA093"/>
<path d="M54.6295 271.463C52.8168 268.883 53.0153 264.999 54.6163 262.452C54.8875 263.054 55.4101 264.278 55.6681 264.887L55.9262 266.137C55.4432 267.884 55.0132 269.67 54.6228 271.463H54.6295Z" fill="#1F0D08"/>
<path d="M135.688 263.299C188.203 260.957 240.963 262.949 293.584 262.307V263.544C240.949 263.438 188.309 264.001 135.688 263.299Z" fill="#D3CCC8"/>
<path d="M127.874 272.349C125.949 268.075 131.936 264.199 135.687 263.299C188.308 264 240.949 263.444 293.583 263.544C301.304 262.882 314.383 263.385 313.146 274.168C311.948 273.13 310.764 272.098 309.527 271.132C309.15 270.834 308.383 270.245 307.992 269.948C254.829 267.903 200.66 268.28 147.344 269.703C141.807 270.576 135.727 268.79 130.474 271.125C129.826 271.436 128.522 272.038 127.867 272.349H127.874Z" fill="#1A0704"/>
<path d="M55.9224 266.137C58.6547 268.155 56.5443 271.41 55.9489 273.977C55.6247 273.355 54.9433 272.092 54.6191 271.463C55.0095 269.664 55.4395 267.884 55.9224 266.137Z" fill="#2A1C17"/>
<path d="M116.489 268.85L117.753 268.771C117.766 312.626 117.726 356.495 117.779 400.356L116.489 400.343C116.41 356.514 116.41 312.672 116.489 268.85Z" fill="#CDBEB5"/>
<path d="M147.344 269.703C200.653 268.281 254.822 267.904 307.992 269.948C254.445 270.028 200.878 270.537 147.344 269.703Z" fill="#401F0E"/>
<path d="M130.482 271.125C135.729 268.796 141.815 270.576 147.352 269.703C200.886 270.536 254.453 270.027 308.001 269.947C308.391 270.245 309.158 270.834 309.535 271.132C249.855 271.575 190.162 271.588 130.489 271.118L130.482 271.125Z" fill="#E1C2AF"/>
<path d="M102.425 276.141C102.425 275.036 103.635 274.771 106.03 275.373C105.924 279.257 105.885 283.345 105.885 287.314C104.337 283.94 106.573 277.887 102.418 276.141H102.425Z" fill="#CEBDAF"/>
<path d="M106.03 275.372C108.021 287.274 108.517 310.614 106.043 321.88C106.043 314.994 105.758 308.193 105.719 301.326C105.851 296.582 106.109 291.998 105.891 287.314C105.891 283.344 105.93 279.249 106.036 275.372H106.03Z" fill="#523C31"/>
<path d="M334.064 275.412C334.6 275.611 335.678 276.014 336.214 276.206C334.964 284.436 335.003 292.825 335.275 301.161C335.824 300.929 336.928 300.459 337.491 300.221C348.195 302.451 345.919 315.265 345.608 323.535C332.648 325.486 331.279 311.944 336.79 302.894C336.062 303.112 334.613 303.582 333.885 303.807C333.991 294.327 333.7 284.853 334.07 275.412H334.064Z" fill="#36766B"/>
<path d="M79.9846 287.016C82.3266 278.157 95.0154 279.123 102.425 276.14C106.58 277.886 104.337 283.94 105.892 287.314C106.11 292.004 105.852 296.589 105.72 301.326C105.237 301.246 104.264 301.081 103.768 301.001C95.9813 291.27 86.3423 306.367 87.9301 314.391C88.9356 319.889 88.6048 328.145 80.9373 326.505C79.1511 313.399 80.1566 300.168 79.9846 287.016Z" fill="#FBF8F1"/>
<path d="M335.276 301.16C335.005 292.824 334.965 284.436 336.215 276.206C344.333 278.422 355.56 279.421 361.275 284.542C361.223 298.243 361.626 311.97 361.13 325.698C360.568 325.883 359.45 326.247 358.887 326.425C356.532 326.829 355.176 326.28 354.825 324.785C354.15 319.056 356.102 312.896 353.899 307.452C352.45 300.055 343.155 292.176 337.486 300.221C336.923 300.452 335.818 300.922 335.269 301.16H335.276Z" fill="#C59E91"/>
<path d="M361.275 284.542C364.391 295.524 361.824 312.725 362.605 326.102C363.749 328.093 357.444 328.252 358.893 326.426C359.456 326.241 360.574 325.877 361.136 325.699C361.632 311.971 361.229 298.244 361.282 284.542H361.275Z" fill="#77554B"/>
<path d="M78.6548 314.391C80.15 306.254 76.035 292.917 79.9846 287.016C80.1566 300.168 79.151 313.405 80.9372 326.505C77.3846 331.764 78.9856 316.032 78.6548 314.391Z" fill="#C2B5A1"/>
<path d="M67.2153 292.044C68.6376 304.766 69.5439 319.109 66.9043 331.196C67.0631 318.143 66.8249 305.084 67.2153 292.044Z" fill="#A2A5A1"/>
<path d="M95.8885 310.952C95.1476 306.93 98.3363 301.339 102.623 301.042C103.364 305.468 99.4213 309 95.8885 310.952Z" fill="#DEE4E6"/>
<path d="M102.617 301.041L103.761 301.001C104.258 301.081 105.23 301.246 105.713 301.326C105.753 308.193 106.037 314.987 106.037 321.88C102.584 322.516 99.1834 323.495 95.6705 323.574C95.7366 319.274 95.1611 315.159 95.8756 310.951C99.4083 309 103.351 305.467 102.61 301.041H102.617Z" fill="#449386"/>
<path d="M188.033 332.631C186.955 315.933 209.521 314.252 219.491 305.308C230.81 310.27 246.986 316.363 251.921 328.714C251.881 352.59 251.921 376.473 251.894 400.362C249.612 400.362 245.067 400.349 242.791 400.336C242.619 377.803 243.076 355.27 242.672 332.763C238.372 326.525 232.537 320.246 224.817 318.619C209.19 312.85 193.597 329.899 196.905 345.386C194.861 363.619 196.303 382.023 195.899 400.336C193.293 400.349 190.693 400.349 188.1 400.349C188.02 377.763 188.179 355.19 188.033 332.631Z" fill="#155248"/>
<path d="M353.9 307.452C356.103 312.897 354.144 319.056 354.826 324.785C351.584 321.854 353.794 312.883 353.9 307.452Z" fill="#896C61"/>
<path d="M142.799 316.919C143.374 314.537 149.428 314.537 150.017 316.919C147.608 317.038 145.2 317.038 142.799 316.919Z" fill="#817166"/>
<path d="M134.67 326.088C134.875 321.623 138.653 318.037 142.794 316.919C145.189 317.038 147.597 317.038 150.012 316.919C154.153 318.037 157.931 321.623 158.136 326.102C158.123 340.001 158.123 353.894 158.136 367.82C158.407 370.552 155.675 373.291 152.936 373.033C148.563 372.941 144.302 373.073 139.976 372.994C137.687 372.014 133.922 371.029 134.663 367.82C134.677 353.894 134.663 339.988 134.663 326.088H134.67Z" fill="#155248"/>
<path d="M196.903 345.379C193.595 329.892 209.188 312.843 224.814 318.612C221.612 325.162 211.074 322.793 208.05 330.401C203.088 342.045 209.115 356.473 205.417 368.249C191.18 374.164 199.152 352.438 196.896 345.379H196.903Z" fill="#449386"/>
<path d="M224.814 318.613C232.534 320.241 238.369 326.519 242.67 332.758C243.073 355.264 242.617 377.797 242.789 400.33C227.149 400.356 211.53 400.396 195.903 400.33C196.307 382.018 194.865 363.613 196.909 345.38C199.165 352.439 191.193 374.165 205.43 368.251C209.128 356.475 203.101 342.046 208.063 330.402C211.086 322.794 221.619 325.169 224.827 318.613H224.814Z" fill="#36766B"/>
<path d="M263.86 323.224C266.791 348.429 263.887 374.72 264.939 400.303C262.101 377.234 264.039 348.502 263.86 323.224Z" fill="#C4B5A5"/>
<path d="M134.669 367.82C133.082 357.202 131.633 336.614 134.669 326.088C134.669 339.988 134.683 353.894 134.669 367.82Z" fill="#46332B"/>
<path d="M158.141 326.101C159.715 336.666 161.177 357.281 158.141 367.82C158.128 353.894 158.128 340.001 158.141 326.101Z" fill="#77685F"/>
<path d="M281.849 366.504C279.964 356.329 279.19 336.025 281.876 326.194C281.796 339.637 281.876 353.054 281.849 366.504Z" fill="#BAAA9C"/>
<path d="M251.919 328.708C254.069 349.707 254.122 379.411 251.893 400.356C251.919 376.467 251.879 352.584 251.919 328.708Z" fill="#49291B"/>
<path d="M306.663 331.328C308.059 339.584 309.852 358.273 306.623 366.523C306.636 354.787 306.517 343.051 306.663 331.328Z" fill="#C2B2A5"/>
<path d="M186.822 332.665L188.032 332.625C188.178 355.184 188.019 377.757 188.099 400.343C185.049 380.337 187.563 354.781 186.822 332.665Z" fill="#3E231C"/>
<path d="M66.9835 348.351C73.9102 335.245 93.7505 338.91 106.016 333.935C106.029 356.065 106.042 378.207 106.016 400.363C105.368 400.363 104.078 400.35 103.436 400.35C102.993 386.325 104.441 372.128 102.629 358.215C101.246 352.016 94.9215 342.939 88.7689 349.608C81.6174 346.545 76.5763 352.016 75.5508 358.215C74.2343 369.951 74.4725 381.906 74.929 393.721C75.1274 398.035 79.3813 399.298 82.8876 400.171C78.4221 400.118 74.0557 400.39 69.6298 400.37C67.612 400.502 66.6594 398.167 66.9439 396.473C66.9703 380.424 66.9042 364.381 66.9835 348.357V348.351Z" fill="#FBF6ED"/>
<path d="M106.018 333.927C108.088 352.981 108.412 381.322 106.018 400.355C106.044 378.2 106.031 356.057 106.018 333.927Z" fill="#A39891"/>
<path d="M333.933 387.33C335.118 370.109 331.823 348.986 335.29 333.889C335.409 350.329 334.965 366.788 335.356 383.255C338.961 378.551 334.264 366.907 337.532 359.67C337.923 373.219 337.936 386.788 337.843 400.343C329.924 402.751 335.786 390.863 333.933 387.33Z" fill="#AB8374"/>
<path d="M335.29 333.889C347.04 336.687 363.4 336.171 371.723 345.731C371.776 363.481 371.71 381.264 371.736 399.04C371.412 399.377 370.757 400.032 370.433 400.357C366.893 400.33 363.374 400.33 359.881 400.37C368.322 391.75 364.697 378.048 364.803 367.186C368.097 355.893 358.24 340.174 345.591 346.71C342.415 349.429 340.47 353.18 338.75 356.945C338.453 357.633 337.837 358.989 337.527 359.664C334.258 366.908 338.962 378.551 335.35 383.248C334.96 366.782 335.403 350.322 335.284 333.882L335.29 333.889Z" fill="#C5A092"/>
<path d="M55.1835 392.517C55.7194 376.355 54.1184 360.087 56.2156 344.024C56.8308 363.315 56.6191 382.64 56.2288 401.957C55.7591 398.795 55.4085 395.639 55.1901 392.517H55.1835Z" fill="#766C64"/>
<path d="M345.59 346.709C358.239 340.173 368.096 355.892 364.802 367.185C364.696 378.048 368.321 391.749 359.88 400.369C355.361 399.899 347.7 402.724 347.217 396.122C346.986 394.494 346.893 392.867 346.946 391.253C347.052 379.96 346.92 368.72 346.999 357.453C349.916 352.855 355.778 345.743 345.59 346.709Z" fill="#B98A7B"/>
<path d="M65.7212 348.257L66.9848 348.35C66.9054 364.373 66.9716 380.416 66.9451 396.465C63.9482 382.857 66.3563 363.903 65.7212 348.264V348.257Z" fill="#604A3E"/>
<path d="M176.362 348.257C178.565 362.587 178.565 386.013 176.349 400.342C176.402 382.969 176.296 365.603 176.362 348.257Z" fill="#312315"/>
<path d="M75.5527 358.208C76.5848 352.009 81.6193 346.538 88.7708 349.601C90.385 351.566 93.2497 353.154 93.0181 356.058C92.9916 370.818 93.0313 385.597 92.9784 400.383C89.5912 400.29 86.2304 400.211 82.8829 400.165C79.3766 399.291 75.1227 398.028 74.9242 393.714C74.4678 381.899 74.2362 369.944 75.5461 358.208H75.5527Z" fill="#F3DECB"/>
<path d="M93.0163 356.058C94.2402 367.417 96.5556 389.116 92.9766 400.383C93.0295 385.597 92.9898 370.817 93.0163 356.058Z" fill="#AB917F"/>
<path d="M337.533 359.669C337.844 358.995 338.459 357.638 338.757 356.95C338.082 370.42 341.648 389.122 337.844 400.349C337.937 386.794 337.924 373.218 337.533 359.676V359.669Z" fill="#5A3525"/>
<path d="M346.946 391.253C345.186 383.4 344.174 364.942 346.998 357.453C346.919 368.72 347.051 379.96 346.946 391.253Z" fill="#58372A"/>
<path d="M102.631 358.208C104.443 372.121 102.995 386.318 103.438 400.343C100.613 388.885 102.32 371.77 102.631 358.208Z" fill="#7C7169"/>
<path d="M139.988 372.993C144.315 373.073 148.569 372.941 152.948 373.033C148.47 375.388 144.143 375.375 139.988 372.993Z" fill="#C5B5AD"/>
<path d="M37.0028 408.076C36.7977 398.384 48.0708 395.639 55.1826 392.51C55.401 395.632 55.7582 398.788 56.2213 401.95C57.7826 408.526 64.2593 412.449 70.5244 413.686C83.1338 415.525 95.9352 414.507 108.65 414.665C159.981 414.09 211.478 415.863 262.716 413.805C264.826 413.766 269.021 413.686 271.131 413.647C303.369 415.261 336.005 415.353 368.216 413.905C374.574 412.873 381.097 409.479 383.77 403.326C384.848 400.25 385.218 397.061 384.888 393.753C388.09 394.977 391.311 396.241 394.593 397.359C399.005 401.004 403.226 406.971 397.484 411.788C379.132 428.717 352.239 429.134 328.807 433.03C240.693 442.332 150.124 444.833 63.2868 424.549C53.403 421.42 42.7055 416.928 37.0028 408.063V408.076Z" fill="#E3D0C5"/>
<path d="M347.217 396.123C347.7 402.725 355.354 399.9 359.879 400.37C363.372 400.33 366.885 400.33 370.431 400.357C366.574 400.138 344.015 407.846 347.223 396.123H347.217Z" fill="#7A5E4F"/>
<path d="M69.6309 400.356C74.0567 400.383 78.4231 400.112 82.8887 400.158C86.2362 400.211 89.597 400.29 92.9842 400.376C88.8693 401.719 73.6664 403.869 69.6309 400.35V400.356Z" fill="#C8B4A8"/>
<path d="M117.781 400.356C120.011 400.369 124.463 400.409 126.693 400.422C143.232 400.369 159.791 400.329 176.356 400.343C159.857 402.559 134.274 402.532 117.788 400.356H117.781Z" fill="#897F79"/>
<path d="M188.096 400.343C190.69 400.343 193.296 400.343 195.896 400.33C211.523 400.396 227.142 400.356 242.782 400.33C245.064 400.343 249.609 400.356 251.885 400.356C233.129 403.26 209.009 401.044 188.116 401.58L188.09 400.343H188.096Z" fill="#4A362F"/>
<path d="M266.221 400.356C281.848 400.343 297.481 400.383 313.12 400.33C316.534 400.33 319.974 400.33 323.434 400.356C307.139 403.234 284.931 401.071 266.268 401.58L266.215 400.356H266.221Z" fill="#988A7E"/>
<path d="M70.5234 413.693C83.2255 413.25 95.921 413.289 108.636 413.395L108.65 414.672C95.9408 414.513 83.1329 415.532 70.5234 413.693Z" fill="#9B8A7D"/>
<path d="M108.639 413.395C159.996 413.627 211.373 412.833 262.718 413.812C211.479 415.87 159.983 414.097 108.652 414.672L108.639 413.395Z" fill="#C8B5A5"/>
<path d="M271.129 413.654C303.48 413.303 335.876 412.926 368.214 413.912C336.002 415.36 303.367 415.268 271.129 413.654Z" fill="#C2AFA4"/>
</g>
</g>
<defs>
<linearGradient id="paint0_linear_3398_4412" x1="180" y1="0" x2="180" y2="800" gradientUnits="userSpaceOnUse">
<stop stop-color="#1DB39A"/>
<stop offset="1" stop-color="#0A4F44"/>
</linearGradient>
<linearGradient id="paint1_linear_3398_4412" x1="-118.258" y1="-18.4828" x2="-118.258" y2="96.2758" gradientUnits="userSpaceOnUse">
<stop stop-color="#E0E0E0"/>
<stop offset="1" stop-color="white" stop-opacity="0"/>
</linearGradient>
<linearGradient id="paint2_linear_3398_4412" x1="181.88" y1="-56" x2="181.88" y2="32.2759" gradientUnits="userSpaceOnUse">
<stop stop-color="#E0E0E0"/>
<stop offset="1" stop-color="white" stop-opacity="0"/>
</linearGradient>
<linearGradient id="paint3_linear_3398_4412" x1="313.189" y1="85.2415" x2="313.189" y2="200" gradientUnits="userSpaceOnUse">
<stop stop-color="#E0E0E0"/>
<stop offset="1" stop-color="white" stop-opacity="0"/>
</linearGradient>
<clipPath id="clip0_3398_4412">
<rect width="360" height="800" fill="white"/>
</clipPath>
<clipPath id="clip1_3398_4412">
<rect width="360" height="440" fill="white"/>
</clipPath>
</defs>
</svg>
