<svg width="360" height="800" viewBox="0 0 360 800" fill="none" xmlns="http://www.w3.org/2000/svg">
<g clip-path="url(#clip0_3398_4118)">
<rect width="360" height="800" fill="url(#paint0_linear_3398_4118)"/>
<path opacity="0.6" d="M-287.078 87.1059C-284.594 83.9401 -281.149 82.4829 -277.304 81.9427C-276.542 81.8296 -275.694 82.2693 -274.82 82.4703C-275.269 83.2994 -275.644 84.0029 -276.143 84.9451C-275.544 84.9828 -275.094 85.1461 -274.87 84.9954C-273.047 83.714 -270.937 82.6336 -269.552 80.9628C-267.966 79.0659 -265.931 78.4001 -263.872 77.6589C-261.774 76.9051 -259.602 76.4906 -257.305 76.9428C-254.721 77.4579 -252 77.0307 -249.453 78.1237C-248.13 78.689 -247.044 79.3046 -246.083 80.4477C-244.76 82.0055 -243.561 83.8145 -241.639 84.631C-240.553 84.1788 -240.715 83.3874 -240.977 82.8095C-241.614 81.4025 -241.951 79.8447 -242.562 78.5131C-243.986 75.473 -242.587 72.6967 -242.35 69.845C-242.275 68.8777 -241.352 67.9355 -240.715 67.0562C-238.281 63.702 -235.934 60.2599 -231.577 59.0915C-230.304 58.7524 -229.155 58.5765 -227.907 59.0287C-226.746 59.4433 -225.547 59.7448 -224.162 60.1594C-224.574 62.6216 -226.009 64.9205 -225.323 67.5084C-224.674 68.1868 -223.825 68.6516 -223.238 67.6592C-222.551 66.4783 -222.015 65.1467 -221.703 63.8025C-221.091 61.2146 -220.729 58.5514 -218.594 56.6419C-218.394 56.466 -218.245 56.1896 -218.145 55.9384C-216.347 51.0893 -212.19 48.6898 -208.133 46.1773C-204.438 43.891 -200.131 43.0367 -196.299 41.0518C-195.475 40.6247 -194.401 40.6875 -193.44 40.5745C-192.616 40.474 -191.717 40.6373 -190.981 40.3609C-189.845 39.9212 -188.834 40.072 -187.71 40.2981C-186.212 40.5996 -184.652 40.6247 -183.141 40.8634C-182.205 41.0142 -181.019 41.0393 -180.42 41.6171C-179.072 42.9111 -177.861 42.2578 -176.388 41.7051C-173.766 44.004 -170.72 45.5241 -167.15 46.0894C-165.053 46.416 -164.191 48.8783 -161.957 49.4561C-160.034 49.9586 -158.898 51.7927 -158.349 53.8153C-158.249 54.2047 -157.999 54.7072 -157.687 54.8454C-154.829 56.1017 -153.992 58.9282 -152.432 61.5412C-153.094 62.1442 -153.855 62.7095 -154.442 63.4256C-154.754 63.815 -155.066 64.5939 -154.879 64.9205C-154.579 65.4607 -153.867 66.114 -153.356 66.1014C-151.845 66.0637 -150.247 65.9632 -148.862 65.423C-147.214 64.7698 -145.716 64.3175 -144.068 65.1969C-143.831 65.3225 -143.506 65.4356 -143.257 65.3853C-138.438 64.5185 -135.866 68.124 -133.195 70.9254C-130.161 74.0911 -129.949 78.2619 -130.91 82.4577C-131.123 83.3748 -131.472 84.2667 -131.959 85.8119C-130.935 85.3094 -130.311 85.2215 -130.124 84.8823C-129.462 83.6637 -128.676 82.4075 -128.451 81.0759C-128.014 78.5885 -127.902 76.0383 -127.727 73.5133C-127.627 72.056 -128.214 70.85 -129.1 69.644C-133.095 64.2296 -138.488 61.5287 -145.079 61.001C-146.303 60.9005 -147.513 60.687 -148.762 60.5237C-150.422 56.0514 -152.794 52.3329 -156.639 49.7199C-157.201 49.3431 -157.762 48.7652 -158.024 48.1496C-159.111 45.612 -161.333 44.4814 -163.567 43.3005C-165.54 42.2578 -167.425 41.0518 -169.422 40.0594C-171.282 39.1298 -173.055 37.9363 -175.277 37.8735C-176.088 37.8484 -176.887 37.4338 -177.686 37.1575C-178.21 36.9816 -178.759 36.7932 -179.234 36.5168C-180.644 35.7128 -182.242 35.4741 -183.715 35.763C-187.673 36.5294 -191.842 34.4691 -195.662 36.7304C-196.136 37.0193 -196.686 37.459 -197.16 37.4213C-199.832 37.1575 -201.866 38.8157 -204.201 39.5695C-209.469 41.278 -213.439 44.7075 -216.896 48.8029C-218.944 51.24 -220.629 53.9786 -222.439 56.5288C-223.95 55.9761 -225.36 55.4484 -227.045 54.8329C-226.996 54.0791 -226.996 53.1369 -226.858 52.2073C-226.584 50.4234 -226.321 48.627 -225.885 46.8808C-225.435 45.0718 -223.613 44.1548 -222.963 42.3206C-221.79 38.9665 -219.393 36.3158 -216.859 33.9289C-214.138 31.3662 -211.329 28.8286 -207.596 27.7607C-207.459 27.7231 -207.322 27.6854 -207.209 27.5974C-203.739 24.9091 -199.519 24.4568 -195.437 23.5146C-192.778 22.9116 -190.144 23.0498 -187.498 23.2131C-185.825 23.3136 -184.165 23.6277 -182.517 23.9292C-181.868 24.0548 -181.269 24.4317 -180.42 24.7834C-181.706 27.4718 -183.441 29.8712 -183.066 33.1249C-182.43 32.8737 -181.955 32.836 -181.743 32.5722C-179.309 29.7205 -176.6 27.1201 -174.777 23.7533C-174.216 22.7232 -173.08 21.5172 -172.031 21.3162C-169.097 20.7509 -167.375 18.3138 -164.84 17.2083C-163.567 16.6555 -162.356 15.7636 -161.033 15.5751C-158.823 15.2611 -156.614 15.0601 -154.554 14.1053C-154.205 13.942 -153.73 13.9546 -153.331 14.03C-148.287 15.0475 -143.107 15.5626 -138.376 17.7861C-136.877 18.4896 -135.479 19.4067 -134.019 20.1981C-133.42 20.5248 -132.77 20.7383 -132.196 20.977C-131.422 20.3112 -131.897 19.8841 -132.271 19.5072C-135.28 16.4671 -138.688 14.1556 -142.782 12.7486C-145.953 11.6682 -148.986 10.2235 -152.382 9.95973C-152.619 9.94716 -152.831 9.64566 -153.081 9.45723C-153.53 8.66579 -152.881 8.15073 -152.482 7.67336C-148.862 3.37699 -145.154 -0.806313 -140.048 -3.40674C-139.187 -3.84643 -138.5 -4.61274 -137.664 -5.09011C-136.703 -5.64286 -135.679 -6.32124 -134.63 -6.4343C-132.508 -6.64786 -130.536 -7.26342 -128.551 -7.96692C-127.777 -8.24329 -126.928 -8.40661 -126.104 -8.43173C-121.922 -8.56992 -117.728 -8.34379 -113.596 -7.77848C-111.324 -7.47698 -109.177 -6.22074 -106.855 -5.34136C-107.042 -4.29868 -107.092 -3.45699 -107.354 -2.69068C-108.415 0.349436 -109.589 3.35187 -110.65 6.40455C-111.236 8.08792 -111.648 9.80898 -110.849 12.0953C-110.288 11.3165 -109.851 10.9396 -109.726 10.4874C-108.802 7.09548 -107.666 3.79155 -106.518 0.47506C-105.943 -1.19575 -105.007 -2.452 -104.158 -3.85899C-102.124 -7.21317 -99.8516 -10.3035 -96.2189 -12.0874C-94.983 -14.1602 -92.736 -14.7632 -90.826 -15.8813C-88.4916 -17.238 -85.7078 -17.0119 -83.3235 -18.1551C-78.5798 -18.2681 -73.8236 -18.4189 -69.0798 -18.4817C-67.6817 -18.5068 -66.3834 -18.0923 -65.0851 -17.3888C-63.662 -16.6099 -62.0142 -16.2707 -60.4787 -15.6677C-59.0681 -15.115 -57.3454 -14.8009 -56.3842 -13.7959C-55.3356 -12.703 -53.9874 -12.4643 -52.9637 -11.6854C-50.9913 -10.1905 -49.3685 -8.21817 -47.6707 -6.38405C-47.0091 -5.66799 -46.672 -4.58762 -45.9355 -4.00974C-43.4014 -2.03743 -42.6024 0.6635 -42.178 3.67849C-41.9408 5.29905 -41.454 6.84423 -40.68 8.38942C-39.6439 10.4622 -40.0558 12.9873 -39.9435 15.3365C-39.8561 17.2962 -39.5814 19.2434 -39.3068 21.178C-39.2693 21.4418 -38.7326 21.8313 -38.4205 21.8313C-38.0834 21.8313 -37.5841 21.5298 -37.4218 21.2157C-36.1485 18.7535 -35.7365 15.2611 -36.3732 11.417C-36.5605 10.2738 -36.7851 9.21854 -36.111 7.78642C-32.1538 8.75373 -28.3463 9.87179 -25.0008 11.8818C-21.7176 13.8541 -18.4969 16.0776 -16.0751 19.1931C-15.738 19.6328 -15.3261 20.0474 -15.0889 20.5373C-14.3025 22.1579 -11.8058 21.8187 -11.4687 24.2433C-11.244 25.8764 -9.74597 27.3211 -8.84717 28.8662C-6.27557 33.3134 -4.70267 37.9992 -5.68887 43.3759C-6.12579 43.5643 -6.6376 44.004 -7.12445 43.9789C-12.6422 43.602 -17.5232 45.8381 -22.4292 47.8104C-24.3391 48.5768 -25.962 50.0717 -27.7346 51.1898C-28.4337 51.6294 -29.2077 51.9184 -29.7819 52.1947C-32.1163 50.7878 -34.226 49.4687 -36.3857 48.2376C-38.1084 47.2577 -39.9809 46.7929 -41.9908 46.6673C-44.063 46.5291 -46.0978 46.0517 -48.1701 45.7879C-54.7863 44.9588 -60.7034 46.617 -66.4458 50.0968C-69.8039 52.1319 -71.6015 55.0087 -73.2243 58.2247C-74.1606 60.0965 -74.8971 62.0814 -75.6586 64.0286C-76.0456 65.021 -76.2703 66.0637 -75.4214 67.6843C-74.9346 66.1014 -74.6724 65.0336 -74.273 64.0286C-73.861 62.9859 -73.2868 62.0186 -72.7874 61.0136C-69.8289 54.9711 -65.0227 51.1898 -58.5563 49.7451C-55.1608 48.9788 -51.6654 48.5139 -48.195 48.3883C-46.0229 48.3129 -43.651 48.7652 -41.6662 49.6446C-39.1445 50.7501 -36.4356 51.6797 -34.4008 53.7399C-33.9264 54.2173 -33.2274 54.5062 -32.5907 54.7701C-31.3923 55.2726 -30.4311 55.9886 -29.7195 57.1192C-28.8582 58.4885 -27.4475 59.1418 -25.8247 59.8327C-25.0757 56.9559 -27.0605 55.3731 -28.3838 53.7399C-27.9469 52.0063 -26.4738 51.8932 -25.4751 51.2274C-20.2945 47.7979 -14.4148 46.504 -8.36032 46.2904C-5.48914 46.1899 -2.58047 47.0064 0.315674 47.3582C2.11328 47.5843 3.67374 48.1748 5.30908 49.1421C9.41614 51.5541 13.3734 54.1419 17.0935 57.1067C17.9298 57.7725 20.5763 61.2146 21.1755 62.1945C22.4239 64.217 23.7222 66.2145 25.0329 68.1993C26.5434 70.4857 27.3299 72.86 27.0927 75.7117C26.9429 77.4579 27.6794 79.2794 27.9166 81.0759C28.2162 83.2994 28.391 85.5355 28.7155 87.7465C28.7905 88.2365 29.2274 89.0405 29.5395 89.053C30.1387 89.0907 31.0125 88.852 31.337 88.3998C31.9612 87.5204 32.2858 86.4275 32.6978 85.4979C36.655 85.1084 39.9507 86.5908 43.2213 88.136C43.5958 88.3119 43.9579 88.5254 44.2699 88.8018C46.7666 91.0002 49.2383 93.2112 51.6726 95.3845C51.6102 96.2388 51.0859 96.3141 50.4991 96.2639C46.6293 95.9498 42.7469 96.3895 38.8771 95.9373C38.0656 95.8368 37.1794 96.2136 36.4054 96.0126C34.1833 95.4599 31.9862 95.6609 29.7642 95.774C28.391 95.8493 26.9678 96.1257 25.6446 95.3971C25.2951 95.2086 24.7708 95.0328 24.4337 95.1584C21.6499 96.2011 18.8911 95.1207 16.1198 95.083C13.1736 95.0453 10.2525 95.1207 7.31891 95.4599C5.38397 95.686 3.41156 95.6358 1.46414 95.5353C-0.882751 95.4222 -3.19217 94.6559 -5.55154 95.6106C-6.11331 95.8368 -6.91223 95.4976 -7.59882 95.3971C-10.7946 94.97 -13.9779 94.6308 -17.1612 95.4725C-18.2347 95.7614 -19.2709 95.6986 -20.4318 95.372C-22.0047 94.9197 -23.7274 94.9323 -25.4002 94.9071C-27.7721 94.882 -30.1315 94.9448 -32.5033 95.0705C-39.182 95.4473 -45.8606 95.0453 -52.5268 94.7062C-55.0235 95.6483 -57.7449 94.4675 -60.304 95.7111C-61.3651 96.2262 -63.0129 95.686 -64.3486 95.4096C-65.8966 95.0956 -67.3821 95.0328 -68.9176 95.372C-69.8663 95.5855 -70.7901 95.5604 -71.7763 95.171C-72.4629 94.8946 -73.3741 95.171 -74.1856 95.2589C-74.5851 95.2966 -75.1218 95.6609 -75.3715 95.5101C-77.4063 94.2288 -79.4786 95.4222 -81.5134 95.3217C-83.311 95.2212 -85.1211 95.9875 -86.8937 95.1458C-87.0186 95.083 -87.2058 95.0202 -87.3057 95.0705C-90.1145 96.49 -92.761 94.9951 -95.4823 94.6685C-96.843 94.5052 -98.4035 95.171 -99.6019 94.7187C-101.799 93.877 -103.696 94.97 -105.719 95.083C-109.314 95.284 -112.872 95.7614 -116.33 94.2037C-116.916 93.9398 -117.778 93.9273 -118.389 94.1408C-122.759 95.5981 -127.19 94.3921 -131.585 94.5554C-132.521 94.5931 -133.42 94.2037 -134.381 94.7564C-135.579 95.4348 -136.878 95.284 -137.989 94.5554C-139.624 93.475 -141.122 93.3117 -143.107 93.8268C-145.903 94.5554 -148.924 93.8896 -151.77 94.769C-152.132 94.882 -152.619 94.769 -153.006 94.6308C-156.239 93.5001 -159.547 93.965 -162.856 94.0152C-165.202 94.0529 -167.524 94.1032 -169.921 93.6383C-172.593 93.1233 -175.451 93.5881 -178.223 93.676C-178.909 93.7012 -179.696 94.166 -180.257 93.965C-183.104 92.9097 -186.025 94.2413 -188.884 93.5253C-189.932 93.2615 -191.193 93.2991 -192.204 93.6509C-194.863 94.5805 -197.522 94.2539 -200.094 93.7011C-203.989 92.872 -207.908 93.1987 -211.816 93.0856C-216.684 92.9474 -221.553 93.0353 -226.421 93.0479C-227.944 93.0479 -229.48 93.073 -231.003 93.0856C-232.126 93.0982 -233.25 93.1484 -234.361 93.0982C-238.693 92.8972 -243.012 92.6333 -247.331 92.4449C-249.84 92.3318 -252.349 92.5454 -254.846 91.867C-255.882 91.5781 -257.068 91.9173 -258.192 91.8545C-263.21 91.5781 -268.228 91.2515 -273.247 90.9625C-274.87 90.8746 -280.188 90.3218 -284.407 90.1711C-285.568 89.9575 -286.729 89.744 -288.189 89.4676C-287.69 88.5505 -287.54 87.6963 -287.078 87.1059Z" fill="url(#paint1_linear_3398_4118)"/>
<path opacity="0.6" d="M175.286 11.1C176.464 9.68021 177.108 8.38268 177.305 7.11337C177.464 6.05091 177.959 5.1953 178.277 4.23627C179.24 1.37797 180.894 -1.14183 182.408 -3.73687C182.661 -4.16937 183.016 -4.59249 183.427 -4.90277C185.502 -6.45415 187.157 -8.51325 189.559 -9.66033C190.167 -9.9518 190.662 -10.4689 191.204 -10.892C191.41 -11.0519 191.578 -11.3433 191.803 -11.3715C193.915 -11.6536 195.579 -13.0075 197.523 -13.6751C197.925 -13.8161 198.439 -14.0418 198.776 -13.9102C200.851 -13.1016 202.861 -14.1076 204.898 -14.0418C206.282 -13.9948 207.675 -13.9478 209.058 -13.8632C210.002 -13.8067 210.9 -13.5717 211.9 -13.6751C212.676 -13.7597 213.526 -13.2144 214.33 -12.8947C214.966 -12.6409 215.555 -12.246 216.2 -12.0015C218.004 -11.3245 219.77 -10.6099 221.144 -9.1996C221.266 -9.07737 221.397 -8.94574 221.556 -8.87992C225.874 -6.99006 227.8 -3.04111 229.94 0.682198C231.268 2.98576 231.445 5.59962 231.184 8.22286C231.071 9.33233 230.894 10.4418 230.81 11.5607C230.782 11.965 230.94 12.3787 231.006 12.8018C231.754 12.6137 231.8 12.0496 231.857 11.5607C232.043 9.84945 232.184 8.13824 232.333 6.42702C232.38 5.90989 232.417 5.39275 232.455 4.88503C232.511 4.10464 232.969 3.66272 233.698 3.38065C235.708 2.60966 237.68 3.05158 239.643 3.5405C240.316 3.70974 240.97 4.00122 241.606 4.30209C242.569 4.7534 243.419 5.34576 243.896 6.3424C244.438 7.48948 245.466 8.4203 245.588 9.73662C243.943 10.8367 242.279 11.8051 240.802 12.9992C239.811 13.7984 239.101 14.9361 238.11 16.0926C239.363 16.3464 240.129 15.7071 240.905 15.2934C241.512 14.9737 241.999 14.4284 242.55 13.9959C243.999 12.8394 245.569 11.9368 247.429 11.523C248.878 11.2034 250.299 10.7521 251.72 10.3102C254.992 9.29472 258.235 8.34509 261.656 9.77423C262.357 10.0657 263.208 9.98109 263.974 10.1597C267.704 11.0059 270.303 13.4129 272.555 16.243C273.471 17.3901 274.21 18.6688 275.07 19.8629C275.238 20.0979 275.565 20.2296 275.864 20.4458C276.547 19.1671 275.126 18.4525 275.341 17.2208C276.163 16.6567 277.042 16.0361 278.313 16.5157C278.622 16.6285 279.089 16.6943 279.332 16.5439C280.426 15.8575 281.37 16.4687 282.342 16.7789C282.763 16.9106 283.127 17.2491 283.539 17.3149C285.343 17.6157 286.147 18.9697 286.913 20.3142C287.745 21.781 288.082 23.3887 287.567 25.0341C287.268 25.9838 286.932 26.877 285.857 27.4976C284.67 28.1745 283.95 29.4909 282.566 30.0738C280.005 31.1457 277.463 31.9355 274.602 31.2867C272.855 30.8918 271.209 30.2901 269.602 29.5849C269.003 29.3216 268.573 28.7104 267.956 28.1557C267.751 28.1839 267.368 28.1463 267.068 28.2779C264.741 29.2934 262.339 29.5378 259.805 29.331C257.88 29.1712 255.936 29.0771 254.01 28.9737C251.14 28.8233 248.663 27.8643 246.336 26.4727C245.485 25.965 244.635 25.6641 243.662 25.4008C243.195 26.2753 244.476 26.6608 244.279 27.4317C244.176 27.5634 244.102 27.7608 243.971 27.8078C241.727 28.5694 239.484 29.3874 237.054 29.3498C235.455 29.331 233.857 29.2276 232.258 29.2276C230.623 29.2276 229.108 28.607 227.706 28.0147C225.715 27.1685 223.771 26.2282 221.677 25.5983C221.864 23.9341 223.724 23.8589 224.304 22.4767C223.911 22.5426 223.565 22.5144 223.322 22.646C220.658 24.1598 218.004 25.6923 215.33 27.2061C215.031 27.3753 214.667 27.4599 214.33 27.5634C212.218 28.2215 210.114 28.8797 207.992 29.5002C207.488 29.6507 206.946 29.6977 206.422 29.7541C205.534 29.8387 204.646 29.8575 203.767 29.961C201.935 30.1772 200.122 30.243 198.28 30.0644C196.364 29.8763 194.392 30.4311 192.504 29.6037C192.13 29.4438 191.625 29.5285 191.186 29.5567C188.297 29.7165 185.587 28.8985 182.867 28.1651C181.334 27.7514 179.772 27.4411 178.249 27.0086C177.707 26.8488 177.239 26.4539 176.548 26.059C178.062 25.0248 179.193 23.9623 179.698 22.4955C179.343 21.8562 178.884 22.1383 178.511 22.2417C177.305 22.5896 176.202 23.1161 175.417 24.1221C175.202 24.3948 174.977 24.7333 174.678 24.8555C173.052 25.5231 171.659 26.6043 170.061 27.3001C168.771 27.8642 167.406 28.2591 166.06 28.6917C164.639 29.1524 163.181 29.4156 161.685 29.6601C159.769 29.9704 157.825 30.1302 155.918 30.4593C155.095 30.6003 154.347 30.5533 153.553 30.3841C152.693 30.196 151.805 30.1208 150.926 30.008C150.58 29.961 150.178 30.0174 149.879 29.8857C148.487 29.237 147.028 29.0677 145.486 29.0019C144.57 28.9643 143.635 28.4566 142.775 28.0335C141.812 27.554 140.84 27.4129 139.719 27.4505C140.607 29.1994 140.719 29.284 143.766 30.4969C142.364 31.6158 140.579 31.5594 138.961 31.926C137.606 32.2269 136.167 32.1705 134.764 32.2645C133.867 32.3209 133.035 32.1611 132.157 31.9166C131.371 31.7004 130.446 32.1611 129.623 31.6158C129.362 31.4371 128.885 31.3619 128.595 31.4559C127.221 31.8978 126.258 31.2115 125.193 30.5345C124.193 29.8951 122.809 29.8576 122.117 28.6729C121.996 28.4754 121.463 28.419 121.127 28.4284C120.425 28.4378 119.93 28.2121 119.603 27.601C119.519 27.4505 119.425 27.2249 119.294 27.1967C117.406 26.736 116.808 24.9589 115.583 23.8307C114.368 22.7024 113.181 21.5459 111.938 20.4552C111.723 20.2672 111.237 20.1638 110.994 20.2766C110.76 20.38 110.545 20.8031 110.545 21.0852C110.536 22.063 110.9 22.9751 111.536 23.7085C113.004 25.4009 114.107 27.4223 116.266 28.5036C117.004 28.8703 116.836 29.6789 116.032 30.102C114.331 31.0046 112.461 31.0892 110.592 31.1174C109.975 31.1268 109.339 30.9388 108.732 30.9858C106.292 31.1833 104.217 30.243 102.207 29.0866C102.076 29.0113 102.02 28.8045 101.871 28.56C103.245 27.648 104.983 27.1027 105.815 25.4761C105.572 25.429 105.348 25.3162 105.236 25.3726C102.348 26.9898 99.0759 27.3941 95.8978 28.0147C94.6265 28.2591 93.2805 28.2686 91.9999 28.607C91.626 28.7105 88.5133 28.1557 88.1768 27.9865C87.0831 27.4223 85.9988 26.83 84.8958 26.3035C84.4378 26.0872 83.9237 25.9744 83.4376 25.824C83.0263 25.6923 82.4468 25.7111 82.2224 25.4385C81.484 24.5358 80.409 24.0939 79.5304 23.3982C79.2032 23.1443 78.9695 22.7494 78.7545 22.3827C78.5863 22.0912 78.5863 21.6587 78.3619 21.4425C76.4831 19.5714 76.5205 17.0516 76.0624 14.7574C75.7072 13.0086 76.2307 11.1752 77.0346 9.52976C78.1002 7.36724 79.3715 5.29873 81.0073 3.50289C82.2131 2.17716 83.6245 1.05831 85.223 0.146286C86.6718 -0.681114 88.13 -1.41452 89.7939 -1.66838C91.3455 -1.89403 92.8972 -2.07268 94.4583 -2.23252C97.8888 -2.58981 101.067 -1.56494 104.17 -0.361446C106.573 0.578785 108.395 2.32762 109.807 4.46194C110.274 5.16711 110.77 5.85347 111.321 6.62446C111.919 5.65602 112.05 4.88504 111.452 4.07644C111.2 3.73796 111.013 3.34307 110.77 2.99518C109.947 1.78229 109.124 0.578777 108.134 -0.869179C106.741 -1.04782 105.395 -1.98804 104.058 -2.94707C102.759 -3.8779 101.273 -4.36684 99.6928 -4.6113C99.0011 -4.72413 98.3001 -4.88395 97.6083 -4.88395C96.4493 -4.89335 95.7575 -5.40107 95.5986 -6.50114C95.3556 -8.19356 94.3554 -9.68854 94.4956 -11.5126C94.6639 -13.6845 94.8695 -15.7718 96.1221 -17.6429C96.5521 -18.2822 96.8605 -19.0062 97.2064 -19.6926C98.2533 -21.7517 100.31 -22.8329 101.861 -24.4031C102.31 -24.8544 103.086 -25.0331 103.74 -25.2493C104.89 -25.6254 106.049 -25.9733 107.227 -26.2554C107.806 -26.3964 108.423 -26.4528 109.012 -26.3964C110.47 -26.2742 111.938 -26.1425 113.368 -25.8887C114.667 -25.6536 115.817 -25.2493 116.144 -23.6227C116.378 -22.4757 117.116 -21.432 117.565 -20.3225C118.509 -17.9626 120.089 -16.1385 122.033 -14.5025C123.015 -13.6751 123.94 -12.7725 125.071 -12.1425C125.735 -11.7664 126.455 -11.3809 127.352 -12.0767C127.156 -12.3494 127.034 -12.6973 126.791 -12.8571C125.333 -13.8161 123.921 -14.7752 123.052 -16.3736C122.706 -17.0129 121.837 -17.3608 121.416 -17.9814C120.416 -19.4763 119.313 -20.9807 118.687 -22.6355C118.004 -24.4501 117.687 -26.434 117.425 -28.3709C117.173 -30.2232 117.042 -32.113 117.631 -33.9653C117.836 -34.614 117.902 -35.3192 117.93 -36.0056C118.033 -38.3655 119.005 -40.434 120.108 -42.4461C120.556 -43.2547 121.388 -43.8377 121.519 -44.8625C121.547 -45.0788 121.837 -45.2574 121.958 -45.4831C122.622 -46.6208 124.202 -46.8464 124.651 -48.1721C125.071 -49.4226 126.539 -49.6201 127.146 -50.7014C127.287 -50.9458 127.726 -51.0304 128.034 -51.1715C129.212 -51.6792 130.418 -52.1399 131.568 -52.704C133.905 -53.8229 136.447 -54.2742 138.905 -54.9888C139.644 -55.2051 140.392 -55.3555 141.13 -55.5529C141.71 -55.7128 142.252 -55.882 142.887 -55.694C143.271 -55.5811 143.766 -55.5905 144.14 -55.7222C145.178 -56.0983 146.112 -56.1735 147.047 -55.4307C147.271 -55.2521 147.729 -55.2239 148.019 -55.3179C148.73 -55.5623 149.337 -55.4025 149.992 -55.1204C150.44 -54.923 151.02 -54.782 151.478 -54.876C152.992 -55.2145 154.319 -54.7631 155.628 -54.105C155.852 -53.9922 156.086 -53.7947 156.32 -53.7947C158.049 -53.7947 159.367 -52.8545 160.76 -51.9989C161.405 -51.604 162.209 -51.4818 162.891 -51.1527C163.414 -50.8988 164.125 -50.6073 164.293 -50.1654C164.845 -48.6893 166.032 -48.1157 167.191 -47.7208C167.696 -46.837 168.004 -46.0096 168.546 -45.3891C169.574 -44.2138 170.173 -42.8128 170.92 -41.4683C172.145 -39.2776 172.659 -36.8424 173.398 -34.5012C173.818 -33.1567 173.65 -31.6241 173.678 -30.1761C173.706 -28.982 173.594 -27.788 173.631 -26.6033C173.641 -26.3776 174.043 -26.0109 174.286 -25.9827C174.547 -25.9545 175.005 -26.2084 175.089 -26.434C175.959 -28.982 178.099 -30.0351 180.333 -31.0411C183.259 -32.3575 186.222 -32.1036 189.213 -31.389C189.868 -31.2292 190.494 -30.8813 191.092 -30.5616C191.7 -30.2419 192.223 -29.7436 192.85 -29.518C194.429 -28.9444 195.177 -27.7315 195.944 -26.3494C196.561 -25.2305 196.916 -24.0364 197.402 -22.8893C198.094 -21.2345 198.075 -19.4199 198.103 -17.6147C196.869 -16.5992 195.214 -17.0411 193.934 -16.2137C192.719 -15.4333 191.289 -14.982 189.812 -14.3239C188.709 -15.1419 187.465 -15.9128 186.391 -16.8719C184.39 -18.6677 181.913 -19.5703 179.455 -20.2755C176.763 -21.0465 173.921 -20.7832 171.248 -19.8336C167.481 -18.4985 164.396 -16.1855 161.863 -13.1392C161.433 -12.6314 161.18 -11.9827 160.844 -11.3998C158.535 -11.9357 156.264 -12.4622 153.992 -12.9981C151.328 -13.6281 148.617 -13.4494 145.935 -13.252C143.177 -13.0545 140.84 -11.616 138.391 -10.4971C138.083 -10.3561 137.821 -10.121 137.503 -9.98001C135.316 -8.98336 133.447 -7.59181 132.054 -5.64553C130.96 -4.12236 129.595 -2.77784 128.819 -1.03841C128.614 -0.577698 128.128 -0.15461 128.109 0.2967C128.044 1.68824 126.903 2.76013 127.025 4.22688C127.09 5.05429 126.688 5.90989 126.688 6.74669C126.679 8.19465 126.735 9.652 126.913 11.0906C127.137 12.877 127.464 14.654 127.847 16.4123C128.408 18.9979 129.951 21.0758 131.652 23.0597C131.885 23.3324 131.923 23.3041 133.241 23.2571C132.96 22.599 132.802 21.9314 132.437 21.4049C130.567 18.6688 130.081 15.519 129.511 12.4069C129.221 10.8085 130.053 6.65265 130.941 5.26112C131.502 4.3679 130.923 3.5969 131.026 2.64727C131.914 1.64123 132.867 0.625805 133.418 -0.793941C133.886 -1.98803 135.036 -2.9847 136.026 -3.92492C137.12 -4.97798 138.083 -6.13447 139.41 -7.01829C141.56 -8.45684 143.953 -9.21841 146.318 -10.0646C147.402 -10.4595 148.664 -10.7604 149.917 -10.2997C150.3 -10.1586 150.814 -10.1586 151.207 -10.2715C154.03 -11.1459 156.497 -10.0176 158.993 -9.01157C159.713 -8.7201 160.414 -8.37222 161.124 -8.04313C161.442 -7.8927 161.816 -7.79868 162.05 -7.57302C164.592 -5.11902 167.443 -2.92829 169.107 0.2967C169.369 0.795021 169.397 0.776234 170.21 1.02069C170.584 0.475361 170.173 0.0522499 169.976 -0.399063C169.584 -1.34869 169.182 -2.30773 168.752 -3.24796C167.817 -5.32587 166.583 -7.13111 164.508 -8.3064C163.704 -8.75771 163.05 -9.49107 162.246 -10.168C163.125 -11.6912 164.34 -12.7537 165.574 -13.7785C166.303 -14.3897 167.125 -14.8786 167.92 -15.4239C168.63 -15.9129 169.313 -16.477 170.257 -16.4488C170.341 -16.4488 170.453 -16.4676 170.509 -16.5146C172.295 -18.1318 174.631 -17.5206 176.697 -17.972C177.408 -18.1224 178.221 -17.8403 178.978 -17.7181C182.128 -17.2292 184.596 -15.5179 186.802 -13.3742C187.026 -13.1486 187.101 -12.7819 187.279 -12.4246C184.072 -9.9236 181.427 -6.98066 179.296 -3.61463C177.679 -1.05721 176.417 1.70706 175.837 4.65938C175.361 6.59626 174.585 8.59895 175.286 11.1Z" fill="url(#paint2_linear_3398_4118)"/>
<path opacity="0.6" d="M276.708 109.797C277.619 110.556 278.347 111.168 279.065 111.77C279.14 111.833 279.205 111.96 279.28 111.96C280.929 111.928 281.969 112.941 282.933 114.049C283.812 115.062 285.044 115.632 285.804 116.856C286.533 118.027 288.129 118.639 288.247 120.286C289.383 121.267 289.876 122.639 290.572 123.894C291.044 124.739 291.344 125.646 291.226 126.902C290.776 126.67 290.422 126.596 290.229 126.374C289.019 125.002 287.508 123.873 286.758 122.122C286.587 121.721 286.126 121.425 285.751 121.14C285.451 120.908 284.937 120.866 284.765 120.581C283.608 118.629 281.647 117.553 279.976 116.139C279.247 115.526 278.712 114.682 278.112 113.923C277.426 113.047 276.58 112.424 275.422 112.414C274.415 112.403 273.472 112.319 272.669 111.643C272.594 111.58 272.497 111.485 272.422 111.496C270.74 111.77 269.262 110.852 267.708 110.715C265.962 110.556 264.269 110.24 262.576 109.881C262.49 109.86 262.383 109.733 262.319 109.754C260.84 110.261 259.373 110.873 257.862 109.839C256.351 110.187 254.851 110.546 253.33 110.873C252.676 111.01 252.001 111.105 251.326 111.137C249.976 111.189 248.808 111.675 247.983 112.677C247.008 113.87 245.83 114.64 244.308 114.83C243.462 114.936 242.894 115.347 242.326 115.917C240.612 117.626 238.866 119.294 237.141 120.982C236.873 121.246 236.637 121.562 236.466 121.89C235.448 123.947 234.462 126.015 233.455 128.084C233.412 128.168 233.348 128.253 233.337 128.348C233.069 130.236 232.576 132.136 232.641 134.014C232.673 135.08 232.694 136.072 232.437 137.095C232.319 137.56 232.073 138.056 232.148 138.499C232.598 141.221 232.812 143.986 233.733 146.614C233.862 146.972 234.162 147.289 234.194 147.648C234.441 150.349 236.037 152.438 237.43 154.623C238.255 155.91 239.219 157.113 240.355 158.696C239.508 158.611 238.93 158.728 238.651 158.495C237.698 157.683 236.701 156.86 236.005 155.847C234.976 154.338 234.248 152.649 233.316 151.077C232.383 149.515 231.387 147.996 231.055 146.202C230.626 146.139 230.326 146.012 230.058 146.065C227.058 146.635 224.348 147.89 221.809 149.526C221.423 149.779 221.144 150.222 220.844 150.592C220.298 151.257 219.741 151.921 219.248 152.628C218.605 153.567 217.737 154.412 217.759 155.678C217.759 155.857 217.662 156.058 217.566 156.216C216.248 158.453 215.659 160.796 216.43 163.371C216.526 163.708 216.366 164.12 216.312 164.5C216.269 164.785 216.141 165.069 216.151 165.354C216.162 166.389 217.362 167.127 216.88 168.32C216.494 169.28 216.805 170.177 217.298 171.074C217.566 171.549 217.555 172.182 217.684 172.741C217.748 173.015 217.78 173.374 217.962 173.543C218.787 174.313 219.912 174.841 219.955 176.17C220.951 176.677 221.348 177.722 222.076 178.471C222.484 178.882 222.955 179.262 223.469 179.526C224.755 180.191 226.094 180.782 227.401 181.426C228.612 182.016 229.737 182.861 231.012 183.188C232.544 183.589 234.001 184.528 235.812 183.705C236.691 183.304 237.923 183.61 238.983 183.705C240.291 183.831 241.512 183.768 242.701 182.85C242.123 181.658 241.641 180.412 240.955 179.283C239.583 177.025 238.908 174.577 238.523 172.023C238.469 171.665 238.48 171.665 239.423 171.126C240.044 172.414 240.816 173.648 241.244 174.999C242.187 177.933 243.88 180.486 245.24 183.209C245.615 183.958 246.344 184.517 246.848 185.203C248.273 187.134 250.051 188.759 251.573 190.606C252.58 191.83 254.09 192.695 255.473 193.582C257.09 194.616 258.762 195.576 260.487 196.41C261.205 196.758 262.19 196.526 262.962 196.811C263.658 197.064 264.172 197.877 264.869 198.045C265.769 198.267 266.776 198.098 268.094 198.098C268.469 198.351 269.101 199.027 269.862 199.238C270.655 199.449 271.576 199.122 272.433 199.174C273.665 199.259 274.983 198.763 276.13 199.628C276.322 199.776 276.74 199.85 276.933 199.744C278.851 198.773 281.262 199.438 283.019 197.877C283.394 197.539 284.112 197.539 284.679 197.476C286.544 197.275 288.301 196.874 289.619 195.376C289.919 195.038 290.433 194.837 290.883 194.711C291.515 194.531 291.89 194.225 292.062 193.592C292.287 192.759 292.919 192.358 293.733 192.136C295.169 191.746 296.497 191.229 297.237 189.793C297.44 189.403 297.965 189.16 298.329 188.844C298.629 188.591 299.079 188.379 299.176 188.063C300.097 185.182 302.861 183.715 304.447 181.362C304.651 181.056 304.747 180.666 304.865 180.307C305.111 179.537 305.572 178.956 306.311 178.597C307.211 178.872 307.211 179.653 307.04 180.254C306.44 182.333 306.579 184.718 304.661 186.29C304.094 187.81 303.054 188.844 301.565 189.561C300.997 189.836 300.429 190.448 300.226 191.028C299.615 192.769 298.34 193.888 296.904 194.901C296.754 195.006 296.69 195.217 296.594 195.376C297.312 196.093 298.019 196.832 298.758 197.539C299.412 198.151 300.129 198.615 301.104 198.278C302.047 197.961 302.797 198.267 303.515 198.89C303.869 199.196 304.383 199.597 304.758 199.533C307.276 199.122 309.697 200.304 312.204 199.924C314.197 199.618 316.233 199.544 318.194 198.974C319.115 198.7 320.229 198.858 321.033 198.425C324.622 196.494 328.736 195.661 332.036 193.17C333.193 192.294 334.404 191.482 335.518 190.564C336.493 189.762 337.447 189.023 338.583 188.401C339.9 187.683 341.111 186.638 341.99 185.319C342.225 184.961 342.718 184.771 343.265 184.37C343.575 185.963 342.118 186.438 341.711 187.44C341.325 188.379 340.522 189.171 339.815 189.973C339.076 190.817 338.24 191.587 337.393 192.442C338.775 192.949 339.922 193.392 341.09 193.772C341.54 193.919 342.033 194.004 342.515 194.014C343.972 194.046 345.45 193.898 346.843 194.5C349.565 194.13 352.19 195.418 354.922 194.975C355.2 194.932 355.565 195.112 355.768 194.996C356.679 194.458 357.525 194.035 358.725 194.152C359.732 194.247 360.804 193.761 361.822 193.466C362.272 193.339 362.657 193.012 363.097 192.822C363.9 192.495 364.8 192.326 365.507 191.872C366.225 191.408 366.825 190.88 367.704 190.564C368.915 190.131 369.975 189.266 371.09 188.601C370.897 188.274 370.832 188 370.704 187.968C369.965 187.767 368.99 187.852 368.497 187.409C366.943 185.995 364.897 185.488 363.215 184.359C362.915 184.159 362.765 183.758 362.529 183.452C362.24 183.072 362.025 182.502 361.65 182.365C360.032 181.805 359.422 180.381 358.415 179.231C357.483 178.154 356.433 177.173 355.64 175.97C355.211 175.326 355.222 174.725 355.661 173.912C356.143 174.144 356.786 174.239 357.086 174.619C359.411 177.584 362.668 179.389 365.765 181.362C368.54 183.135 371.657 184.348 374.84 185.203C376.854 185.752 378.997 185.942 381.129 185.9C382.875 185.868 384.632 186.047 386.368 185.689C387.032 185.551 387.739 185.499 388.318 185.203C388.993 184.866 389.572 184.813 390.268 185.066C390.622 185.193 391.104 185.298 391.404 185.161C392.089 184.834 392.657 184.285 393.343 183.958C393.932 183.673 394.618 184.338 395.293 183.789C396.857 182.523 399 182.143 400.35 180.529C400.468 180.391 400.671 180.275 400.854 180.233C402.664 179.874 403.5 178.334 404.518 177.12C405.482 175.959 405.954 174.45 407.143 173.395C407.454 173.121 407.454 172.509 407.561 172.034C407.732 171.285 407.668 170.409 408.054 169.797C409.307 167.771 409.457 165.46 409.95 163.244C410.068 162.706 410.057 162.104 409.993 161.556C409.821 160.015 409.779 158.485 410.293 157.134C409.746 155.161 408.504 153.567 408.461 151.573C408.45 151.235 408.171 150.845 407.904 150.581C406.789 149.494 405.921 148.27 405.204 146.909C405.011 146.529 404.561 146.17 404.154 146.033C403.007 145.653 402.225 144.862 401.304 144.155C399.782 142.994 397.939 142.245 396.236 141.327C395.936 141.158 395.636 140.989 395.357 140.841C395.464 140.578 395.507 140.451 395.529 140.451C397.618 140.694 399.761 140.609 401.668 141.844C402.611 142.456 403.811 142.678 404.796 143.036C405.482 142.699 405.579 142.192 405.418 141.749C405 140.557 405.514 139.28 404.839 138.077C404.325 137.169 404.196 136.04 403.039 135.607C402.954 135.576 402.857 135.502 402.814 135.428C402.161 134.468 401.657 133.37 400.843 132.579C400.039 131.798 398.893 131.387 397.982 130.701C397.607 130.416 397.382 129.983 396.804 130.004C396.536 130.015 396.129 129.92 396.021 129.73C394.929 127.904 393.172 128.031 391.404 128.115C390.932 128.136 390.268 128.305 390 128.063C388.747 126.955 387.386 127.567 386.079 127.735C384.547 127.925 383.036 128.337 381.504 128.537C380.464 128.675 379.672 129.139 378.964 129.825C378.064 133.138 378.032 136.789 375.107 139.311C374.507 138.784 374.443 138.172 374.647 137.475C375 136.272 375.365 135.08 375.675 133.866C376.35 131.239 376.672 128.601 376.297 125.878C376.115 124.57 376.082 123.24 375.857 121.921C375.365 119.04 373.811 116.782 372.075 114.566C371.55 113.901 371.207 113.036 370.565 112.551C368.872 111.274 367.147 109.987 365.261 109.005C363.654 108.172 361.832 107.823 359.947 107.887C358.211 107.95 356.465 107.823 354.718 107.834C353.968 107.834 353.208 107.961 352.275 108.045C352.586 109.438 352.843 110.63 353.111 111.823C353.518 113.595 353.979 115.358 354.322 117.141C354.504 118.08 354.708 119.104 354.504 120.001C353.979 122.312 354.654 124.813 353.379 126.997C353.24 127.229 353.058 127.44 352.908 127.651C352.179 127.588 352.275 126.976 352.083 126.606C351.9 126.269 351.729 125.889 351.708 125.52C351.6 124 351.633 122.459 351.44 120.95C351.225 119.357 351.343 117.742 350.893 116.149C350.508 114.788 350.604 113.289 350.347 111.875C350.175 110.957 349.95 109.902 349.361 109.248C348.665 108.478 348.225 107.676 348.043 106.747C347.679 104.9 346.404 103.507 345.643 101.861C345.386 101.302 344.679 100.954 344.197 100.489C343.125 99.4448 341.283 99.1494 340.993 97.3344C339.675 96.8595 339.097 95.8043 338.701 94.5802C338.626 94.3481 338.304 94.1792 338.068 93.9998C336.258 92.5964 334.501 91.1402 332.154 90.5387C331.083 90.2643 330.097 89.4729 329.197 88.7659C328.329 88.0905 327.493 87.584 326.336 87.4996C325.179 87.4258 324.022 87.1831 323.111 86.3178C322.854 86.0751 322.426 85.8851 322.061 85.864C320.122 85.7479 318.247 85.252 316.254 85.2731C314.519 85.2836 312.804 86.0223 311.058 85.4947C309.419 84.9987 307.769 85.3786 306.129 85.4103C305.261 85.4208 304.458 85.4208 303.665 86.054C303.14 86.4655 302.176 86.2861 301.458 86.5288C299.369 87.2569 297.269 87.985 295.244 88.882C293.926 89.4729 292.619 90.2221 291.526 91.1507C290.487 92.0371 289.554 92.9657 288.172 93.3245C287.84 93.4089 287.519 93.7677 287.315 94.0737C286.597 95.1395 285.687 95.9203 284.508 96.5218C283.876 96.8489 283.447 97.6087 283.019 98.2313C282.537 98.9383 282.301 99.8669 281.701 100.447C279.162 102.874 278.23 106.146 276.783 109.153C276.687 109.332 276.73 109.543 276.708 109.797Z" fill="url(#paint3_linear_3398_4118)"/>
<g clip-path="url(#clip1_3398_4118)">
<path d="M147.916 368.506C151.361 359.48 163.604 361.348 164.619 370.917C164.452 377.466 164.535 384.032 164.315 390.629C158.793 390.169 152.937 389.417 148.036 386.82C147.892 380.695 147.857 374.594 147.916 368.511V368.506Z" fill="#1F0A04"/>
<path d="M119.155 84.8707C122.695 75.0927 136.926 74.1077 141.111 83.7067C141.063 85.8437 140.979 90.1239 140.944 92.261C143.624 98.326 148.889 103.203 145.94 110.581C164.344 121.392 178.742 139.915 182.175 161.292C172.385 158.116 173.346 170.438 171.525 176.7C174.122 156.32 163.192 136.507 147.313 124.413C140.532 118.527 130.378 116.396 121.811 118.64C104.667 125.422 92.4056 142.053 88.9612 159.949C87.7494 164.355 87.7255 169.035 88.806 173.5C89.779 176.992 90.1551 180.95 92.8473 183.642C101.24 181.165 94.1188 168.08 103.258 164.57C110.051 164.713 110.684 172.622 110.583 177.78C110.595 180.269 114.015 179.505 115.096 178.168C116.6 178.049 118.092 177.923 119.597 177.768C123.554 177.673 119.74 170.82 120.677 168.187C121.614 163.602 127.894 161.286 131.912 163.262C140.257 165.978 130.843 182.711 144.406 177.917C151.539 179.362 145.206 167.859 151.408 166.002C156.661 162.194 161.198 166.838 162.398 171.691C162.267 173.327 162.129 174.968 161.974 176.628C156.148 175.464 152.644 184.514 148.752 188.191C148.256 188.239 147.259 188.334 146.752 188.376C146.256 188.316 145.271 188.209 144.764 188.155C136.371 186.872 127.793 186.722 119.4 188.107C117.555 188.251 115.699 188.364 113.854 188.448C112.194 187.886 110.338 188.095 109.049 189.331C102.936 191.755 92.6921 191.08 90.0595 198.721C89.8626 209.227 86.6748 224.479 90.3998 233.189C93.504 232.532 98.0766 231.129 95.1217 226.055C93.6532 220.086 98.3213 213.985 104.38 214.254C112.326 216.886 104.601 232.108 114.946 226.921C116.296 227.369 119.591 228.342 119.507 225.972C118.015 219.381 121.22 206.237 130.73 210.284C137.171 212.737 136.216 220.39 136.138 226.043C131.273 228.336 127.876 232.658 124.187 236.418C121.459 236.699 118.755 237.159 116.057 237.654C106.834 238.735 96.62 240.09 89.3671 246.328C89.0507 254.082 88.991 261.866 89.182 269.657C91.731 268.319 94.0949 266.66 96.423 264.965C102.172 263.657 107.926 262.368 113.711 261.24C121.22 260.135 128.814 260.04 136.395 260.147C134.574 262.213 132.353 264.093 131.309 266.72C133.989 267.12 136.538 267.908 138.962 269.084C132.849 269.495 126.587 268.827 120.582 270.331C118.856 270.624 115.376 271.191 113.633 271.483C106.44 272.576 99.2347 274.456 92.7399 277.745C84.5378 281.482 88.9671 291.869 87.8031 299.086C87.7195 294.538 83.8214 292.95 79.8338 294C79.8219 285.446 79.8099 276.892 79.786 268.355C79.8099 261.281 79.8338 254.243 79.7741 247.199C79.7383 230.252 80.0188 213.305 79.4816 196.369C79.8099 193.325 81.9052 190.961 83.1707 188.292C81.7858 183.26 78.9503 178.705 78.1504 173.518C78.4071 168.945 78.6578 164.468 78.2937 159.931C82.1261 140.142 94.7098 121.428 112.684 111.924C114.552 113.065 117.716 111.489 115.364 109.525C110.296 103.436 119.394 98.314 119.68 92.1654C120.385 89.7299 120.152 87.157 119.161 84.8528L119.155 84.8707ZM131.458 90.7328C135.398 92.4221 134.502 85.396 131.518 84.8229C125.972 84.0708 125.745 95.7412 131.458 90.7328ZM123.059 102.827C121.334 101.735 121.364 108.188 123.28 107.388C125.184 111.781 142.508 108.295 137.642 102.863C136.998 100.63 133.577 101.418 131.685 100.642C131.1 100.511 129.924 100.254 129.333 100.135C127.053 100.206 123.501 99.7587 123.059 102.827Z" fill="#1D0C06"/>
<path d="M128.242 120.43C146.67 132.877 144.975 158.522 144.413 177.923C130.851 182.716 140.265 165.984 131.919 163.268C127.902 161.292 121.622 163.608 120.685 168.192C120.141 171.285 119.885 174.586 119.604 177.773C118.1 177.929 116.607 178.054 115.103 178.173C113.623 177.714 112.118 177.6 110.59 177.785C110.698 172.628 110.059 164.718 103.266 164.575C107.355 160.259 106.215 153.597 107.886 148.344C111.587 137.05 121.634 129.82 128.242 120.43Z" fill="#449386"/>
<path d="M171.524 176.706C173.345 170.444 172.384 158.123 182.174 161.298L182.418 162.295C182.359 165.949 182.287 169.733 182.251 173.446C182.723 178.532 175.894 187.469 180.556 189.886C207.974 191.964 235.607 190.25 263.114 190.758C267.46 191.594 271.871 191.898 276.313 191.695C280.73 192.955 284.783 196.405 285.858 201.002C284.963 238.329 285.661 275.674 285.458 313.025C285.667 372.678 284.974 432.35 285.81 491.991C285.374 502.169 288.974 519.737 275.059 522.334C239.272 522.591 203.383 521.146 167.644 523.074C161.579 523.283 155.502 523.146 149.449 523.731C133.182 523.176 116.909 523.259 100.63 523.534C100.135 523.462 99.1379 523.313 98.6424 523.241C97.0546 521.444 94.5533 521.749 92.5774 522.62C84.4828 520.645 78.8834 513.087 79.9221 504.825C82.0472 487.985 80.5429 470.942 80.9429 454.031C80.919 438.659 81.1637 423.288 80.6981 407.94C80.8653 405.756 81.0503 403.595 81.2175 401.428C82.8292 389.25 81.9935 376.947 82.1248 364.727C81.504 356.149 83.6291 346.884 81.104 338.694C78.5789 334.157 75.3315 329.985 73.5586 325.096C73.5705 321.275 73.6541 317.634 73.6422 313.885C74.0779 310.572 76.1195 307.844 77.5582 304.919C78.4954 303.17 78.7461 301.17 79.0864 299.254C79.3908 297.505 79.6415 295.738 79.8385 294C83.8202 292.956 87.7242 294.544 87.8078 299.086C92.3446 299.11 98.923 294.621 104.731 294.054C108.88 293.935 112.969 293.206 117.058 292.645C125.004 292.914 132.961 293.129 140.907 293.021C151.861 292.09 162.319 295.851 172.628 298.931C172.76 290.843 175.482 278.504 164.826 276.498C158.349 273.561 151.479 271.561 144.411 270.66C143.903 270.588 142.882 270.439 142.375 270.367C141.235 269.931 140.095 269.508 138.966 269.084C136.543 267.908 133.994 267.12 131.314 266.72C132.358 264.099 134.579 262.219 136.4 260.147C139.772 260.052 143.169 260.159 146.554 260.279C154.732 261.831 162.868 263.944 170.354 267.693C173.494 269.537 174.27 267.812 172.682 262.535C172.121 256.989 173.978 250.972 171.787 245.707C164.361 241.111 155.687 238.783 147.085 237.601C144.333 237.105 141.587 236.669 138.835 236.329C134.71 235.565 130.585 235.553 126.472 236.305C125.899 236.341 124.771 236.401 124.204 236.425C127.893 232.664 131.29 228.342 136.155 226.05C137.671 227.673 140.011 227.697 142.005 227.166C155.036 232.771 147.449 215.603 156.505 213.472C161.089 213.132 166.026 217 166.14 221.841C168.301 224.39 164.379 231.774 169.112 232.556C175.118 236.15 169.268 222.862 171.5 221.346C170.551 213.424 173.297 203.694 170.348 196.572C163.931 192 156.433 189.57 148.756 188.191C152.649 184.514 156.147 175.464 161.979 176.628L161.883 177.744C160.486 178.789 159.591 182.269 162.08 182.413C162.636 182.484 163.74 182.598 164.289 182.669C168.659 183.917 170.097 179.881 171.518 176.7L171.524 176.706ZM182.102 201.384C182.795 203.945 179.189 211.114 183.218 210.762C203.115 217.448 229.643 208.762 250.184 215.275C232.98 218.988 212.755 214.355 197.312 217.788C195.313 217.292 194.107 217.716 193.659 219.059C189.803 218.826 185.917 218.952 182.072 219.071C181.851 225.208 181.941 231.351 182.389 237.499C182.412 259.079 180.628 284.025 183.224 303.534C184.209 306.262 186.024 308.59 187.785 310.858L187.845 312.046C187.373 318.26 189.504 325.185 185.624 330.695C183.415 335.727 176.646 339.052 179.899 345.643C179.404 353.457 179.535 361.307 179.863 369.151C180.323 381.042 177.911 397.625 181.171 406.651C181.016 425.634 179.655 447.524 182.018 464.615C179.481 473.36 189.283 470.196 194.96 470.465L195.008 471.593C216.642 472.041 238.293 471.133 259.914 472.089C233.953 476.625 206.887 470.68 181.207 477.909C177.058 479.801 177.87 485.61 181.983 487.03C182.58 487.018 183.779 487.018 184.394 487.018L184.442 488.075C213 487.478 244.806 489.627 271.28 486.959C272.964 486.386 274.498 485.466 275.99 484.523C280.563 481.807 279.596 475.366 280.199 470.96C280.378 438.665 279.799 406.454 280.754 374.129C282.999 340.974 278.157 305.45 277.19 274.212C276.593 251.45 278.73 225.757 276.074 204.894C275.781 204.601 275.19 204.01 274.886 203.73C274.593 203.425 274.003 202.834 273.71 202.542C273.125 202.237 271.961 201.634 271.37 201.342L271.334 200.214C242.012 200.93 209.353 198.614 182.108 201.378L182.102 201.384ZM110.361 303.534C100.654 304.274 87.2108 306.542 83.271 316.84C81.1816 316.523 81.2354 321.269 83.271 321.144C83.0023 324.308 84.9544 329.722 89.0196 328.122C95.801 325.125 102.678 322.284 110.02 320.977C119.995 321.681 130.036 321.209 140.023 320.953C141.844 321.162 143.688 321.293 145.533 321.096C154.702 323.4 164.092 325.233 172.658 329.382C177.876 327.209 180.084 319.192 176.938 314.524C169.745 306.029 157.197 304.817 146.828 303.773C135.85 301.283 120.055 301.856 110.361 303.54V303.534ZM113.769 331.835C113.196 331.978 112.056 332.235 111.477 332.366C110.116 331.179 106.057 330.665 105.836 332.975C101.102 333.208 95.598 335.417 92.7326 339.028C89.5927 342.061 92.464 352.334 91.5925 357.689C91.9447 371.24 90.1359 387.119 92.7326 398.891C100.487 396.318 108.331 393.99 116.438 392.778C116.885 392.73 117.763 392.635 118.21 392.587C126.239 393.434 134.334 392.831 142.375 392.611C143.187 392.706 144.811 392.879 145.616 392.975L146.781 392.73C153.395 394.915 160.528 395.219 167.005 397.971C165.405 399.511 171.446 399.452 170.259 397.607C169.53 380.367 171.811 360.119 169.142 344.747C169.859 334.181 153.902 334.02 146.554 332.892C146.685 330.779 143.026 331.095 142.077 332.36C140.548 331.853 138.972 331.668 137.355 331.787C132.43 329.823 118.843 329.698 113.769 331.835ZM114.133 403.386C104.134 403.941 86.0587 406.758 91.6402 421.33C91.4313 424.362 91.3835 427.431 91.485 430.541C88.548 442.575 91.2403 460.108 90.4165 474.035C90.709 485.574 88.9957 499.853 91.5566 509.189C91.7775 511.457 95.4965 511.493 97.3769 511.666C101.066 514.783 110.635 511.822 116.181 512.759C132.704 512.174 152.093 514.287 166.766 511.643C168.295 511.875 170.408 511.034 170.259 509.219L171.387 509.267C171.542 476.739 171.482 444.205 171.399 411.683L170.294 411.868C164.737 405.182 154.804 404.58 146.745 403.475L145.449 403.439C145.133 401.171 141.145 401.702 139.772 402.878C133.2 401.959 126.222 401.929 119.643 402.771C118.282 401.774 114.402 401.231 114.145 403.368L114.133 403.386ZM182.078 498.719C181.893 501.763 181.869 504.855 182.018 507.965C181.499 510.043 181.899 511.278 183.23 511.631L183.242 512.735C207.114 513.559 231.136 511.422 254.918 513.863C259.926 513.642 269.89 515.391 272.182 511.452C273.662 511.111 274.594 510.335 274.97 509.123C277.238 509.852 275.59 505.822 276.086 504.575C279.739 494.349 267.388 498.134 262.828 497.793C254.823 497.089 246.764 497.441 238.759 497.877C220.271 497.734 198.554 496.205 182.078 498.713V498.719Z" fill="#190702"/>
<path d="M113.866 188.454C115.71 188.37 117.567 188.257 119.411 188.113C127.852 188.794 136.323 188.292 144.776 188.161C146.22 200.715 145.48 213.382 145.552 226.002C144.68 226.097 142.931 226.27 142.048 226.366C140.132 225.733 138.108 225.769 136.15 226.049C136.234 220.396 137.183 212.743 130.742 210.29C121.232 206.249 118.027 219.387 119.519 225.978C117.919 225.506 116.23 225.847 114.958 226.927C104.619 232.109 112.338 216.892 104.392 214.26C110.433 213.704 100.088 212.499 99.9867 209.186C95.6409 197.599 111.257 200.452 115.537 194.763C116.582 192.859 116.958 189.265 113.925 189.265L113.866 188.454Z" fill="#449386"/>
<path d="M144.775 188.161C145.283 188.221 146.268 188.328 146.763 188.382C145.659 200.321 148.876 215.764 145.551 226.002C145.48 213.382 146.22 200.709 144.775 188.161Z" fill="#61B4A6"/>
<path d="M146.763 188.388C147.271 188.34 148.268 188.245 148.763 188.203C156.44 189.576 163.938 192.011 170.355 196.584C169.048 208.422 172.576 221.065 169.119 232.568C164.385 231.78 168.307 224.402 166.146 221.853C166.027 217.012 161.09 213.143 156.512 213.484C147.45 215.609 155.043 232.783 142.012 227.178L142.059 226.378C142.943 226.282 144.692 226.109 145.564 226.014C148.889 215.776 145.671 200.333 146.775 188.394L146.763 188.388Z" fill="#36766B"/>
<path d="M90.0664 198.727C92.699 191.086 102.949 191.76 109.055 189.337C110.691 189.88 112.321 189.856 113.921 189.265C116.953 189.265 116.577 192.859 115.532 194.763C111.252 200.452 95.636 197.593 99.9817 209.185C100.089 212.498 110.428 213.71 104.387 214.259C98.3222 213.991 93.66 220.086 95.1285 226.061C98.0775 231.135 93.5048 232.538 90.4067 233.195C90.3589 221.692 90.5022 210.206 90.0664 198.727Z" fill="#FDFBF9"/>
<path d="M78.6206 247.217C79.0086 230.27 77.5998 213.227 79.4802 196.375C80.0234 213.31 79.7369 230.258 79.7727 247.205L78.6206 247.217Z" fill="#C1BFB5"/>
<path d="M170.349 196.578C173.298 203.699 170.546 213.43 171.501 221.351C169.268 222.867 175.119 236.161 169.113 232.562C172.57 221.059 169.042 208.409 170.349 196.578Z" fill="#604030"/>
<path d="M90.4046 233.194C86.6796 224.485 89.8613 209.233 90.0643 198.727C90.5001 210.206 90.3568 221.691 90.4046 233.194Z" fill="#655A58"/>
<path d="M285.864 201.007C287.852 238.143 285.983 275.715 286.616 313.019L285.464 313.031C285.661 275.68 284.969 238.334 285.864 201.007Z" fill="#3B372F"/>
<path d="M193.959 202.619C220.529 202.386 247.117 202.643 273.7 202.547C273.992 202.84 274.583 203.431 274.876 203.735C275.449 257.879 273.735 312.213 275.711 366.261C276.631 393.255 275.544 420.273 276.296 447.273C275.896 459.684 276.105 472.106 275.98 484.529C274.488 485.472 272.947 486.385 271.27 486.964C266.196 486.928 261.14 486.952 256.072 486.845L255.6 485.645C257.677 483.281 262.334 484.129 262.262 480.171C263.814 479.855 265.378 479.598 266.882 479.09C267.187 478.774 267.79 478.117 268.094 477.795C270.207 425.049 268.411 371.824 268.99 318.893C268.369 283.965 270.225 248.733 268.19 213.991C267.802 212.839 267.294 211.758 266.697 210.737C243.816 208.033 218.78 210.421 195.087 209.585C194.771 207.245 194.275 204.941 193.959 202.631V202.619Z" fill="#FC968C"/>
<path d="M274.874 203.735C275.178 204.016 275.769 204.607 276.062 204.899C276.05 228.019 276.026 251.133 276.05 274.253C276.235 298.818 275.614 323.388 276.39 347.953C276.181 354.018 276.134 360.166 275.71 366.261C273.734 312.213 275.453 257.879 274.874 203.735Z" fill="#DB8378"/>
<path d="M276.063 204.899C278.72 225.762 276.583 251.449 277.179 274.217L276.051 274.253C276.027 251.133 276.051 228.019 276.063 204.899Z" fill="#4E130E"/>
<path d="M183.219 210.761C187.147 210.785 191.057 210.713 194.997 210.749C218.887 210.821 242.795 210.773 266.697 210.725C267.294 211.746 267.801 212.826 268.189 213.978C267.389 248.942 268.01 283.917 267.837 318.904C268.004 371.86 267.461 424.827 268.094 477.789C267.789 478.105 267.186 478.762 266.882 479.084C243.32 478.368 219.729 478.863 196.167 478.732C192.711 480.32 183.548 475.98 182.073 479.92C181.942 482.272 181.954 484.642 181.966 487.029C177.853 485.609 177.041 479.8 181.19 477.908C206.871 470.679 233.936 476.625 259.898 472.088C260.381 471.891 261.318 471.515 261.802 471.312C262.082 386.849 261.957 302.357 261.862 217.894C240.342 217.614 218.821 217.978 197.307 217.787C212.751 214.355 232.975 218.987 250.179 215.274C229.638 208.761 203.11 217.447 183.213 210.761H183.219Z" fill="#240101"/>
<path d="M268.19 213.979C270.225 248.722 268.369 283.953 268.99 318.881L267.838 318.905C268.017 283.918 267.39 248.942 268.19 213.979Z" fill="#BF6B64"/>
<path d="M193.654 219.059C194.102 217.722 195.314 217.298 197.308 217.788C218.828 217.973 240.348 217.609 261.862 217.895C261.957 302.358 262.083 386.85 261.802 471.313C261.319 471.51 260.382 471.886 259.898 472.089C238.27 471.139 216.625 472.041 194.992 471.593L194.944 470.465C216.852 470.417 238.766 470.674 260.674 470.405C260.805 386.635 260.907 302.841 260.626 219.077C238.294 218.856 215.98 219.006 193.648 219.053L193.654 219.059Z" fill="#643531"/>
<path d="M182.068 219.071C185.912 218.952 189.798 218.826 193.654 219.059C196.466 244.501 194.054 270.146 195.195 295.672C194.234 296.4 193.266 297.128 192.317 297.881C187.583 300.442 187.757 306.107 187.78 310.858C186.019 308.59 184.211 306.262 183.22 303.534C182.724 281.524 184.217 259.437 182.384 237.499C181.936 231.351 181.841 225.208 182.068 219.071Z" fill="#864838"/>
<path d="M193.652 219.058C215.984 219.011 238.298 218.861 260.63 219.082C260.911 302.84 260.809 386.634 260.678 470.41C238.77 470.679 216.856 470.422 194.948 470.47C194.995 443.052 194.9 415.622 195.007 388.204C202.798 388.395 204.302 398.066 211.37 398.842C214.862 397.206 216.892 393.272 219.488 390.413C222.216 386.64 228.89 389.004 230.902 384.264C227.41 372.97 243.068 373.567 243.76 364.237C243.492 357.622 249.569 354.291 252.255 349.086C253.795 345.325 248.715 344.352 246.757 342.185C249.975 339.069 257.52 335.487 250.458 331.583C241.713 326.682 247.181 312.732 237.176 309.711C230.042 308.78 232.83 298.596 226.586 296.727C222.921 295.319 219.076 294.328 215.596 292.483C214.856 289.051 212.695 284.186 208.307 286.287C204.702 290.448 201.454 295.945 195.192 295.665C194.052 270.139 196.464 244.494 193.652 219.052V219.058Z" fill="#BD7C73"/>
<path d="M114.959 226.932C116.23 225.852 117.92 225.512 119.52 225.983C119.603 228.359 116.314 227.38 114.959 226.932Z" fill="#7D6F64"/>
<path d="M136.15 226.049C138.114 225.768 140.132 225.732 142.048 226.365L142.001 227.165C140.001 227.696 137.667 227.672 136.15 226.049Z" fill="#64554A"/>
<path d="M126.467 236.311C130.58 235.558 134.705 235.57 138.83 236.335C134.693 236.335 130.58 236.555 126.467 236.311Z" fill="#21100C"/>
<path d="M116.061 237.666C118.765 237.171 121.469 236.717 124.191 236.43C124.752 236.407 125.886 236.347 126.459 236.311C130.572 236.556 134.685 236.335 138.822 236.335C141.574 236.675 144.32 237.111 147.072 237.606C146.744 238.299 146.087 239.684 145.747 240.37C136.309 239.809 126.746 239.839 117.636 242.591C117.105 240.943 116.58 239.302 116.061 237.666Z" fill="#61B4A6"/>
<path d="M89.3715 246.334C96.6244 240.096 106.838 238.741 116.061 237.66C116.58 239.296 117.106 240.937 117.637 242.585C117.213 242.764 116.366 243.128 115.942 243.301C109.327 245.522 102.11 246.895 96.3259 251.008C96.2304 255.652 96.2662 260.302 96.4214 264.971C94.0933 266.666 91.7294 268.32 89.1804 269.663C88.9954 261.872 89.0491 254.088 89.3655 246.334H89.3715Z" fill="#FDFBF9"/>
<path d="M147.079 237.606C155.681 238.794 164.355 241.122 171.781 245.713C170.808 252.906 173.029 260.78 170.348 267.705C162.863 263.956 154.732 261.843 146.548 260.291C146.584 253.629 147.557 246.871 145.748 240.37C146.088 239.69 146.745 238.305 147.073 237.606H147.079Z" fill="#36766B"/>
<path d="M182.383 237.499C184.215 259.443 182.723 281.524 183.218 303.534C180.622 284.026 182.407 259.073 182.383 237.499Z" fill="#582D1F"/>
<path d="M117.194 242.511C126.303 239.759 135.866 239.724 145.304 240.291C147.113 246.791 146.14 253.549 146.104 260.211C142.719 260.092 139.323 259.99 135.95 260.08C128.368 259.972 120.775 260.068 113.266 261.172C118.471 257.328 115.051 249.042 115.498 243.228C115.922 243.049 116.77 242.684 117.194 242.511Z" fill="#449386"/>
<path d="M96.3333 251.013C102.118 246.9 109.329 245.527 115.949 243.307C115.501 249.127 118.922 257.407 113.716 261.251C107.932 262.379 102.177 263.675 96.4288 264.976C96.2736 260.308 96.2437 255.658 96.3333 251.013Z" fill="#4F9F92"/>
<path d="M171.782 245.713C173.967 250.978 172.111 256.996 172.678 262.541C174.266 267.818 173.49 269.543 170.35 267.699C173.03 260.774 170.809 252.901 171.782 245.707V245.713Z" fill="#4E2F21"/>
<path d="M78.6216 247.217L79.7738 247.205C79.8335 254.243 79.8096 261.287 79.7857 268.361H78.6336C78.5739 261.299 78.5858 254.249 78.6216 247.217Z" fill="#7E7C79"/>
<path d="M78.6336 268.361H79.7858C79.8096 276.892 79.8216 285.452 79.8335 294.006C79.6365 295.743 79.3858 297.51 79.0814 299.259C78.8485 293.146 78.5739 287.105 78.377 281.028C78.6456 276.82 78.5978 272.534 78.6336 268.361Z" fill="#3A3736"/>
<path d="M120.576 270.337C126.581 268.833 132.843 269.502 138.956 269.09C140.085 269.514 141.225 269.937 142.365 270.373C135.1 270.666 127.841 270.69 120.576 270.337Z" fill="#7A6E66"/>
<path d="M352.676 273.298C358.06 266.684 369.683 268.529 372.9 276.462C371.605 278.707 371.713 281.411 372.68 283.763C373.127 286.7 376.56 287.536 378.488 289.38C394.743 301.158 403.405 327.692 387.574 343.452C387 347.398 384.386 354.43 387.681 357.659C394.11 359.808 398.444 364.972 400.032 371.598C398.683 373.878 398.796 376.666 400.056 378.964C398.319 386.217 392.851 391.435 387.562 396.324C386.105 405.893 385.329 417.748 387.55 427.138C391.895 429.747 394.426 434.063 396.456 438.618C395.143 440.898 395.304 443.65 396.528 445.948C394.868 451.846 390.731 456.622 388.242 462.096C387.018 478.548 388.033 495.083 387.645 511.595C386.081 512.651 385.144 514.424 385.377 516.341C372.674 527.527 345.656 528.327 335.639 513.099C335.108 495.907 337.943 477.676 334.958 460.956C324.673 452.413 323.36 435.239 334.994 427.216C335.991 417.11 337.674 404.92 334.958 395.178C329.836 391.572 325.461 386.48 323.771 380.379C323.795 376.994 323.855 373.634 323.939 370.309C324.5 363.76 330.744 360.346 335.973 357.594C337.573 354.681 338.498 347.828 336.128 344.598C332.559 340.097 328.499 335.62 327.335 329.835C327.556 325.251 327.807 320.786 327.467 316.237C329.58 304.614 337.066 293.977 347.07 287.739C352.807 285.046 348.306 277.149 352.688 273.292L352.676 273.298ZM359.762 276.719C356.884 278.283 358.365 283.381 361.833 282.491C366.627 283.739 364.161 274.158 359.762 276.719ZM357.398 292.795C347.035 296.388 339.591 307.241 337.173 317.711C335.149 318.499 335.161 326.266 337.137 327.161C336.869 331.817 340.486 339.727 345.268 333.954C350.366 332.319 358.723 331.662 354.526 323.388C356.407 321.717 357.792 319.251 360.365 318.583C367.474 317.443 370.31 325.961 369.086 331.614C373.718 331.793 378.207 332.802 382.649 334.014C390.994 318.78 379.664 299.331 365.069 292.866C364 290.878 358.544 290.95 357.392 292.795H357.398ZM356.001 341.13C354.317 341.703 350.079 339.954 350.151 342.306C348.175 342.222 345.626 341.894 346.557 344.741C344.498 345.237 344.36 355.964 346.593 355.307C348.109 355.379 349.637 355.367 351.166 355.272C354.735 355.492 358.287 355.331 361.893 355.272C366.949 355.564 372.011 355.295 377.103 355.272C376.822 352.37 376.267 346.55 375.987 343.637C372.954 338.091 359.242 340.437 356.007 341.136L356.001 341.13ZM349.118 364.697C343.429 364.888 335.943 366.19 333.555 372.052C331.43 372.595 331.454 377.997 333.544 378.612C333.639 382.033 336.355 386.558 340.289 384.265C347.047 380.624 354.873 381.197 362.293 380.893C365.218 381.466 368.226 381.513 371.295 381.036C376.816 381.621 388.35 389.298 390.003 379.931C393.907 367.957 379.628 364.656 371.223 364.656C370.602 364.715 369.355 364.823 368.746 364.864C367.814 362.053 363.009 363.115 360.824 364.041C358.812 363.653 356.687 363.205 354.747 364.1C353.386 362.912 349.339 362.399 349.118 364.697ZM350.067 391.715C348.42 391.751 346.485 391.494 345.554 393.184C345.035 403.583 345.518 414.035 345.321 424.482C347.166 423.974 348.999 423.449 350.867 423.025C358.484 424.189 366.239 423.294 373.903 423.204C374.691 423.276 376.267 423.413 377.067 423.485C377.199 413.767 377.264 404.048 377.008 394.348C369.474 388.635 356.932 389.799 350.073 391.715H350.067ZM348.915 432.839C344.378 432.499 338.253 433.991 337.089 439.047C334.952 439.603 334.988 444.981 337.054 445.608C336.546 448.133 337.973 450.193 339.895 451.649C339.34 453.81 344.301 453.906 343.984 451.792C345.381 451.792 346.653 451.357 347.769 450.467C355.171 448.503 362.943 449.667 370.501 449.584C373.3 451.524 383.544 454.377 385.287 448.127C385.556 445.847 388.791 440.629 385.454 440.032C377.861 428.398 358.669 431.747 348.915 432.851V432.839ZM352.443 459.869C350.187 459.565 349.154 459.786 349.339 460.526C345.662 460.538 344.862 463.982 345.357 466.967C343.125 477.993 343.596 498.713 345.453 508.992C346.76 510.228 348.014 511.989 350.085 511.661C353.434 514.824 366.656 512.872 370.101 511.672C372.686 511.905 375.085 510.64 377.013 509.04C377.234 493.525 377.234 478.01 377.013 462.526C374.238 459.833 370.268 459.6 366.591 459.917C365.039 456.884 353.72 458.365 352.455 459.869H352.443Z" fill="#1C0A05"/>
<path d="M113.631 271.489C115.368 271.197 118.848 270.63 120.579 270.337C127.844 270.689 135.103 270.665 142.368 270.373C142.875 270.445 143.896 270.594 144.404 270.665C149.114 273.71 146.356 278.515 141.174 276.39C134.381 275.393 127.343 274.665 120.561 276.145C119.821 276.289 118.353 276.569 117.613 276.707C118.974 273.089 117.965 270.713 113.643 271.489H113.631Z" fill="#5AAC9E"/>
<path d="M143.954 270.591C151.016 271.499 157.892 273.493 164.369 276.43C161.832 284.47 151.374 275.23 145.273 277.689C143.769 282.357 149.01 293.872 140.479 291.861C132.546 292.141 124.415 290.697 116.607 292.577C112.518 293.138 108.429 293.872 104.28 293.986C97.3796 294.595 91.9772 292.714 94.7351 284.984C101.469 280.638 109.414 278.405 117.157 276.627C117.897 276.483 119.365 276.203 120.105 276.065C126.97 276.394 133.841 276.418 140.718 276.31C145.9 278.435 148.664 273.63 143.948 270.585L143.954 270.591Z" fill="#449386"/>
<path d="M92.7342 277.751C99.235 274.462 106.44 272.582 113.628 271.489C117.949 270.713 118.964 273.089 117.597 276.707C109.855 278.48 101.909 280.712 95.1758 285.064C92.4119 292.795 97.8203 294.675 104.721 294.066C98.9127 294.627 92.3343 299.122 87.7975 299.098C88.9615 291.881 84.5321 281.494 92.7342 277.757V277.751Z" fill="#FDFBF9"/>
<path d="M276.05 274.247L277.178 274.212C278.139 305.45 282.987 340.975 280.742 374.129C279.793 406.448 280.366 438.66 280.187 470.96C279.59 475.366 280.551 481.807 275.979 484.523C276.11 472.101 275.895 459.678 276.295 447.268C277.692 414.28 277.996 380.869 276.39 347.947C275.614 323.382 276.235 298.812 276.05 274.247Z" fill="#2A0602"/>
<path d="M120.553 276.139C127.334 274.659 134.372 275.387 141.165 276.384C134.289 276.491 127.418 276.467 120.553 276.139Z" fill="#61B4A6"/>
<path d="M164.814 276.504C175.476 278.516 172.748 290.855 172.616 298.937C162.307 295.857 151.849 292.096 140.895 293.028L140.918 291.935C149.449 293.947 144.208 282.426 145.712 277.763C151.813 275.31 162.271 284.545 164.808 276.504H164.814Z" fill="#36766B"/>
<path d="M359.761 276.718C364.154 274.157 366.625 283.733 361.832 282.491C358.364 283.386 356.883 278.282 359.761 276.718Z" fill="#DCA160"/>
<path d="M77.2656 294.496C77.4984 289.971 77.8745 285.482 78.37 281.029C78.567 287.106 78.8416 293.147 79.0744 299.26C78.7341 301.176 78.4894 303.176 77.5462 304.925C77.5343 301.456 77.3671 297.899 77.2656 294.502V294.496Z" fill="#D6D7D5"/>
<path d="M208.309 286.293C212.69 284.192 214.857 289.057 215.598 292.49C219.078 294.334 222.922 295.319 226.587 296.734C232.826 298.603 230.044 308.792 237.177 309.718C247.176 312.738 241.714 326.689 250.459 331.59C257.521 335.494 249.976 339.076 246.758 342.192C248.722 344.353 253.796 345.332 252.256 349.093C249.564 354.298 243.487 357.623 243.762 364.243C243.069 373.573 227.411 372.977 230.903 384.271C228.892 389.005 222.218 386.647 219.49 390.419C216.893 393.273 214.857 397.213 211.371 398.848C204.309 398.072 202.805 388.402 195.009 388.211L194.877 387.28C194.865 385.668 194.854 384.086 194.83 382.498C200.459 384.474 206.321 385.686 209.485 391.488C214.666 393.392 214.01 384.157 218.946 384.187C224.403 385.327 225.549 381.167 226.516 377.478C227.525 368.38 242.663 368.768 239.547 357.629C239.064 352.871 244.341 351.307 246.985 348.358C244.317 346.747 240.884 345.559 240.007 342.198C239.655 338.085 246.036 335.184 243.708 331.375C236.055 327.31 241.619 314.028 231.518 312.864C224.104 312.452 229.507 302.853 223.853 300.698C217.579 301.522 213.771 296.549 209.365 293.284C205.802 298.173 200.447 300.489 194.686 301.546C193.863 300.334 193.051 299.122 192.311 297.892C193.26 297.14 194.227 296.412 195.188 295.683C201.45 295.964 204.697 290.466 208.303 286.305L208.309 286.293Z" fill="#FCE3AB"/>
<path d="M117.053 292.651C124.855 290.77 132.991 292.215 140.925 291.934L140.901 293.027C132.955 293.134 124.998 292.919 117.053 292.651Z" fill="#3E2C29"/>
<path d="M357.396 292.794C358.549 290.949 363.999 290.878 365.073 292.866C363.593 292.973 362.112 293.086 360.632 293.206C359.82 293.098 358.208 292.889 357.402 292.794H357.396Z" fill="#785D50"/>
<path d="M209.366 293.278C213.771 296.543 217.58 301.516 223.854 300.692C229.507 302.841 224.098 312.446 231.518 312.858C241.613 314.022 236.055 327.304 243.708 331.369C246.036 335.178 239.655 338.079 240.007 342.192C240.891 345.553 244.323 346.741 246.985 348.352C244.341 351.301 239.064 352.865 239.547 357.623C242.663 368.762 227.525 368.374 226.516 377.472C225.555 381.161 224.403 385.322 218.947 384.181C214.01 384.146 214.666 393.386 209.485 391.482C206.321 385.674 200.459 384.468 194.83 382.492L194.758 381.447C194.663 355.438 195.934 329.34 194.102 303.39C194.257 302.931 194.549 302.005 194.687 301.546C200.447 300.489 205.802 298.173 209.366 293.284V293.278ZM205.909 336.748C196.531 341.129 206.84 355.999 214.571 349.063C222.385 344.598 213.676 332.044 205.909 336.748Z" fill="#BE7D75"/>
<path d="M337.173 317.711C339.597 307.24 347.035 296.394 357.398 292.794C358.21 292.889 359.822 293.098 360.628 293.206C364.932 300.315 362.46 309.353 363.941 317.251C362.753 317.687 361.565 318.134 360.371 318.576C357.798 319.245 356.413 321.716 354.533 323.382C344.295 319.74 345.131 327.286 345.274 333.948C340.492 339.72 336.869 331.811 337.144 327.154C337.132 323.979 337.144 320.833 337.179 317.705L337.173 317.711Z" fill="#F9F2E8"/>
<path d="M187.778 310.857C187.754 306.112 187.581 300.447 192.315 297.88C193.055 299.115 193.867 300.321 194.691 301.533C194.548 301.993 194.255 302.918 194.106 303.378C192.87 307.89 194.165 315.543 187.844 312.039L187.784 310.851L187.778 310.857Z" fill="#EE9B6B"/>
<path d="M109.916 303.46C119.61 301.777 135.406 301.204 146.384 303.693C146.127 309.477 145.476 315.232 145.088 321.017C143.244 321.214 141.399 321.088 139.578 320.873C132.069 319.745 124.488 319.954 116.93 319.924C116.99 315.226 117.002 310.534 116.978 305.878C116.978 302.648 114.626 301.836 109.916 303.454V303.46Z" fill="#449386"/>
<path d="M83.2715 316.839C87.2114 306.542 100.655 304.273 110.361 303.533C115.071 301.909 117.423 302.721 117.423 305.957C111.627 310.529 103.484 308.744 97.2341 312.583C94.8463 313.502 92.4048 314.356 90.1364 315.568C87.7367 317.269 85.5399 319.245 83.2715 321.137C83.3909 319.692 83.3909 318.26 83.2715 316.833V316.839Z" fill="#FDFBF9"/>
<path d="M146.829 303.772C157.192 304.817 169.746 306.029 176.939 314.523C180.091 319.191 177.876 327.203 172.659 329.381C164.092 325.233 154.702 323.4 145.533 321.096C145.921 315.311 146.566 309.557 146.829 303.772ZM164.671 311.962C159.311 316.523 168.02 321.812 171.817 320.403C176.509 315.854 168.892 311.425 164.671 311.962Z" fill="#36766B"/>
<path d="M194.102 303.384C195.935 329.333 194.663 355.438 194.759 381.441C194.227 377.525 194.538 372.308 190.293 370.368C185.488 368.619 180.372 363.915 182.629 358.321C186.001 353.432 182.097 349.552 179.889 345.642C176.635 339.052 183.405 335.721 185.613 330.695C189.494 325.185 187.362 318.26 187.834 312.046C194.156 315.55 192.866 307.897 194.096 303.384H194.102Z" fill="#864033"/>
<path d="M97.2351 312.583C103.485 308.739 111.634 310.524 117.424 305.957C117.448 310.613 117.436 315.299 117.376 320.003C115.532 320.248 111.854 320.732 110.022 320.976C102.679 322.284 95.8024 325.125 89.0211 328.122C84.9558 329.722 83.0038 324.302 83.2724 321.144C85.5409 319.251 87.7376 317.275 90.1374 315.574C90.3941 326.409 105.252 316.01 97.2351 312.589V312.583Z" fill="#FDFBF9"/>
<path d="M164.67 311.963C168.891 311.42 176.508 315.855 171.816 320.404C168.019 321.812 159.31 316.523 164.67 311.963Z" fill="#155248"/>
<path d="M90.1367 315.568C92.4051 314.356 94.8467 313.497 97.2345 312.583C105.251 316.004 90.3934 326.403 90.1367 315.568Z" fill="#36766B"/>
<path d="M285.465 313.031L286.617 313.019C286.701 369.007 286.51 425.007 286.713 481.007C286.617 484.589 286.796 488.433 285.817 491.997C284.982 432.356 285.674 372.684 285.465 313.031Z" fill="#555450"/>
<path d="M73.5516 325.101C71.9398 321.537 72.9785 317.496 73.6351 313.89C73.6471 317.639 73.5635 321.28 73.5516 325.101Z" fill="#55504A"/>
<path d="M83.2715 321.144C81.2359 321.275 81.1822 316.523 83.2715 316.84C83.3909 318.261 83.3909 319.693 83.2715 321.144Z" fill="#877873"/>
<path d="M327.323 329.834C326.135 325.369 326.607 320.665 327.455 316.236C327.795 320.785 327.55 325.25 327.323 329.834Z" fill="#56564B"/>
<path d="M337.136 327.161C335.16 326.265 335.148 318.499 337.172 317.711C337.136 320.839 337.124 323.985 337.136 327.161Z" fill="#66534C"/>
<path d="M267.836 318.905L268.988 318.881C268.415 371.813 270.212 425.043 268.093 477.784C267.46 424.828 267.997 371.861 267.836 318.899V318.905Z" fill="#A7564E"/>
<path d="M110.021 320.976C111.854 320.731 115.531 320.248 117.376 320.003C124.933 320.039 132.515 319.824 140.024 320.952C130.037 321.209 119.997 321.68 110.021 320.976Z" fill="#64504C"/>
<path d="M345.273 333.948C345.13 327.286 344.3 319.741 354.532 323.382C358.728 331.656 350.371 332.313 345.273 333.948Z" fill="#BFB3A5"/>
<path d="M113.77 331.834C118.85 329.697 132.43 329.823 137.355 331.787C130.305 331.822 123.255 331.775 116.211 331.834H113.764H113.77Z" fill="#6A5148"/>
<path d="M105.836 332.975C106.057 330.659 110.116 331.179 111.477 332.367C109.704 333.155 107.74 333.214 105.836 332.975Z" fill="#92837A"/>
<path d="M111.479 332.366C112.052 332.235 113.192 331.978 113.771 331.835H116.219C114.523 344.962 119.508 359.724 114.147 372.063C113.867 371.335 113.3 369.854 113.019 369.126C112.112 364.261 106.554 360.321 101.981 363.425C94.5076 369.747 98.1012 380.922 97.4685 389.458C100.585 389.327 103.617 388.515 106.673 387.954C108.321 388.575 110.303 388.837 111.742 387.578L112.577 387.047C114.374 386.199 113.706 383.638 114.273 382.074C115.753 385.375 117.49 389.124 116.446 392.783C108.339 393.995 100.495 396.323 92.7406 398.896C92.669 385.148 92.7645 371.406 92.7167 357.671C92.7526 351.421 92.6809 345.248 92.7406 339.034C95.606 335.428 101.11 333.214 105.844 332.981C107.748 333.214 109.712 333.16 111.485 332.372L111.479 332.366Z" fill="#FDFBF9"/>
<path d="M116.217 331.834C123.255 331.774 130.311 331.822 137.361 331.786C138.984 331.667 140.554 331.858 142.082 332.36C143.444 333.1 145.043 333.267 146.56 332.891L146.488 333.924C144.631 353.527 145.933 373.292 145.616 392.98C144.805 392.884 143.181 392.711 142.375 392.616C134.382 391.32 126.204 391.38 118.21 392.592C117.763 392.639 116.885 392.735 116.438 392.783C117.482 389.129 115.745 385.381 114.265 382.073C114.145 378.641 114.008 375.412 114.145 372.063C119.506 359.724 114.521 344.961 116.217 331.834Z" fill="#449386"/>
<path d="M142.082 332.366C143.031 331.095 146.69 330.778 146.559 332.898C145.043 333.274 143.443 333.107 142.082 332.366Z" fill="#948175"/>
<path d="M146.562 332.891C153.904 334.019 169.867 334.187 169.15 344.747C169.067 351.725 169.15 358.745 169.067 365.771C167.67 367.544 166.166 369.251 164.614 370.905C163.605 361.336 151.355 359.467 147.911 368.493L146.831 368.213C146.735 356.763 146.926 345.332 146.49 333.918L146.562 332.885V332.891Z" fill="#36766B"/>
<path d="M145.622 392.98C145.939 373.293 144.638 353.528 146.494 333.924C146.93 345.338 146.739 356.769 146.834 368.219C146.775 376.361 146.751 384.557 146.787 392.736L145.622 392.98Z" fill="#61B4A6"/>
<path d="M205.91 336.747C213.677 332.043 222.386 344.597 214.572 349.062C206.842 355.999 196.532 341.129 205.91 336.747Z" fill="#FEF8ED"/>
<path d="M81.0998 338.7C83.6249 346.89 81.4998 356.155 82.1206 364.733H80.9565C80.8968 356.035 81.0282 347.361 81.0998 338.7Z" fill="#A0968E"/>
<path d="M91.5933 357.689C92.4649 352.329 89.5935 342.061 92.7335 339.029C92.6738 345.243 92.7454 351.415 92.7096 357.665L91.5933 357.689Z" fill="#6D6158"/>
<path d="M356 341.13C359.23 340.437 372.947 338.085 375.98 343.631C380.314 356.018 370.422 354.842 361.761 354.149C359.54 349.32 367.354 336.933 356 341.13Z" fill="#8E766C"/>
<path d="M350.151 342.306C350.08 339.954 354.324 341.709 356.001 341.13C367.355 336.933 359.541 349.32 361.762 354.149C358.222 354.054 354.748 354.149 351.232 354.114C347.316 350.753 357.446 341.082 350.151 342.3V342.306Z" fill="#E3CBC2"/>
<path d="M346.551 344.741C345.62 341.899 348.175 342.227 350.145 342.305C357.445 341.081 347.315 350.758 351.225 354.119L351.154 355.271C349.625 355.366 348.097 355.378 346.581 355.307C346.533 351.701 346.569 348.281 346.545 344.741H346.551Z" fill="#FCFBF9"/>
<path d="M169.151 344.753C171.819 360.125 169.539 380.373 170.267 397.613C171.455 399.458 165.414 399.517 167.014 397.977C172.124 389.775 167.635 375.944 169.073 365.778C169.157 358.752 169.073 351.732 169.157 344.753H169.151Z" fill="#4D2E1F"/>
<path d="M336.116 344.597C338.492 347.826 337.561 354.679 335.961 357.593C336.068 353.277 336.08 348.859 336.116 344.597Z" fill="#C8C3C0"/>
<path d="M346.586 355.306C344.354 355.963 344.497 345.236 346.551 344.74C346.574 348.28 346.539 351.701 346.586 355.306Z" fill="#615D5A"/>
<path d="M179.888 345.642C182.097 349.558 186.001 353.432 182.628 358.321C180.372 363.914 185.482 368.618 190.293 370.367C187.099 369.955 189.213 373.597 188.908 375.423C186.216 373.859 183.476 372.391 180.915 370.63C180.646 370.254 180.115 369.514 179.858 369.15C179.53 361.312 179.399 353.462 179.894 345.642H179.888Z" fill="#DF8964"/>
<path d="M276.391 347.947C278.003 380.862 277.699 414.28 276.296 447.267C275.544 420.273 276.624 393.255 275.711 366.255C276.135 360.154 276.183 354.012 276.391 347.947Z" fill="#4C120B"/>
<path d="M351.23 354.119C354.746 354.155 358.22 354.059 361.76 354.155L361.891 355.271C358.286 355.331 354.734 355.492 351.164 355.271L351.236 354.119H351.23Z" fill="#745E56"/>
<path d="M91.5929 357.688L92.7092 357.665C92.7569 371.4 92.6614 385.142 92.7331 398.89C90.1363 387.112 91.9451 371.239 91.5929 357.688Z" fill="#AEA6A2"/>
<path d="M101.985 363.425C106.557 360.321 112.115 364.261 113.022 369.126C112.843 375.06 112.825 381.077 112.575 387.047L111.739 387.578C110.139 386.617 107.99 386.438 106.671 387.954C103.614 388.515 100.582 389.327 97.4657 389.458C98.0985 380.928 94.5048 369.747 101.979 363.425H101.985Z" fill="#190905"/>
<path d="M349.117 364.697C349.338 362.392 353.385 362.912 354.746 364.1C352.973 364.888 351.01 364.947 349.117 364.697Z" fill="#B6A9A0"/>
<path d="M354.747 364.094C356.687 363.198 358.812 363.646 360.824 364.034C362.597 364.303 366.16 364.846 367.945 365.115C362.209 367.407 351.034 368.028 351.266 376.278C355.159 377.627 360.668 376.17 362.292 380.886C354.878 381.191 347.052 380.617 340.288 384.259C336.349 386.551 333.638 382.026 333.543 378.606C333.686 376.409 333.686 374.224 333.555 372.045C335.943 366.183 343.428 364.876 349.117 364.691C351.01 364.936 352.974 364.882 354.747 364.094Z" fill="#FAF3EE"/>
<path d="M80.9625 364.732H82.1265C81.9952 376.958 82.8309 389.261 81.2192 401.433C80.6521 389.201 81.0401 376.952 80.9625 364.732Z" fill="#423D35"/>
<path d="M367.94 365.121L368.74 364.864C369.349 364.816 370.597 364.709 371.217 364.655C371.229 370.088 371.229 375.573 371.289 381.036C368.221 381.519 365.212 381.471 362.287 380.892C360.663 376.182 355.154 377.639 351.261 376.284C351.029 368.034 362.203 367.413 367.94 365.121Z" fill="#F8E4D9"/>
<path d="M164.611 370.911C166.163 369.251 167.668 367.55 169.065 365.777C167.632 375.943 172.121 389.774 167.005 397.977C160.528 395.225 153.395 394.92 146.781 392.735C146.745 384.557 146.769 376.367 146.828 368.219L147.909 368.499C147.849 374.588 147.885 380.689 148.028 386.808C152.929 389.404 158.779 390.157 164.307 390.616C164.528 384.026 164.45 377.453 164.611 370.905V370.911Z" fill="#36766B"/>
<path d="M113.018 369.127C113.299 369.855 113.866 371.335 114.146 372.064C114.003 375.413 114.146 378.642 114.266 382.075C113.705 383.639 114.373 386.199 112.57 387.047C112.815 381.078 112.839 375.06 113.018 369.127Z" fill="#81756E"/>
<path d="M179.859 369.15C180.115 369.514 180.646 370.254 180.915 370.63C181.148 382.617 180.282 394.664 181.16 406.65C177.906 397.624 180.312 381.041 179.853 369.15H179.859Z" fill="#4D2113"/>
<path d="M180.914 370.631C183.475 372.392 186.215 373.86 188.908 375.424C187.463 380.713 189.779 385.733 194.877 387.268L195.008 388.199C194.901 415.617 194.997 443.047 194.949 470.465C189.272 470.196 179.47 473.354 182.007 464.614C181.314 445.339 183.452 425.771 181.159 406.651C180.276 394.664 181.147 382.617 180.914 370.631Z" fill="#88483C"/>
<path d="M188.91 375.424C189.214 373.604 187.101 369.962 190.295 370.368C194.539 372.308 194.235 377.526 194.76 381.442L194.831 382.486C194.855 384.074 194.867 385.662 194.879 387.268C189.781 385.728 187.465 380.707 188.91 375.424Z" fill="#F9B37B"/>
<path d="M323.766 380.384C322.554 377.131 323.247 373.555 323.933 370.313C323.849 373.638 323.79 376.999 323.766 380.384Z" fill="#635B4B"/>
<path d="M333.543 378.611C331.454 378.002 331.43 372.594 333.555 372.051C333.686 374.224 333.686 376.409 333.543 378.611Z" fill="#8E877A"/>
<path d="M106.674 387.954C107.987 386.438 110.142 386.617 111.742 387.578C110.309 388.838 108.321 388.575 106.674 387.954Z" fill="#807574"/>
<path d="M350.067 391.714C356.931 389.798 369.467 388.634 377.001 394.347C377.258 404.041 377.186 413.76 377.061 423.484C376.261 423.412 374.685 423.275 373.897 423.203C370.255 422.684 366.656 422.38 363.002 422.206C362.167 412.5 364.763 399.701 361.814 391.804C357.875 391.607 353.988 391.768 350.061 391.72L350.067 391.714Z" fill="#C6A291"/>
<path d="M118.211 392.598C126.204 391.386 134.382 391.326 142.375 392.622C134.335 392.843 126.24 393.446 118.211 392.598Z" fill="#7D6D5D"/>
<path d="M345.554 393.184C346.485 391.494 348.419 391.751 350.067 391.715C353.995 391.763 357.881 391.596 361.821 391.799C361.857 401.917 361.845 412.059 361.845 422.189C358.156 422.249 354.455 422.058 350.867 423.025C348.998 423.449 347.166 423.974 345.321 424.482C345.518 414.035 345.041 403.588 345.554 393.184Z" fill="#FAF4E7"/>
<path d="M334.951 395.183C337.667 404.925 335.983 417.115 334.987 427.221C334.79 416.524 334.79 405.856 334.951 395.183Z" fill="#C6BCB2"/>
<path d="M114.135 403.385C114.391 401.248 118.272 401.785 119.633 402.788C119.078 403.044 117.973 403.54 117.424 403.785C116.6 403.689 114.959 403.492 114.135 403.385Z" fill="#827062"/>
<path d="M119.64 402.782C126.224 401.935 133.202 401.97 139.769 402.89C141.566 403.654 143.53 403.773 145.446 403.451C151.206 420.082 130.146 409.916 121.837 413.826C120.284 413.898 118.732 413.981 117.18 414.059C116.571 410.65 117.24 407.17 117.425 403.773C117.98 403.529 119.085 403.033 119.634 402.776L119.64 402.782Z" fill="#449386"/>
<path d="M139.768 402.89C141.141 401.714 145.128 401.188 145.445 403.451C143.528 403.767 141.564 403.648 139.768 402.89Z" fill="#7C6856"/>
<path d="M91.6409 421.329C86.0594 406.757 104.135 403.934 114.134 403.385C114.958 403.492 116.599 403.689 117.423 403.785C117.238 407.181 116.564 410.662 117.178 414.07C108.2 414.631 99.9027 418.04 91.6409 421.335V421.329Z" fill="#FDFBF9"/>
<path d="M145.443 403.457L146.739 403.493C146.727 406.878 146.751 410.441 146.667 413.904C138.393 414.083 130.108 414.292 121.834 413.832C130.144 409.916 151.204 420.082 145.443 403.457Z" fill="#61B4A6"/>
<path d="M146.742 403.492C154.806 404.597 164.734 405.194 170.291 411.885C170.291 414.966 170.291 418.058 170.279 421.192C163.522 416.183 154.86 414.655 146.67 413.903C146.753 410.435 146.73 406.877 146.742 403.492Z" fill="#36766B"/>
<path d="M181.161 406.651C183.453 425.771 181.316 445.339 182.009 464.614C179.645 447.524 181.012 425.634 181.161 406.651Z" fill="#431B0F"/>
<path d="M79.7963 454.06C80.0291 438.689 78.9248 423.234 80.7037 407.946C81.1753 423.293 80.9245 438.665 80.9484 454.036L79.7963 454.06Z" fill="#C5C0BA"/>
<path d="M170.29 411.879L171.395 411.694C171.478 444.216 171.538 476.744 171.383 509.278L170.255 509.23C170.278 494.82 170.35 480.415 170.219 466.017C170.231 462.304 170.29 458.788 170.255 455.158C170.29 443.828 170.326 432.498 170.278 421.192C170.29 418.052 170.29 414.966 170.29 411.885V411.879Z" fill="#513327"/>
<path d="M91.642 421.33C99.9038 418.04 108.201 414.632 117.18 414.065C116.099 414.984 115.544 416.178 115.842 417.617C107.712 417.157 100.011 420.177 92.9136 423.777C92.5733 432.003 93.0688 440.301 91.8808 448.503C91.7137 442.474 91.6003 436.528 91.4928 430.546C91.3854 427.43 91.4331 424.362 91.648 421.336L91.642 421.33Z" fill="#AEA3A4"/>
<path d="M117.179 414.064C118.731 413.981 120.283 413.897 121.835 413.832C130.109 414.291 138.395 414.076 146.668 413.903C146.561 430.134 141.988 448.258 147.868 463.826C147.599 464.083 147.056 464.602 146.788 464.859L145.928 464.387C145.319 464.083 144.095 463.456 143.481 463.152C134.89 461.528 126.121 462.644 117.459 462.167C116.612 450.753 118.707 439.142 116.648 427.848C116.355 424.344 116.176 421.031 115.836 417.61C115.543 416.178 116.092 414.978 117.173 414.058L117.179 414.064Z" fill="#449386"/>
<path d="M146.668 413.904C154.858 414.656 163.519 416.184 170.277 421.193C170.325 432.499 170.289 443.829 170.253 455.159C168.468 455.404 164.892 455.887 163.12 456.12C157.407 449.936 147.032 453.828 149.825 463.594C149.33 463.654 148.345 463.773 147.861 463.827C141.987 448.252 146.554 430.135 146.662 413.904H146.668Z" fill="#36766B"/>
<path d="M92.9128 423.778C100.011 420.184 107.711 417.163 115.842 417.617C116.182 421.038 116.361 424.351 116.654 427.855C116.033 439.68 116.254 451.536 116.158 463.385C113.89 463.773 111.633 464.245 109.377 464.722C117.167 451.972 94.8887 450.091 95.8021 461.911C94.1187 462.406 92.6382 463.32 91.498 464.699C91.5577 459.254 91.4503 453.888 91.8741 448.503C93.0621 440.301 92.5666 432.004 92.9068 423.778H92.9128Z" fill="#FDFBF9"/>
<path d="M350.865 423.024C354.447 422.063 358.154 422.248 361.843 422.189L363.007 422.201C366.661 422.38 370.26 422.684 373.902 423.198C366.237 423.293 358.482 424.183 350.865 423.018V423.024Z" fill="#967F6F"/>
<path d="M116.654 427.854C118.713 439.148 116.618 450.759 117.465 462.173C126.127 462.656 134.896 461.54 143.486 463.158C134.377 463.379 125.268 463.534 116.164 463.379C116.26 451.529 116.033 439.674 116.66 427.848L116.654 427.854Z" fill="#AD9B9A"/>
<path d="M90.4192 474.04C91.243 460.113 88.5507 442.581 91.4877 430.546C91.5952 436.528 91.7086 442.473 91.8757 448.502C91.4519 453.887 91.5594 459.253 91.4997 464.698C91.5116 467.778 91.5235 470.882 91.5355 474.016L90.4192 474.04Z" fill="#51423D"/>
<path d="M348.913 432.838C358.667 431.734 377.859 428.385 385.452 440.019C378.319 436.575 360.088 428.809 362.947 443.476C361.664 448.645 372.116 445.332 370.505 449.576C362.947 449.66 355.181 448.496 347.773 450.46C344.812 447.332 343.636 441.177 347.421 438.437C352.381 434.748 360.124 437.637 364.637 433.124C359.383 432.892 354.154 432.933 348.913 432.844V432.838Z" fill="#9A817C"/>
<path d="M337.091 439.041C338.255 433.985 344.379 432.493 348.916 432.833C354.157 432.929 359.387 432.881 364.64 433.114C360.127 437.627 352.384 434.737 347.424 438.427C343.639 441.167 344.815 447.321 347.776 450.449C346.66 451.345 345.388 451.774 343.991 451.774C342.63 451.643 341.263 451.595 339.902 451.631C337.974 450.175 336.553 448.115 337.061 445.59C337.216 443.393 337.216 441.208 337.097 439.03L337.091 439.041Z" fill="#F6F2EE"/>
<path d="M337.058 445.601C334.987 444.981 334.957 439.596 337.094 439.041C337.214 441.214 337.214 443.399 337.058 445.601Z" fill="#A2958F"/>
<path d="M88 167.5C91.5 186 92 181.5 93 183.5L95 182.5L96.5 181L97 179L97.5 176.5C97.6667 174.833 98.1 171.3 98.5 170.5C100 165.5 101.333 166.5 102.5 165L103.5 164.5L106.5 158L107.5 151L108 148L109.5 144L118.5 132L128.5 120.5L129 117.5C127.333 117.667 123.8 118 123 118C103.5 124.5 95 144 94 145C88 158.5 89.6667 160.333 88 167.5Z" fill="#FDFBF9"/>
</g>
</g>
<defs>
<linearGradient id="paint0_linear_3398_4118" x1="180" y1="0" x2="180" y2="800" gradientUnits="userSpaceOnUse">
<stop stop-color="#1DB39A"/>
<stop offset="1" stop-color="#0A4F44"/>
</linearGradient>
<linearGradient id="paint1_linear_3398_4118" x1="-118.258" y1="-18.4828" x2="-118.258" y2="96.2758" gradientUnits="userSpaceOnUse">
<stop stop-color="#E0E0E0"/>
<stop offset="1" stop-color="white" stop-opacity="0"/>
</linearGradient>
<linearGradient id="paint2_linear_3398_4118" x1="181.88" y1="-56" x2="181.88" y2="32.2759" gradientUnits="userSpaceOnUse">
<stop stop-color="#E0E0E0"/>
<stop offset="1" stop-color="white" stop-opacity="0"/>
</linearGradient>
<linearGradient id="paint3_linear_3398_4118" x1="313.189" y1="85.2415" x2="313.189" y2="200" gradientUnits="userSpaceOnUse">
<stop stop-color="#E0E0E0"/>
<stop offset="1" stop-color="white" stop-opacity="0"/>
</linearGradient>
<clipPath id="clip0_3398_4118">
<rect width="360" height="800" fill="white"/>
</clipPath>
<clipPath id="clip1_3398_4118">
<rect width="360" height="440" fill="white"/>
</clipPath>
</defs>
</svg>
