<svg width="24" height="24" viewBox="0 0 24 24" fill="none" xmlns="http://www.w3.org/2000/svg">
<path fill-rule="evenodd" clip-rule="evenodd" d="M7.66406 14.3828C7.66406 14.7064 7.9264 14.9688 8.25 14.9688H19.9687C20.2924 14.9688 20.5547 14.7064 20.5547 14.3828C20.5547 10.8232 17.669 7.9375 14.1094 7.9375C10.5497 7.9375 7.66406 10.8232 7.66406 14.3828ZM8.86812 13.7969C9.15959 11.1602 11.395 9.10938 14.1094 9.10938C16.8238 9.10938 19.0592 11.1602 19.3506 13.7969H8.86812Z" fill="#FFFEFB"/>
<path fill-rule="evenodd" clip-rule="evenodd" d="M7.51367 14.3827C7.51367 14.7892 7.84316 15.1187 8.24961 15.1187H19.9684C20.3748 15.1187 20.7043 14.7892 20.7043 14.3827C20.7043 10.7402 17.7515 7.7874 14.109 7.7874C10.4665 7.7874 7.51367 10.7402 7.51367 14.3827ZM8.24961 14.8187C8.00885 14.8187 7.81367 14.6235 7.81367 14.3827C7.81367 10.9059 10.6322 8.0874 14.109 8.0874C17.5858 8.0874 20.4043 10.9059 20.4043 14.3827C20.4043 14.6235 20.2091 14.8187 19.9684 14.8187H8.24961ZM8.75599 13.8968C8.78444 13.9286 8.82508 13.9468 8.86773 13.9468H19.3502C19.3929 13.9468 19.4335 13.9286 19.462 13.8968C19.4904 13.8651 19.504 13.8227 19.4993 13.7803C19.1995 11.0684 16.9007 8.95928 14.109 8.95928C11.3173 8.95928 9.01842 11.0684 8.71864 13.7803C8.71395 13.8227 8.72754 13.8651 8.75599 13.8968ZM9.03799 13.6468C9.39478 11.1659 11.5293 9.25928 14.109 9.25928C16.6887 9.25928 18.8232 11.1659 19.18 13.6468H9.03799Z" fill="#FFFEFB"/>
<path fill-rule="evenodd" clip-rule="evenodd" d="M6.31641 9.61719C6.57269 9.61719 6.79923 9.45063 6.87567 9.20602C7.12367 8.41243 7.60212 8.04144 8.0096 7.85516C8.22008 7.75894 8.41673 7.71049 8.55949 7.68644C8.6303 7.67452 8.68611 7.66889 8.72143 7.66626C8.73902 7.66495 8.75135 7.6644 8.75769 7.66418C8.75984 7.6641 8.76129 7.66406 8.76202 7.66405C9.08369 7.66179 9.34375 7.40033 9.34375 7.07813C9.34375 6.75452 9.08142 6.49219 8.75781 6.49219V7.07813C8.75781 6.49219 8.7575 6.49219 8.75718 6.49219L8.7565 6.49219L8.75502 6.49219L8.75153 6.49222C8.74898 6.49224 8.74597 6.49227 8.74252 6.49233C8.7356 6.49245 8.7269 6.49266 8.71651 6.49303C8.69573 6.49376 8.66812 6.49511 8.63446 6.49762C8.56725 6.50262 8.47524 6.51225 8.36486 6.53084C8.14522 6.56783 7.84596 6.64145 7.52238 6.78937C7.1154 6.97542 6.67744 7.27668 6.31641 7.75169C5.95537 7.27668 5.51742 6.97542 5.11043 6.78937C4.78685 6.64145 4.48759 6.56783 4.26795 6.53084C4.15757 6.51225 4.06556 6.50262 3.99835 6.49762C3.96469 6.49511 3.93708 6.49376 3.9163 6.49303C3.90591 6.49266 3.89721 6.49245 3.8903 6.49233C3.88684 6.49227 3.88383 6.49224 3.88128 6.49222L3.87779 6.49219L3.87631 6.49219L3.87563 6.49219C3.87531 6.49219 3.875 6.49219 3.875 7.07813V6.49219C3.5514 6.49219 3.28906 6.75452 3.28906 7.07813C3.28906 7.40033 3.54913 7.66179 3.87079 7.66405C3.87152 7.66406 3.87297 7.6641 3.87512 7.66418C3.88146 7.6644 3.89379 7.66495 3.91139 7.66626C3.9467 7.66889 4.00251 7.67452 4.07333 7.68644C4.21608 7.71049 4.41274 7.75894 4.62321 7.85516C5.03069 8.04144 5.50914 8.41243 5.75714 9.20602C5.83358 9.45063 6.06013 9.61719 6.31641 9.61719Z" fill="#FFFEFB"/>
<path fill-rule="evenodd" clip-rule="evenodd" d="M11.0039 4.34375C11.2602 4.34375 11.4867 4.1772 11.5632 3.93258C11.6891 3.52961 11.9234 3.35394 12.1173 3.26532C12.2209 3.21793 12.3184 3.19388 12.3887 3.18205C12.4233 3.17622 12.4495 3.17365 12.4643 3.17255C12.4704 3.1721 12.4744 3.1719 12.4761 3.17183C12.7963 3.16787 13.0547 2.90708 13.0547 2.58594C13.0547 2.26233 12.7924 2 12.4687 2V2.58594C12.4687 2 12.4684 2 12.4681 2L12.4675 2L12.4661 2.00001L12.463 2.00003C12.4608 2.00004 12.4583 2.00007 12.4556 2.00012C12.45 2.00022 12.4434 2.00038 12.4357 2.00065C12.4204 2.00119 12.4008 2.00216 12.3773 2.0039C12.3306 2.00738 12.2682 2.01396 12.1941 2.02645C12.0469 2.05123 11.8468 2.10043 11.63 2.19953C11.422 2.29462 11.2029 2.43432 11.0039 2.63399C10.8049 2.43432 10.5858 2.29462 10.3778 2.19953C10.161 2.10043 9.96092 2.05123 9.81376 2.02645C9.73962 2.01396 9.67717 2.00738 9.63047 2.0039C9.60706 2.00216 9.58744 2.00119 9.57208 2.00065C9.5644 2.00038 9.55777 2.00022 9.55225 2.00012C9.54949 2.00007 9.54701 2.00004 9.54481 2.00003L9.54172 2.00001L9.54034 2L9.53969 2C9.53937 2 9.53906 2 9.53906 2.58594V2C9.21546 2 8.95312 2.26233 8.95312 2.58594C8.95312 2.90708 9.21148 3.16787 9.53168 3.17183C9.5334 3.1719 9.53742 3.1721 9.5435 3.17255C9.55831 3.17365 9.58455 3.17622 9.61913 3.18205C9.68941 3.19388 9.78688 3.21793 9.89055 3.26532C10.0844 3.35394 10.3187 3.52961 10.4446 3.93258C10.5211 4.1772 10.7476 4.34375 11.0039 4.34375Z" fill="#FFFEFB"/>
<path fill-rule="evenodd" clip-rule="evenodd" d="M4.05078 5.51562C4.30706 5.51562 4.5336 5.34907 4.61005 5.10446C4.73597 4.70149 4.97029 4.52581 5.16414 4.43719C5.26781 4.3898 5.36528 4.36576 5.43555 4.35392C5.47013 4.3481 5.49638 4.34553 5.51119 4.34442C5.51727 4.34397 5.52129 4.34378 5.52301 4.3437C5.84321 4.33975 6.10156 4.07895 6.10156 3.75781C6.10156 3.43421 5.83923 3.17188 5.51562 3.17188V3.75781C5.51562 3.17188 5.51531 3.17188 5.515 3.17188L5.51435 3.17188L5.51297 3.17188L5.50988 3.1719C5.50768 3.17192 5.5052 3.17195 5.50244 3.172C5.49692 3.17209 5.49029 3.17225 5.48261 3.17252C5.46725 3.17306 5.44763 3.17404 5.42422 3.17578C5.37751 3.17926 5.31507 3.18584 5.24093 3.19832C5.09377 3.22311 4.89369 3.27231 4.67692 3.3714C4.4689 3.4665 4.2498 3.60619 4.05078 3.80587C3.85176 3.60619 3.63267 3.4665 3.42464 3.3714C3.20787 3.27231 3.00779 3.22311 2.86063 3.19832C2.78649 3.18584 2.72405 3.17926 2.67734 3.17578C2.65394 3.17404 2.63431 3.17306 2.61896 3.17252C2.61127 3.17225 2.60464 3.17209 2.59913 3.172C2.59637 3.17195 2.59388 3.17192 2.59168 3.1719L2.5886 3.17188L2.58721 3.17188L2.58656 3.17188C2.58625 3.17188 2.58594 3.17188 2.58594 3.75781V3.17188C2.26233 3.17188 2 3.43421 2 3.75781C2 4.07895 2.25835 4.33975 2.57855 4.3437C2.58028 4.34378 2.5843 4.34397 2.59038 4.34442C2.60518 4.34553 2.63143 4.3481 2.66601 4.35392C2.73629 4.36576 2.83376 4.3898 2.93742 4.43719C3.13128 4.52581 3.36559 4.70149 3.49152 5.10446C3.56796 5.34907 3.7945 5.51562 4.05078 5.51562Z" fill="#FFFEFB"/>
<path fill-rule="evenodd" clip-rule="evenodd" d="M2 14.3828C2 14.7064 2.26233 14.9688 2.58594 14.9688H21.4141C21.7377 14.9688 22 14.7064 22 14.3828C22 14.0592 21.7377 13.7969 21.4141 13.7969H2.58594C2.26233 13.7969 2 14.0592 2 14.3828Z" fill="#FFFEFB"/>
<path fill-rule="evenodd" clip-rule="evenodd" d="M1.84961 14.3827C1.84961 14.7892 2.1791 15.1187 2.58555 15.1187H21.4137C21.8201 15.1187 22.1496 14.7892 22.1496 14.3827C22.1496 13.9763 21.8201 13.6468 21.4137 13.6468H2.58555C2.1791 13.6468 1.84961 13.9763 1.84961 14.3827ZM2.58555 14.8187C2.34479 14.8187 2.14961 14.6235 2.14961 14.3827C2.14961 14.142 2.34479 13.9468 2.58555 13.9468H21.4137C21.6544 13.9468 21.8496 14.142 21.8496 14.3827C21.8496 14.6235 21.6544 14.8187 21.4137 14.8187H2.58555Z" fill="#FFFEFB"/>
<path fill-rule="evenodd" clip-rule="evenodd" d="M9.07031 16.7266C9.07031 17.0502 9.33265 17.3125 9.65625 17.3125H20.2031C20.5267 17.3125 20.7891 17.0502 20.7891 16.7266C20.7891 16.403 20.5267 16.1406 20.2031 16.1406H9.65625C9.33265 16.1406 9.07031 16.403 9.07031 16.7266Z" fill="#FFFEFB"/>
<path fill-rule="evenodd" clip-rule="evenodd" d="M8.91992 16.7265C8.91992 17.1329 9.24941 17.4624 9.65586 17.4624H20.2027C20.6092 17.4624 20.9387 17.1329 20.9387 16.7265C20.9387 16.32 20.6092 15.9905 20.2027 15.9905H9.65586C9.24941 15.9905 8.91992 16.32 8.91992 16.7265ZM9.65586 17.1624C9.4151 17.1624 9.21992 16.9672 9.21992 16.7265C9.21992 16.4857 9.4151 16.2905 9.65586 16.2905H20.2027C20.4435 16.2905 20.6387 16.4857 20.6387 16.7265C20.6387 16.9672 20.4435 17.1624 20.2027 17.1624H9.65586Z" fill="#FFFEFB"/>
<path fill-rule="evenodd" clip-rule="evenodd" d="M5.55469 16.7266C5.55469 17.0502 5.81702 17.3125 6.14062 17.3125H7.3125C7.6361 17.3125 7.89844 17.0502 7.89844 16.7266C7.89844 16.403 7.6361 16.1406 7.3125 16.1406H6.14062C5.81702 16.1406 5.55469 16.403 5.55469 16.7266Z" fill="#FFFEFB"/>
<path fill-rule="evenodd" clip-rule="evenodd" d="M5.4043 16.7265C5.4043 17.1329 5.73379 17.4624 6.14023 17.4624H7.31211C7.71856 17.4624 8.04805 17.1329 8.04805 16.7265C8.04805 16.32 7.71856 15.9905 7.31211 15.9905H6.14023C5.73379 15.9905 5.4043 16.32 5.4043 16.7265ZM6.14023 17.1624C5.89947 17.1624 5.7043 16.9672 5.7043 16.7265C5.7043 16.4857 5.89947 16.2905 6.14023 16.2905H7.31211C7.55287 16.2905 7.74805 16.4857 7.74805 16.7265C7.74805 16.9672 7.55287 17.1624 7.31211 17.1624H6.14023Z" fill="#FFFEFB"/>
<path fill-rule="evenodd" clip-rule="evenodd" d="M18.4844 19.0703C18.4844 19.3939 18.7467 19.6562 19.0703 19.6562H21.4141C21.7377 19.6562 22 19.3939 22 19.0703C22 18.7467 21.7377 18.4844 21.4141 18.4844H19.0703C18.7467 18.4844 18.4844 18.7467 18.4844 19.0703Z" fill="#FFFEFB"/>
<path fill-rule="evenodd" clip-rule="evenodd" d="M18.334 19.0702C18.334 19.4767 18.6635 19.8062 19.0699 19.8062H21.4137C21.8201 19.8062 22.1496 19.4767 22.1496 19.0702C22.1496 18.6638 21.8201 18.3343 21.4137 18.3343H19.0699C18.6635 18.3343 18.334 18.6638 18.334 19.0702ZM19.0699 19.5062C18.8292 19.5062 18.634 19.311 18.634 19.0702C18.634 18.8295 18.8292 18.6343 19.0699 18.6343H21.4137C21.6544 18.6343 21.8496 18.8295 21.8496 19.0702C21.8496 19.311 21.6544 19.5062 21.4137 19.5062H19.0699Z" fill="#FFFEFB"/>
<path fill-rule="evenodd" clip-rule="evenodd" d="M13.7969 19.0703C13.7969 19.3939 14.0592 19.6562 14.3828 19.6562H16.7266C17.0502 19.6562 17.3125 19.3939 17.3125 19.0703C17.3125 18.7467 17.0502 18.4844 16.7266 18.4844H14.3828C14.0592 18.4844 13.7969 18.7467 13.7969 19.0703Z" fill="#FFFEFB"/>
<path fill-rule="evenodd" clip-rule="evenodd" d="M13.6465 19.0702C13.6465 19.4767 13.976 19.8062 14.3824 19.8062H16.7262C17.1326 19.8062 17.4621 19.4767 17.4621 19.0702C17.4621 18.6638 17.1326 18.3343 16.7262 18.3343H14.3824C13.976 18.3343 13.6465 18.6638 13.6465 19.0702ZM14.3824 19.5062C14.1417 19.5062 13.9465 19.311 13.9465 19.0702C13.9465 18.8295 14.1417 18.6343 14.3824 18.6343H16.7262C16.9669 18.6343 17.1621 18.8295 17.1621 19.0702C17.1621 19.311 16.9669 19.5062 16.7262 19.5062H14.3824Z" fill="#FFFEFB"/>
<path fill-rule="evenodd" clip-rule="evenodd" d="M9.10938 21.4141C9.10938 21.7377 9.37171 22 9.69531 22H19.0703C19.3939 22 19.6562 21.7377 19.6562 21.4141C19.6562 21.0905 19.3939 20.8281 19.0703 20.8281H9.69531C9.37171 20.8281 9.10938 21.0905 9.10938 21.4141Z" fill="#FFFEFB"/>
<path fill-rule="evenodd" clip-rule="evenodd" d="M8.95898 21.414C8.95898 21.8204 9.28847 22.1499 9.69492 22.1499H19.0699C19.4764 22.1499 19.8059 21.8204 19.8059 21.414C19.8059 21.0075 19.4764 20.678 19.0699 20.678H9.69492C9.28847 20.678 8.95898 21.0075 8.95898 21.414ZM9.69492 21.8499C9.45416 21.8499 9.25898 21.6547 9.25898 21.414C9.25898 21.1732 9.45416 20.978 9.69492 20.978H19.0699C19.3107 20.978 19.5059 21.1732 19.5059 21.414C19.5059 21.6547 19.3107 21.8499 19.0699 21.8499H9.69492Z" fill="#FFFEFB"/>
</svg>
